<?xml version="1.0" standalone="no"?>
<!DOCTYPE svg PUBLIC "-//W3C//DTD SVG 20010904//EN"
 "http://www.w3.org/TR/2001/REC-SVG-20010904/DTD/svg10.dtd">
<svg version="1.0" xmlns="http://www.w3.org/2000/svg"
 width="512.000000pt" height="512.000000pt" viewBox="0 0 512.000000 512.000000"
 preserveAspectRatio="xMidYMid meet">
<metadata>
Created by potrace 1.11, written by Peter Selinger 2001-2013
</metadata>
<g transform="translate(0.000000,512.000000) scale(0.100000,-0.100000)"
fill="#000000" stroke="none">
<path d="M115 5106 c-37 -17 -80 -62 -94 -99 -15 -40 -15 -4854 0 -4894 14
-38 57 -83 96 -99 27 -12 420 -14 2455 -14 l2423 0 40 23 c22 12 50 38 62 56
l23 34 0 2447 0 2447 -23 34 c-12 18 -40 44 -62 56 l-40 23 -2425 -1 c-2004 0
-2430 -2 -2455 -13z m2195 -2160 l0 -123 -551 -1149 c-303 -632 -554 -1152
-558 -1157 -4 -4 -118 -6 -254 -5 l-247 3 524 1080 523 1080 -614 3 -613 2 0
195 0 195 895 0 895 0 0 -124z m629 98 c123 -62 175 -219 112 -343 -26 -51
-100 -114 -149 -129 -138 -42 -287 35 -326 169 -20 66 -20 82 0 148 18 63 81
136 139 162 62 29 158 25 224 -7z"/>
<path d="M2760 2969 c-62 -25 -100 -85 -100 -157 0 -63 30 -109 90 -140 124
-64 258 44 228 183 -21 92 -129 149 -218 114z"/>
</g>
</svg>
