<svg width="136" height="35" viewBox="0 0 136 35" fill="none" xmlns="http://www.w3.org/2000/svg">
<g clip-path="url(#clip0)">
<path d="M43.7076 27.9601C43.3295 27.6936 42.8707 27.5665 42.4094 27.6006C42.2875 27.6114 42.1648 27.5924 42.0518 27.5455C41.9388 27.4985 41.8388 27.425 41.7603 27.331C41.7166 27.2371 41.6928 27.1351 41.6904 27.0314C41.2111 22.1884 42.0399 17.2454 41.1712 12.4523C40.9914 11.4537 40.5621 10.0757 39.3338 10.0657C38.485 10.0657 37.6462 11.1841 37.117 11.7732C35.6662 13.6473 34.5235 15.7406 33.7318 17.9744C32.4004 21.2098 30.8892 24.3819 29.1983 27.4908C28.9977 27.9418 28.6973 28.3413 28.3195 28.6591C28.0899 28.8289 27.8103 28.9287 27.5806 29.0985C27.2921 29.3613 27.0601 29.6801 26.8987 30.0355C26.7373 30.3908 26.65 30.7753 26.6419 31.1655C26.5497 31.9918 26.5497 32.8257 26.6419 33.652C26.6328 34.0199 26.765 34.3772 27.0114 34.6506C27.4208 35.01 28.01 34.8503 28.5991 34.8403C28.8818 34.8823 29.1706 34.8513 29.4379 34.7504C30.0571 34.4009 29.6676 33.4023 29.9772 32.7533C30.1188 32.5412 30.3028 32.3607 30.5177 32.2232C30.7325 32.0857 30.9735 31.9942 31.2254 31.9544C33.5859 31.3054 36.0274 30.9994 38.475 31.0457C38.8711 31.0244 39.266 31.1034 39.6234 31.2754C40.7418 31.9245 40.3224 33.8317 41.3509 34.6206C41.8545 34.9325 42.4584 35.0397 43.0385 34.9202C43.2119 34.9136 43.3805 34.862 43.5278 34.7704C43.6319 34.6691 43.7147 34.548 43.7713 34.4143C43.8279 34.2805 43.8572 34.1367 43.8574 33.9915C44.0466 32.4645 44.1366 30.9268 44.127 29.3881C44.1581 29.134 44.1369 28.8763 44.0648 28.6308C43.9927 28.3852 43.8711 28.157 43.7076 27.9601ZM38.3852 28.05C37.1137 28.3745 35.8118 28.5653 34.5007 28.6192C33.6819 28.6891 32.3738 28.9986 32.923 27.6206L35.4094 21.5193L36.6177 18.5236C36.7176 18.2739 37.4665 16.137 37.9857 16.9858C38.505 17.8346 38.3352 19.0429 38.4051 19.9815C38.4051 20.6506 38.9743 27.7904 38.4051 27.9701L38.3852 28.05Z" fill="#201600"/>
<path d="M45.8048 18.7831C45.6251 19.2136 45.5301 19.6747 45.5252 20.1412C45.4367 22.0823 45.4768 24.0271 45.645 25.9629C45.6426 27.7097 46.086 29.4282 46.9332 30.9558C47.1865 31.363 47.5701 31.6727 48.0216 31.8345C49.15 32.204 49.9289 31.3053 50.538 30.5064L52.9246 27.3709C53.3961 28.6005 54.2923 29.6207 55.451 30.2468C55.6092 30.3382 55.7934 30.3741 55.9744 30.3488C56.1553 30.3235 56.3226 30.2383 56.4496 30.107L57.0887 29.4779C57.2228 29.3678 57.3174 29.2171 57.3583 29.0485C57.3548 28.8513 57.2844 28.6611 57.1586 28.5093C55.9176 26.5266 55.3795 24.1842 55.6307 21.8588C55.6307 21.01 56.4596 19.4322 55.9503 18.6933C55.8148 18.4863 55.6316 18.3148 55.4162 18.1932C55.2007 18.0716 54.9593 18.0033 54.7121 17.9943C53.6436 17.9943 53.1343 19.1426 52.7848 20.1013C51.8386 22.6211 50.5409 24.9946 48.9303 27.1512L48.7805 21.5692C48.8371 20.5441 48.5868 19.5254 48.0616 18.6433C47.3825 17.6947 46.354 17.6048 45.8048 18.7831Z" fill="#201600"/>
<path d="M60.9729 18.8731C60.5393 19.0868 60.1307 19.348 59.7547 19.652C59.112 20.1118 58.5573 20.6834 58.117 21.3395C57.7028 22.1064 57.4858 22.9644 57.4858 23.836C57.4858 24.7076 57.7028 25.5655 58.117 26.3324C58.9466 27.8614 60.1488 29.1563 61.612 30.097C61.9499 30.3957 62.3436 30.6244 62.7704 30.7701C63.1971 30.9158 63.6485 30.9755 64.0985 30.9458C64.4138 30.9045 64.7058 30.7576 64.927 30.5292C65.1482 30.3007 65.2856 30.0041 65.3167 29.6876C65.3167 28.749 64.3182 28.1997 63.5493 27.6905C62.6668 27.1708 61.9898 26.3634 61.632 25.4037C60.7533 22.6577 61.9016 21.5193 64.428 21.03C64.6457 20.9938 64.8473 20.8923 65.0061 20.739C65.1648 20.5856 65.2731 20.3876 65.3167 20.1712C65.5264 18.5535 62.1413 18.3338 60.9729 18.8731Z" fill="#201600"/>
<path d="M68.3223 17.6148C68.1463 17.6796 67.992 17.7926 67.8772 17.941C67.7624 18.0893 67.6918 18.267 67.6733 18.4536C67.3619 22.3168 67.3018 26.1961 67.4935 30.0671C67.4714 30.7259 67.573 31.3829 67.7931 32.0043C67.908 32.3135 68.1057 32.5851 68.3646 32.7894C68.6235 32.9937 68.9336 33.1228 69.261 33.1626C69.6563 33.1289 70.0299 32.9674 70.3254 32.7026C70.6208 32.4378 70.822 32.084 70.8987 31.6947C71.0337 30.901 70.9996 30.0878 70.7988 29.3081C70.629 28.5975 70.612 27.8589 70.7489 27.1412C70.773 27.118 70.8053 27.1051 70.8388 27.1051C70.8722 27.1051 70.9044 27.118 70.9286 27.1412C72.5363 28.9487 74.3038 30.806 76.6405 31.3952C77.1267 31.5566 77.6521 31.5566 78.1383 31.3952C78.4014 31.316 78.6249 31.1402 78.7638 30.9031C78.9027 30.6661 78.9468 30.3852 78.8873 30.117C78.7603 29.8111 78.5447 29.5502 78.2681 29.3681L75.2724 26.9515C74.5634 26.3723 73.7746 25.5735 74.0242 24.6947C74.204 24.0401 74.5477 23.4421 75.0228 22.9572L76.8901 21.6291C77.2795 21.3595 77.689 21.0499 77.669 20.4808C77.6448 20.1903 77.5198 19.9174 77.3155 19.7095C77.1112 19.5016 76.8406 19.3717 76.5506 19.3424C76.0721 19.3345 75.5991 19.4452 75.174 19.6648C74.7488 19.8844 74.3846 20.2059 74.1141 20.6006C68.8316 26.7418 72.4165 16.2069 68.3223 17.6148Z" fill="#201600"/>
<path d="M88.7932 21.779C88.0043 19.7019 86.1569 18.274 83.0713 18.933C82.2892 19.1729 81.5836 19.6136 81.0247 20.211C80.4658 20.8084 80.0732 21.5418 79.8859 22.3382C78.9872 25.1741 79.5564 29.9473 82.9615 30.856C87.9444 32.1741 90.321 25.7733 88.7932 21.779ZM85.7974 25.3539C85.3081 26.9116 84.0799 29.3481 82.8017 27.4109C82.4618 26.8041 82.3319 26.102 82.4322 25.4138C82.4356 24.5266 82.7343 23.6659 83.281 22.9673C83.5731 22.6275 83.987 22.4162 84.4335 22.3789C84.8799 22.3415 85.3232 22.4811 85.6676 22.7675C85.8537 23.0216 85.983 23.3127 86.0468 23.6211C86.1105 23.9295 86.1072 24.248 86.0371 24.555C85.9775 24.8269 85.8973 25.094 85.7974 25.3539Z" fill="#201600"/>
<path d="M94.3852 20.1512C94.4037 19.5989 94.2872 19.0504 94.0457 18.5534C93.9182 18.3083 93.7157 18.1103 93.4679 17.9882C93.2201 17.8661 92.9397 17.8262 92.6677 17.8744C91.9187 18.0841 91.6691 19.0328 91.6691 19.8116L90.8702 29.8673C90.7843 30.4538 90.8183 31.0517 90.9701 31.6248C91.0511 31.9098 91.2148 32.1644 91.4406 32.3564C91.6663 32.5484 91.9439 32.6691 92.2383 32.7032C93.1669 32.7032 93.7162 31.6148 93.7062 30.7061C93.5624 29.7863 93.5624 28.8498 93.7062 27.93C93.8491 27.5457 94.0716 27.1959 94.3589 26.9034C94.6463 26.6109 94.9921 26.3823 95.3738 26.2325C96.0117 25.9769 96.6855 25.822 97.3709 25.7731C97.4787 25.7642 97.5859 25.7963 97.671 25.8629C97.7562 25.9296 97.813 26.0259 97.8303 26.1326L98.6391 31.5149C98.65 31.8492 98.7812 32.1684 99.0086 32.4136C99.1642 32.5303 99.3534 32.5934 99.5478 32.5934C99.7423 32.5934 99.9315 32.5303 100.087 32.4136C100.408 32.1347 100.632 31.7603 100.726 31.3452C100.925 30.6776 101.026 29.9847 101.026 29.2881L101.116 19.1326C101.143 18.9372 101.13 18.7383 101.079 18.5479C101.027 18.3575 100.938 18.1793 100.816 18.0242C100.641 17.8898 100.427 17.8169 100.207 17.8169C99.9865 17.8169 99.7724 17.8898 99.5977 18.0242C99.2542 18.3022 98.9977 18.6731 98.8588 19.0927C98.5689 19.9383 98.4172 20.825 98.4095 21.7189C98.4391 21.9941 98.387 22.272 98.2597 22.5178C98.1267 22.6832 97.9553 22.8135 97.7604 22.8972L96.0029 23.8159C95.1841 24.2453 94.4451 24.5149 94.1955 23.6462C93.9458 22.7774 94.4152 21.1198 94.3852 20.1512Z" fill="#201600"/>
<path d="M104.071 19.0628C103.7 19.7457 103.567 20.5325 103.692 21.2996L104.111 29.1284C104.111 29.9572 104.331 30.9757 105.11 31.2553C105.433 31.3345 105.773 31.3039 106.077 31.1683C106.381 31.0327 106.631 30.7998 106.787 30.5064C107.085 29.9137 107.268 29.2699 107.327 28.6091C107.633 26.8377 108.209 25.1236 109.034 23.5264C109.224 23.1669 109.573 22.7575 109.943 22.9073C110.112 23.0009 110.24 23.1539 110.302 23.3367C111.361 25.6234 110.592 28.4993 111.88 30.6662C112.24 31.2753 112.959 31.8345 113.598 31.5449C113.984 31.2987 114.26 30.912 114.367 30.4665L116.364 25.1441C116.593 24.5449 116.903 23.8659 117.522 23.7061L118.361 28.4893C118.435 29.3475 118.735 30.1709 119.23 30.8759C119.49 31.2169 119.871 31.4452 120.295 31.514C120.718 31.5827 121.152 31.4866 121.506 31.2454C121.737 30.988 121.892 30.6715 121.954 30.3312C122.016 29.9909 121.982 29.6402 121.856 29.3181C121.656 28.659 121.277 28.0599 121.087 27.4008C120.87 26.246 120.87 25.0607 121.087 23.9058C121.173 22.9825 121.173 22.0532 121.087 21.1298C121.064 20.546 120.907 19.9753 120.628 19.4622C120.483 19.2078 120.269 18.9997 120.011 18.8618C119.753 18.724 119.462 18.6621 119.17 18.6833C118.608 18.8575 118.131 19.2349 117.832 19.7418L114.137 24.505L112.489 19.8516C112.24 19.1426 111.84 18.3138 111.081 18.2639C110.322 18.214 109.983 18.7432 109.593 19.2625L108.026 21.1897C107.836 21.4194 107.526 21.669 107.287 21.5093C107.047 21.3495 107.117 21.1598 107.097 20.97C106.967 19.7018 105.26 17.3852 104.071 19.0628Z" fill="#201600"/>
<path d="M107.676 14.2297C108.982 13.3926 110.482 12.9075 112.03 12.8217C114.454 12.4681 116.929 12.8435 119.14 13.9002C119.574 14.0966 119.945 14.4115 120.208 14.8089C120.334 15.0107 120.389 15.2484 120.366 15.485C120.342 15.7216 120.241 15.9437 120.078 16.117C119.639 16.5064 118.95 16.3167 118.391 16.117C116.907 15.5651 115.328 15.3127 113.746 15.3744C112.164 15.4361 110.61 15.8107 109.174 16.4765C108.475 16.846 107.177 17.6748 106.538 16.7761C105.899 15.8773 107.017 14.699 107.676 14.2297Z" fill="#201600"/>
<path d="M123.893 18.7632C123.519 19.6164 123.391 20.5572 123.524 21.4793L123.783 26.1327C123.863 27.6305 124.103 30.9458 126.359 30.9957C127.688 30.9957 129.355 29.5778 130.064 28.6691C130.364 28.2496 130.933 27.7603 131.322 28.1098C131.408 28.1954 131.476 28.2972 131.522 28.4094C131.855 29.4092 132.54 30.2538 133.449 30.786C133.742 30.9238 134.071 30.9633 134.388 30.8985C134.705 30.8337 134.992 30.6681 135.207 30.4265C135.896 29.5678 135.207 28.4294 134.807 27.4308C134.088 25.5335 134.638 23.4365 134.718 21.4394C134.811 20.5521 134.633 19.6574 134.208 18.873C134.023 18.6205 133.768 18.4275 133.475 18.3178C133.182 18.208 132.863 18.1863 132.558 18.2552C132.252 18.3241 131.974 18.4808 131.756 18.7058C131.538 18.9309 131.391 19.2146 131.332 19.5221C130.593 23.3167 129.924 25.4536 127.188 27.3609L127.438 21.1298C127.517 20.4337 127.446 19.7288 127.228 19.0628C127.114 18.7253 126.902 18.4289 126.62 18.2107C126.338 17.9924 125.999 17.8619 125.643 17.8353C125.288 17.8087 124.932 17.8872 124.621 18.061C124.31 18.2349 124.057 18.4965 123.893 18.8131V18.7632Z" fill="#201600"/>
<path d="M9.82594 8.64763C9.2967 8.88729 9.44649 9.80598 9.56632 10.2054C9.68614 10.6048 9.74606 10.9344 10.0356 10.8545C10.3252 10.7746 10.3951 10.1555 10.505 9.96575C10.605 9.83543 10.6748 9.68451 10.7094 9.52389C10.7439 9.36328 10.7423 9.197 10.7047 9.03708C10.6378 8.87048 10.5086 8.73656 10.3444 8.66383C10.1803 8.59109 9.99429 8.58528 9.82594 8.64763Z" fill="#201600"/>
<path d="M25.4537 23.1769L24.565 20.1812C24.2455 19.136 24.27 18.0159 24.6349 16.9857C25.6578 14.1415 25.632 11.0255 24.5622 8.19854C23.4924 5.37156 21.4489 3.01919 18.7992 1.56471C16.1495 0.110232 13.0678 -0.350864 10.1084 0.264395C7.14909 0.879654 4.50648 2.53087 2.65612 4.92093C0.80575 7.31098 -0.130885 10.283 0.0147495 13.3021C0.160384 16.3212 1.37872 19.1892 3.45055 21.3901C5.52237 23.5909 8.31163 24.9801 11.3165 25.3077C14.3213 25.6352 17.3443 24.8797 19.8417 23.1769C20.0597 23.0321 20.3055 22.9343 20.5633 22.8896C20.8212 22.8449 21.0855 22.8543 21.3396 22.9173L24.8845 23.7561C24.9638 23.7735 25.0462 23.7705 25.124 23.7474C25.2017 23.7243 25.2724 23.6818 25.3293 23.6239C25.3862 23.566 25.4274 23.4946 25.4492 23.4165C25.4709 23.3383 25.4725 23.2558 25.4537 23.1769ZM17.4651 17.1855C17.3782 17.6029 17.2032 17.9971 16.9518 18.3415C16.7004 18.6859 16.3783 18.9726 16.0072 19.1826C15.3781 19.5121 14.4294 19.9016 13.8802 19.1826C13.5872 18.6749 13.4022 18.1122 13.3369 17.5297C13.2716 16.9471 13.3274 16.3574 13.5008 15.7974C13.6425 15.2658 13.9109 14.7765 14.2831 14.3713C14.6553 13.9661 15.1201 13.6571 15.6377 13.4708C15.9192 13.3695 16.2226 13.3454 16.5165 13.4009C17.2254 13.5606 17.2953 14.2896 17.4351 14.8887C17.6154 15.6538 17.6154 16.4503 17.4351 17.2154L17.4651 17.1855ZM17.8745 6.87019C17.6548 7.37946 17.4351 7.86876 17.1955 8.38802C16.6691 9.46119 16.0153 10.467 15.2483 11.3837C14.4794 12.3024 13.5607 13.0913 12.7419 13.9601C12.1844 14.5355 11.7074 15.1838 11.3239 15.8873C11.0408 16.5979 10.8007 17.3248 10.6049 18.0642C10.4451 18.4836 10.0657 18.933 9.60633 18.8231C9.39742 18.7588 9.22186 18.6155 9.11703 18.4237C8.95876 18.1353 8.86759 17.8149 8.8503 17.4865C8.83301 17.158 8.89005 16.8298 9.01717 16.5264C9.53209 15.4336 10.2351 14.4399 11.0942 13.5906C12.4023 12.1726 13.9801 10.8146 14.739 8.98717C14.7496 8.97458 14.7554 8.95867 14.7554 8.94223C14.7554 8.92579 14.7496 8.90988 14.739 8.89729L12.642 9.08702C12.581 9.09188 12.5239 9.11897 12.4816 9.16315C12.4392 9.20733 12.4146 9.26553 12.4123 9.32668C12.3998 9.94039 12.254 10.544 11.985 11.0958C11.7161 11.6476 11.3303 12.1343 10.8545 12.5221C7.5992 14.6391 6.86025 8.60771 9.56639 7.09986C11.0443 6.28103 11.9031 6.82026 12.2526 7.82882C12.267 7.87642 12.2959 7.91833 12.3353 7.94875C12.3747 7.97917 12.4225 7.99658 12.4722 7.99858C13.2813 8.03905 14.092 7.96169 14.8788 7.76891L15.2183 7.67903C15.2819 7.28015 15.3856 6.88872 15.5279 6.5107C15.675 6.24718 15.8799 6.02043 16.1272 5.84747C16.3745 5.67452 16.6578 5.55987 16.9558 5.51213C17.2953 5.51213 17.7447 5.30243 18.0243 5.58203C18.3039 5.86163 18.0343 6.50072 17.8745 6.87019Z" fill="#201600"/>
</g>
<defs>
<clipPath id="clip0">
<rect width="135.506" height="35" fill="white"/>
</clipPath>
</defs>
</svg>
