<svg width="141" height="15" viewBox="0 0 141 15" fill="none" xmlns="http://www.w3.org/2000/svg">
<g clip-path="url(#clip0)">
<path d="M46.0536 7.64842V14.8545H42.759V0.128052L52.1187 7.37485V0.186259H55.3725V14.8778L46.0536 7.64842Z" fill="#201600"/>
<path d="M66.5134 2.95694H61.0885V5.61701H66.0769V8.94647H61.0885V12.1071H66.7055V14.8545H57.3574V0.186279H66.5134V2.95694Z" fill="#201600"/>
<path d="M83.0558 0.145508V14.8545H79.8021V8.3178L75.8905 11.589L71.9965 8.3178V14.8545H68.7427V0.145508L75.8672 6.51338L83.0558 0.145508Z" fill="#201600"/>
<path d="M95.582 13.0093H89.802L88.9405 14.8545H84.9824L85.2793 14.3073L92.6832 0L100.116 14.3073L100.466 14.8545H96.4492L95.582 13.0093ZM92.6716 5.94878L91.0185 9.80209H94.3712L92.6716 5.94878Z" fill="#201600"/>
<path d="M105.792 12.0664H111.694V14.8603H102.602V0.186279H105.792V12.0664Z" fill="#201600"/>
<path d="M129.843 2.95694V0.186279H140.739V2.95694H137.154V14.8545H133.446V2.95694H129.843Z" fill="#201600"/>
<path d="M35.0233 10.8207C34.4446 11.2208 33.7736 11.4672 33.0734 11.5367C30.4075 11.9674 27.5903 10.2794 27.5903 7.52037C27.5903 4.86612 29.9826 3.27707 32.5961 3.44587C33.4623 3.42773 34.3113 3.68897 35.0175 4.19092V0.698487C34.012 0.247507 32.9239 0.00968266 31.8219 0C28.0909 0 24.319 2.53783 24.3016 7.52037C24.2841 12.5029 28.0967 15.0233 31.8219 15C32.9215 15.0058 34.0107 14.788 35.0233 14.3597V12.7125C35.0233 12.1537 35.035 11.397 35.0233 10.8207Z" fill="#201600"/>
<path d="M40.1862 11.5658V3.45752V0.186279H37.0547V3.45752H37.0605V11.5658H37.0547V14.8545H40.1862V11.5658Z" fill="#201600"/>
<path d="M117.311 11.5658V3.45752V0.186279H114.179V3.45752H114.185V11.5658H114.179V14.8545H117.311V11.5658Z" fill="#201600"/>
<path d="M127.846 3.64381V0.733452C127.846 0.733452 121.071 -1.37947 119.575 2.67757C118.079 6.73462 122.311 8.32367 124.005 8.96395C125.699 9.60423 126.263 11.4203 124.034 11.9034C121.805 12.3865 119.575 10.7043 119.575 10.7043V14.1968C121.329 14.7749 123.187 14.9733 125.023 14.7789C127.753 14.3947 129.208 12.2643 128.725 9.36558C128.242 6.46686 123.196 6.17583 122.515 5.0175C121.834 3.85918 123.399 1.32717 127.846 3.64381Z" fill="#201600"/>
<path d="M6.7404 2.13623L5.7858 0.413298H9.95343L11.0768 2.15951L9.95343 3.90573H5.7858L6.7404 2.13623ZM11.979 3.88245H16.4726L17.4331 2.13623L16.4726 0.390015H12.0081L12.9686 2.13623L11.979 3.88245ZM16.1234 11.5192H5.29686C4.71164 11.4935 4.16036 11.2373 3.7634 10.8065C3.36643 10.3758 3.15602 9.80542 3.17811 9.22005V3.85916H3.72526L4.84866 2.11295L3.72526 0.413298H0V9.22005C0 12.3865 2.37485 14.9651 5.29686 14.9651H16.5017L17.4622 13.2189L16.5017 11.4727L16.1234 11.5192Z" fill="#201600"/>
</g>
<defs>
<clipPath id="clip0">
<rect width="140.739" height="15" fill="white"/>
</clipPath>
</defs>
</svg>
