<svg width="92" height="20" viewBox="0 0 92 20" fill="none" xmlns="http://www.w3.org/2000/svg">
<g clip-path="url(#clip0)">
<path d="M62.6491 9.17217C62.1524 9.03972 61.7881 8.97349 61.2915 8.84104C61.4239 7.947 61.5895 7.05296 61.7219 6.05959C63.6424 6.0927 65.3643 5.62912 67.2186 6.49005C69.3047 5.5629 71.5564 4.99998 73.808 6.82118C75.0994 5.99336 76.5232 5.62912 78.1126 5.62912C80.3974 5.66223 82.2848 7.51654 81.9537 9.60263C81.755 10.894 81.5564 12.1854 81.3246 13.5099C80.9603 15.4636 80.563 17.3841 80.1987 19.3708C78.808 19.6689 77.4835 19.6026 76.0597 19.4371C76.2252 17.6821 76.5895 15.9271 76.9537 14.2053C77.1193 13.3444 77.2848 12.5165 77.4173 11.6556C77.5166 10.9934 77.8477 9.96687 77.5497 9.33773C77.3179 8.87416 76.7219 8.67548 76.2252 8.7417C75.3312 8.87416 74.5365 9.40396 74.3709 10.298C73.8411 13.1126 73.2782 15.894 72.7153 18.7086C72.6822 18.9073 72.616 19.1391 72.5497 19.4371C71.2252 19.4371 69.967 19.4371 68.5762 19.4371C68.5431 18.9735 68.4438 18.6093 68.51 18.245C68.9736 15.8609 69.4703 13.5099 69.967 11.1589C70.1325 10.4304 70.265 9.37084 69.5034 8.90727C68.9736 8.57614 67.8477 8.84104 67.3511 9.20528C66.8213 9.60263 66.7219 10.4304 66.5895 11.0596C66.0597 13.543 65.5961 16.0265 65.1325 18.4768C65.0663 18.7417 65.0001 19.0066 64.9007 19.3046C63.5762 19.6689 62.3179 19.6357 60.8279 19.3377C61.3908 15.9934 61.9868 12.6821 62.6491 9.17217Z" fill="black"/>
<path d="M13.4768 9.40399C14.106 10.2649 14.9669 11.0265 15.3311 11.9868C16.0596 13.8411 15.3973 15.5629 14.1391 16.9868C12.4503 18.9073 10.1656 19.702 7.68212 19.9007C6.65563 19.9669 5.59603 19.9007 4.56954 19.7682C2.84768 19.5364 1.29139 18.8742 0 17.4835C0.331126 16.2252 1.45695 15.5629 2.38411 14.6689C3.31126 15.3311 4.17218 15.9272 5.29801 16.1921C7.25166 16.6556 9.40397 16.2914 10.5298 14.5033C11.0927 13.6424 10.7947 12.6159 10 12.0199C9.10596 11.3576 7.78146 11.3907 6.75497 11.1921C6.42384 10.2649 6.42384 10.2649 7.01987 8.07949C7.01987 8.01326 8.11258 8.04638 8.21192 8.04638C9.23841 7.98015 10.1987 7.81459 10.9272 6.98677C11.5232 6.29141 11.7219 5.33114 11.457 4.47022C11.3907 4.27154 11.2914 4.07287 11.1258 3.97353C10.8278 3.77485 10.3311 3.70863 10 3.67552C9.53642 3.60929 9.07285 3.6424 8.60927 3.80797C7.84768 4.07287 7.38411 4.56956 6.95364 5.16558C6.88742 5.26492 6.55629 5.89406 6.45695 5.92717C4.30464 6.15896 4.17218 6.12585 2.91391 5.43048C2.74834 4.40399 3.11258 3.3775 3.77483 2.5828C4.80132 1.39075 6.25828 0.496708 7.81457 0.26492C10.0662 -0.0662063 12.3179 -0.231769 14.4371 0.894059C16.3576 1.92055 17.1192 3.87419 16.3907 5.92717C15.7616 7.61591 15.2318 8.24505 13.4768 9.40399Z" fill="black"/>
<path d="M31.1257 7.28482C30.3972 11.457 29.7019 15.4967 28.9734 19.7352C28.4436 19.8014 27.7482 19.9007 27.0529 19.9669C26.7218 19.404 26.4569 18.9405 26.2251 18.5431C25.2317 18.9736 24.3045 19.4703 23.3112 19.7352C20.7615 20.4636 17.7814 18.9736 17.2516 16.5563C16.2582 12.053 18.4105 6.92058 23.5429 5.79476C25.2979 5.3974 27.0529 5.59608 28.7416 6.22522C29.5032 6.52323 30.2979 6.92058 31.1257 7.28482ZM26.49 9.40403C24.6688 8.34442 23.3112 8.60932 22.384 10.2981C21.5562 11.7881 21.2582 13.6093 21.3575 15.2981C21.3575 15.5299 21.3906 15.7285 21.49 15.9603C21.6555 16.3577 22.0529 16.5895 22.4833 16.6888C23.6423 16.9537 24.4701 16.4901 25.033 15.4967C25.2979 15.0332 25.5297 14.5034 25.629 13.9736C25.9602 12.4835 26.192 10.9934 26.49 9.40403Z" fill="black"/>
<path d="M50.7285 14.7682C51.1258 16.3907 51.8543 16.9868 53.4437 16.755C54.7351 16.5563 55.9934 16.2252 57.4834 15.8941C57.7483 16.4901 58.0795 17.2186 58.3775 17.9139C57.8808 18.9073 56.8874 18.9073 56.1258 19.2384C54.2384 20.0662 52.3179 20.0331 50.298 19.7351C47.8146 19.3378 46.0596 16.8874 46.2252 14.3046C46.3576 12.4503 46.9205 10.6954 47.8808 9.00663C49.5364 6.12584 54.3046 4.9669 57.1192 6.0265C59.6358 6.98677 60.3642 9.9669 58.543 11.9868C57.4503 13.245 56.0265 13.9404 54.404 14.2384C53.245 14.5033 52.053 14.6027 50.7285 14.7682ZM50.9603 11.9205C52.4503 11.9205 53.6755 11.6888 54.7351 10.9603C55.3973 10.5298 55.6291 9.66889 55.2649 9.07286C54.9007 8.41061 54.3377 8.24505 53.5762 8.41061C51.8212 8.84107 51.4569 10.2649 50.9603 11.9205Z" fill="black"/>
<path d="M39.4701 14.6027C38.841 14.702 38.4768 14.7683 38.1125 14.8345C36.4569 15.1656 34.9668 14.8345 33.4768 14.0729C32.8145 13.7418 32.4172 13.212 32.3509 12.5497C32.086 10.3312 32.7483 8.24509 33.3774 6.09277C34.7682 6.09277 35.9933 6.09277 37.2516 6.09277C37.4834 7.88085 36.3245 9.53648 36.7218 11.2252C38.0463 11.7219 38.4437 11.755 40.0662 11.3908C40.4304 9.66893 40.8278 7.91397 41.2251 6.09277C42.6158 6.09277 43.8741 6.09277 45.3311 6.09277C44.735 10.5961 43.6754 14.9669 42.7814 19.3378C41.1258 19.6689 39.9999 19.6358 38.6423 19.2716C38.9072 17.8477 39.1721 16.3577 39.4701 14.6027Z" fill="black"/>
<path d="M87.5167 0.496704C88.8743 0.496704 90.265 0.496704 91.722 0.496704C91.7882 0.860943 91.9207 1.12584 91.8544 1.35763C90.7617 5.69538 89.6359 10.0662 88.4769 14.5033C87.5498 14.5033 86.722 14.5033 85.861 14.5033C85.4968 13.245 86.5564 4.20531 87.5167 0.496704Z" fill="black"/>
<path d="M84.6026 16.1921C86.0264 15.596 87.2185 15.298 88.6092 16.2252C88.4436 17.1854 88.2781 18.245 88.1125 19.3046C86.7549 19.7682 85.4635 19.6027 84.0728 19.4702C84.2383 18.3113 84.4039 17.2517 84.6026 16.1921Z" fill="black"/>
<path d="M51.2251 4.7351C50.2317 4.70198 49.2715 3.9404 49.1721 2.91391C49.0397 1.72185 49.9006 0.529799 51.1589 0.463574C52.1854 0.397349 53.1787 1.19205 53.3774 2.21854C53.5761 3.24503 52.9138 4.33775 51.9205 4.63576C51.6887 4.70198 51.4569 4.7351 51.2251 4.7351Z" fill="black"/>
<path d="M57.2847 0.529785C58.245 0.529785 59.1721 1.29137 59.3377 2.25164C59.5364 3.27813 58.841 4.37084 57.8476 4.63575C56.6225 4.96687 55.3642 4.07283 55.1655 2.88078C54.9669 1.75495 56.0264 0.59601 57.1192 0.529785C57.1523 0.562898 57.2185 0.529785 57.2847 0.529785Z" fill="black"/>
</g>
<defs>
<clipPath id="clip0">
<rect width="91.8543" height="20" fill="white"/>
</clipPath>
</defs>
</svg>
