<svg width="122" height="40" viewBox="0 0 122 40" fill="none" xmlns="http://www.w3.org/2000/svg">
<g clip-path="url(#clip0)">
<path d="M18.49 4.06999C22.8445 4.00962 27.076 5.51345 30.4158 8.3082C33.7555 11.1029 35.9818 15.0031 36.69 19.3H0.290039C0.99438 15.0013 3.21957 11.0988 6.56019 8.30329C9.90082 5.50781 14.1345 4.00547 18.49 4.06999Z" fill="black"/>
<path d="M36.5802 24.9C35.7365 29.0567 33.4668 32.7879 30.1635 35.4484C26.8603 38.1089 22.7311 39.5315 18.4901 39.47C14.2496 39.5295 10.1215 38.1063 6.81863 35.4461C3.51577 32.7859 1.24558 29.0558 0.400146 24.9H36.5802Z" fill="#BDBDBD"/>
<path d="M30.9999 25.09V19L26.4699 16.6L21.6299 19.16V33.91C23.8318 33.399 25.8589 32.3135 27.5049 30.7642C29.1508 29.2149 30.3568 27.257 30.9999 25.09Z" fill="#1A1A1A"/>
<path d="M31 25.09V19.09L26.49 16.58V31.58C28.6562 29.9618 30.2388 27.6844 31 25.09Z" fill="#1A1A1A"/>
<path d="M18.03 22.15L27.42 22.16V6.05002L22.88 3.52002L18.03 6.22002V22.15Z" fill="white"/>
<path d="M28 19.3V6.61999C26.5857 5.79804 25.0693 5.16594 23.49 4.73999V19.3H28Z" fill="#1A1A1A"/>
<path d="M13.5601 33.34V2.52L18.1001 0L23.0001 2.7V33.52C19.9507 34.5899 16.6187 34.5295 13.6101 33.35L13.5601 33.34Z" fill="white"/>
<path d="M17.1301 34.21C15.9055 34.0866 14.7041 33.7938 13.5601 33.34V3.28002L18.0801 0.77002V34.26C17.7626 34.2667 17.4451 34.25 17.1301 34.21Z" fill="#1A1A1A"/>
<path d="M6.12988 25.59V8.06004L10.6699 5.54004L15.5099 8.24004V34C13.3547 33.5242 11.3589 32.5001 9.71558 31.0267C8.07229 29.5534 6.8372 27.6807 6.12988 25.59Z" fill="white"/>
<path d="M6 25.24V11.8L10.84 9.07996V31.89C8.52438 30.281 6.81913 27.9381 6 25.24Z" fill="#1A1A1A"/>
<path d="M6 19.3V8.78004C7.44099 7.49694 9.07413 6.44754 10.84 5.67004V19.3H6Z" fill="#1A1A1A"/>
<path d="M18.6602 34.2601V13.7001L23.2002 11.1801L28.0002 13.8801V30.2301C26.7883 31.4875 25.3384 32.4914 23.735 33.1832C22.1315 33.8751 20.4064 34.2411 18.6602 34.2601Z" fill="white"/>
<path d="M19 34.26V13.67L23.51 11.16V33.28C22.075 33.8662 20.5489 34.1979 19 34.26Z" fill="#1A1A1A"/>
<path d="M18.2 4.60994C22.553 4.54919 26.7833 6.05162 30.1229 8.84435C33.4624 11.6371 35.6896 15.5349 36.4 19.8299H0C0.704548 15.5322 2.93012 11.6308 6.27096 8.83699C9.61181 6.04316 13.8454 4.54298 18.2 4.60994Z" fill="#595959"/>
<path d="M36.2699 25.4301C35.4244 29.5859 33.1542 33.3159 29.8514 35.9761C26.5485 38.6363 22.4204 40.0595 18.1799 40C13.9401 40.0611 9.81232 38.6382 6.51072 35.9776C3.20913 33.3169 0.941395 29.5859 0.0998535 25.4301H36.2699Z" fill="#595959"/>
<path d="M30.7101 25.62V19.52L26.1701 17.13L21.3301 19.69V34.43C23.5326 33.9214 25.5611 32.8382 27.2088 31.2906C28.8565 29.743 30.0646 27.7864 30.7101 25.62Z" fill="#1A1A1A"/>
<path d="M30.7099 25.62V19.62L26.2 17.14V32.14C28.3714 30.5141 29.9546 28.2254 30.7099 25.62Z" fill="#1A1A1A"/>
<path d="M17.74 22.6799L27.13 22.6899V6.57993L22.59 4.04993L17.74 6.74993V22.6799Z" fill="white"/>
<path d="M27.6899 19.82V7.15002C26.2756 6.32818 24.7592 5.69608 23.1799 5.27002V19.82H27.6899Z" fill="#1A1A1A"/>
<path d="M13.27 33.85V3.00003L17.81 0.530029L22.66 3.23003V34C19.6131 35.0763 16.281 35.0231 13.27 33.85Z" fill="white"/>
<path d="M16.83 34.7399C15.605 34.6133 14.4035 34.3171 13.26 33.8599V3.85993L17.78 1.29993V34.7999C17.42 34.7799 17.21 34.7899 16.83 34.7399Z" fill="#1A1A1A"/>
<path d="M5.83008 26.12V8.59996L10.3701 6.07996L15.2101 8.77996V34.48C13.0605 34.0087 11.0685 32.9921 9.42567 31.5279C7.78286 30.0637 6.5446 28.2013 5.83008 26.12Z" fill="white"/>
<path d="M5.71997 25.77V12.33L10.56 9.59998V32.42C8.24435 30.811 6.5391 28.4681 5.71997 25.77Z" fill="#1A1A1A"/>
<path d="M5.71997 19.8201V9.31007C7.16086 8.02684 8.79402 6.97743 10.56 6.20007V19.8201H5.71997Z" fill="#1A1A1A"/>
<path d="M18.3601 34.8001V14.2501L22.9001 11.6901L27.7401 14.3901V30.7601C26.5244 32.0241 25.0684 33.0326 23.4577 33.7263C21.8469 34.4201 20.1138 34.7851 18.3601 34.8001Z" fill="white"/>
<path d="M18.76 34.7901V14.2101L23.27 11.6901V33.8101C21.835 34.3963 20.3089 34.7279 18.76 34.7901Z" fill="#1A1A1A"/>
<path d="M45.2 10.32L44.26 15.65H43.26L44.91 7.26001L47.68 13.62L50.43 7.26001L52 15.67H51L50.08 10.32L47.66 15.82L45.2 10.32Z" fill="#201600"/>
<path d="M53.41 13.3001C53.3768 13.7178 53.511 14.1315 53.7829 14.4504C54.0548 14.7692 54.4422 14.9669 54.86 15.0001C55.1803 14.9981 55.4931 14.9024 55.7597 14.7247C56.0263 14.5469 56.2349 14.295 56.36 14.0001L57.17 14.4601C56.9444 14.8778 56.6092 15.2262 56.2004 15.4676C55.7916 15.709 55.3247 15.8343 54.85 15.8301C54.5295 15.834 54.2114 15.7748 53.9139 15.6559C53.6163 15.5369 53.3451 15.3605 53.1158 15.1367C52.8864 14.9129 52.7034 14.6461 52.5771 14.3516C52.4509 14.057 52.3839 13.7405 52.38 13.4201C52.38 13.3467 52.38 13.2734 52.38 13.2001C52.3332 12.8566 52.3619 12.5071 52.4642 12.176C52.5666 11.8449 52.74 11.5401 52.9724 11.2829C53.2048 11.0258 53.4905 10.8225 53.8096 10.6873C54.1288 10.552 54.4736 10.4882 54.82 10.5001C56.45 10.5001 57.17 11.6801 57.17 13.1701V13.3201L53.41 13.3001ZM56.27 12.5701C56.2444 12.2244 56.0868 11.9018 55.8299 11.6691C55.573 11.4364 55.2365 11.3114 54.89 11.3201C54.5416 11.3197 54.2052 11.4465 53.9437 11.6767C53.6823 11.9068 53.5138 12.2245 53.47 12.5701H56.27Z" fill="#201600"/>
<path d="M63.4499 15.65L61.6799 13.43L61.5399 13.55V15.66H60.5399V13.54L60.4199 13.42L58.6499 15.64H57.4299L59.7799 12.89L57.5299 10.64H58.7999L60.5499 12.55V10.64H61.5499V12.55L63.2999 10.64H64.5699L62.3499 12.9L64.6999 15.65H63.4499Z" fill="#201600"/>
<path d="M65.72 17.19H64.72V14.75C65.65 14.69 65.78 13.84 65.78 12.89V10.64H69.52V14.75H70.18V17.19H69.18V15.65H65.72V17.19ZM66.78 13.33C66.8018 13.5947 66.7616 13.8608 66.6627 14.1073C66.5637 14.3538 66.4087 14.5738 66.21 14.75H68.58V11.52H66.77L66.78 13.33Z" fill="#201600"/>
<path d="M70.0898 10.64H71.2098L72.8998 13.82L74.4698 10.64H75.5499L71.4998 18.52H70.4198L72.4198 14.8L70.0898 10.64Z" fill="#201600"/>
<path d="M79.4 15.65V13.39H77V15.65H76V10.65H77V12.5H79.4V10.64H80.4V15.64L79.4 15.65Z" fill="#201600"/>
<path d="M86.37 15.65H85.37V14.87C85.1936 15.1662 84.9453 15.4131 84.6481 15.5879C84.351 15.7627 84.0146 15.8597 83.67 15.87C83.3456 15.8623 83.0259 15.7906 82.7292 15.6593C82.4325 15.5279 82.1646 15.3393 81.9408 15.1044C81.717 14.8694 81.5416 14.5927 81.4248 14.2899C81.308 13.9872 81.252 13.6644 81.26 13.34C81.26 13.28 81.26 13.22 81.26 13.16C81.2382 12.8376 81.2802 12.5141 81.3835 12.2079C81.4869 11.9017 81.6495 11.6189 81.8622 11.3756C82.0748 11.1323 82.3334 10.9333 82.6229 10.7899C82.9125 10.6465 83.2276 10.5616 83.55 10.54H83.63C83.9797 10.5453 84.3223 10.6399 84.6251 10.815C84.9279 10.99 85.1809 11.2396 85.36 11.54V10.71H86.36L86.37 15.65ZM85.46 13.15C85.4852 12.9249 85.4626 12.697 85.3937 12.4812C85.3248 12.2654 85.2111 12.0665 85.0601 11.8976C84.9091 11.7288 84.7241 11.5937 84.5173 11.5012C84.3105 11.4087 84.0865 11.3609 83.86 11.3609C83.6334 11.3609 83.4094 11.4087 83.2026 11.5012C82.9958 11.5937 82.8109 11.7288 82.6599 11.8976C82.5088 12.0665 82.3952 12.2654 82.3263 12.4812C82.2573 12.697 82.2348 12.9249 82.26 13.15C82.2348 13.3752 82.2573 13.6031 82.3263 13.8189C82.3952 14.0347 82.5088 14.2336 82.6599 14.4024C82.8109 14.5713 82.9958 14.7064 83.2026 14.7989C83.4094 14.8914 83.6334 14.9392 83.86 14.9392C84.0865 14.9392 84.3105 14.8914 84.5173 14.7989C84.7241 14.7064 84.9091 14.5713 85.0601 14.4024C85.2111 14.2336 85.3248 14.0347 85.3937 13.8189C85.4626 13.6031 85.4852 13.3752 85.46 13.15Z" fill="#201600"/>
<path d="M88.51 11.47C88.6916 11.1673 88.9479 10.9164 89.2544 10.7413C89.5608 10.5662 89.9071 10.4728 90.26 10.47C90.9064 10.496 91.5162 10.7766 91.9565 11.2506C92.3967 11.7246 92.6316 12.3534 92.61 13V13.08C92.6417 13.4031 92.6095 13.7292 92.5151 14.0399C92.4206 14.3505 92.2659 14.6394 92.0597 14.8902C91.8535 15.141 91.5999 15.3486 91.3134 15.5013C91.0269 15.654 90.7131 15.7487 90.39 15.78H90.21C89.8658 15.7679 89.5301 15.6701 89.2333 15.4955C88.9364 15.3208 88.6878 15.0749 88.51 14.78V18.43H87.51V10.64H88.51V11.47ZM91.67 13.14C91.6952 12.9148 91.6726 12.6869 91.6037 12.4711C91.5348 12.2553 91.4211 12.0564 91.2701 11.8876C91.1191 11.7187 90.9341 11.5836 90.7273 11.4911C90.5205 11.3986 90.2965 11.3508 90.07 11.3508C89.8435 11.3508 89.6195 11.3986 89.4127 11.4911C89.2059 11.5836 89.0209 11.7187 88.8699 11.8876C88.7189 12.0564 88.6052 12.2553 88.5363 12.4711C88.4674 12.6869 88.4448 12.9148 88.47 13.14C88.4448 13.3651 88.4674 13.593 88.5363 13.8088C88.6052 14.0247 88.7189 14.2235 88.8699 14.3924C89.0209 14.5612 89.2059 14.6963 89.4127 14.7888C89.6195 14.8813 89.8435 14.9291 90.07 14.9291C90.2965 14.9291 90.5205 14.8813 90.7273 14.7888C90.9341 14.6963 91.1191 14.5612 91.2701 14.3924C91.4211 14.2235 91.5348 14.0247 91.6037 13.8088C91.6726 13.593 91.6952 13.3651 91.67 13.14Z" fill="#201600"/>
<path d="M98.4701 13.15C98.4701 13.6801 98.3129 14.1982 98.0185 14.639C97.724 15.0797 97.3054 15.4232 96.8157 15.626C96.326 15.8289 95.7871 15.8819 95.2673 15.7785C94.7474 15.6751 94.2699 15.4199 93.8951 15.0451C93.5203 14.6703 93.265 14.1927 93.1616 13.6729C93.0582 13.153 93.1113 12.6142 93.3141 12.1244C93.517 11.6347 93.8605 11.2162 94.3012 10.9217C94.7419 10.6272 95.2601 10.47 95.7901 10.47C96.4886 10.4593 97.1629 10.7259 97.6652 11.2114C98.1675 11.6968 98.457 12.3616 98.4701 13.06V13.15ZM94.0801 13.15C94.088 13.4864 94.1949 13.813 94.3875 14.0889C94.5802 14.3648 94.8499 14.5778 95.163 14.7011C95.476 14.8244 95.8185 14.8526 96.1476 14.7822C96.4766 14.7117 96.7775 14.5458 97.0127 14.3051C97.2479 14.0645 97.4068 13.7598 97.4696 13.4292C97.5324 13.0986 97.4963 12.7569 97.3658 12.4467C97.2352 12.1366 97.0161 11.8719 96.7358 11.6857C96.4556 11.4995 96.1266 11.4001 95.7901 11.4C95.3339 11.4105 94.9 11.5998 94.582 11.9272C94.264 12.2545 94.0874 12.6937 94.0901 13.15H94.0801Z" fill="#201600"/>
<path d="M99.5701 17.19H98.5701V14.75C99.5001 14.69 99.6301 13.84 99.6301 12.89V10.64H103.37V14.75H104V17.19H103V15.65H99.5801L99.5701 17.19ZM100.63 13.33C100.652 13.5947 100.612 13.8608 100.513 14.1073C100.414 14.3538 100.259 14.5738 100.06 14.75H102.44V11.52H100.63V13.33Z" fill="#201600"/>
<path d="M108.07 15.65V13.39H105.72V15.65H104.72V10.65H105.72V12.5H108.07V10.64H109.07V15.64L108.07 15.65Z" fill="#201600"/>
<path d="M111.31 12.35H112.7C114.03 12.35 114.65 12.92 114.65 13.96C114.674 14.1879 114.647 14.4184 114.57 14.6342C114.492 14.8499 114.367 15.0455 114.204 15.2061C114.04 15.3667 113.842 15.4883 113.625 15.5617C113.408 15.6351 113.177 15.6585 112.95 15.63H110.35V10.63H111.35L111.31 12.35ZM112.6 14.77C112.91 14.77 113.68 14.61 113.68 14.01C113.68 13.68 113.45 13.25 112.68 13.25H111.35V14.77H112.6ZM116.23 10.65V15.65H115.23V10.65H116.23Z" fill="#201600"/>
<path d="M120.87 15.65V12.57L117.55 15.88V10.64H118.55V13.7L121.87 10.39V15.63L120.87 15.65ZM119.87 9.74999C119.463 9.76166 119.064 9.63575 118.737 9.3926C118.411 9.14944 118.176 8.80326 118.07 8.40999L118.78 8.23999C118.854 8.47191 119.001 8.67421 119.197 8.81774C119.394 8.96126 119.631 9.0386 119.875 9.0386C120.119 9.0386 120.356 8.96126 120.553 8.81774C120.749 8.67421 120.896 8.47191 120.97 8.23999L121.69 8.38999C121.576 8.78319 121.337 9.1282 121.008 9.37206C120.679 9.61593 120.279 9.74518 119.87 9.73999V9.74999Z" fill="#201600"/>
<path d="M48.6299 23.57C48.6352 23.9188 48.5711 24.2651 48.4413 24.5888C48.3116 24.9125 48.1187 25.2072 47.8739 25.4556C47.6292 25.7041 47.3374 25.9014 47.0157 26.0361C46.694 26.1707 46.3487 26.2401 45.9999 26.24H45.8699C44.2999 26.24 43.1899 25.14 43.1899 23.04C43.1899 19.56 44.5899 18.09 46.3399 17.49C47.0799 17.23 47.3399 17.09 47.4199 16.78H48.4799C48.4799 17.44 47.5699 18.09 46.6599 18.29C45.3399 18.58 44.2599 20.13 44.1099 21.85C44.3241 21.5386 44.6155 21.2882 44.9556 21.1235C45.2957 20.9587 45.6728 20.8851 46.0499 20.91C46.3901 20.9165 46.7256 20.99 47.0374 21.1262C47.3491 21.2624 47.631 21.4587 47.8668 21.7038C48.1027 21.949 48.288 22.2382 48.4121 22.555C48.5361 22.8718 48.5966 23.2099 48.5899 23.55L48.6299 23.57ZM44.2399 23.57C44.2478 23.9068 44.355 24.2338 44.5481 24.5099C44.7412 24.786 45.0115 24.9989 45.3251 25.122C45.6388 25.245 45.9818 25.2726 46.3111 25.2013C46.6404 25.1301 46.9413 24.9632 47.176 24.7215C47.4108 24.4799 47.5689 24.1742 47.6306 23.843C47.6923 23.5118 47.6547 23.1698 47.5227 22.8598C47.3906 22.5498 47.17 22.2858 46.8884 22.1008C46.6068 21.9158 46.2768 21.8182 45.9399 21.82C45.4837 21.8305 45.0498 22.0198 44.7318 22.3472C44.4139 22.6745 44.2372 23.1137 44.2399 23.57Z" fill="#201600"/>
<path d="M52.82 26.07V23L49.5 26.3V21H50.5V24.1L53.82 20.79V26L52.82 26.07Z" fill="#201600"/>
<path d="M56.6999 23C57.3199 23 57.6999 22.75 57.6999 22.3C57.6999 21.85 57.3799 21.71 56.8299 21.71C56.6221 21.6869 56.412 21.7236 56.2243 21.8157C56.0365 21.9078 55.8789 22.0515 55.7699 22.23L54.9899 21.83C55.1881 21.5108 55.4675 21.25 55.7996 21.0743C56.1317 20.8985 56.5046 20.8142 56.8799 20.83C57.8799 20.83 58.6599 21.28 58.6599 22.25C58.6441 22.4797 58.5578 22.699 58.4129 22.8779C58.268 23.0569 58.0714 23.1868 57.8499 23.25C58.1349 23.3042 58.3915 23.4573 58.5745 23.6824C58.7575 23.9075 58.855 24.19 58.8499 24.48C58.8499 25.48 57.9699 26.13 56.6899 26.13C56.2877 26.1482 55.8881 26.0552 55.5353 25.8611C55.1825 25.6671 54.89 25.3795 54.6899 25.03L55.4999 24.66C55.6288 24.8611 55.8086 25.0245 56.0212 25.1334C56.2338 25.2424 56.4714 25.2929 56.7099 25.28C57.1099 25.28 57.9199 25.13 57.9199 24.51C57.9199 24.06 57.7499 23.7 56.9199 23.7H56.3499V23H56.6999Z" fill="#201600"/>
<path d="M63.13 26.0699V23.8099H60.78V26.0699H59.78V21.0699H60.78V22.9199H63.13V21.0599H64.13V26.0599L63.13 26.0699Z" fill="#201600"/>
<path d="M66.0001 23.72C65.9755 24.1375 66.1174 24.5478 66.3949 24.8609C66.6723 25.174 67.0626 25.3642 67.4801 25.39C67.8005 25.388 68.1132 25.2923 68.3798 25.1146C68.6464 24.9369 68.8551 24.685 68.9801 24.39L69.7901 24.85C69.5645 25.2677 69.2293 25.6161 68.8205 25.8575C68.4117 26.0989 67.9448 26.2242 67.4701 26.22C66.8246 26.228 66.2023 25.9799 65.7394 25.5301C65.2764 25.0803 65.0106 24.4654 65.0001 23.82C65.0001 23.7533 65.0001 23.6833 65.0001 23.61C64.9533 23.2666 64.982 22.9171 65.0844 22.5859C65.1867 22.2548 65.3601 21.95 65.5925 21.6928C65.8249 21.4357 66.1106 21.2324 66.4297 21.0972C66.7489 20.9619 67.0937 20.8981 67.4401 20.91C69.0701 20.91 69.7901 22.09 69.7901 23.57V23.72H66.0001ZM68.8401 23C68.8097 22.6579 68.65 22.3402 68.3936 22.1117C68.1372 21.8832 67.8034 21.761 67.4601 21.77C67.1079 21.7591 66.7642 21.8787 66.4948 22.1057C66.2253 22.3327 66.0492 22.6511 66.0001 23H68.8401Z" fill="#201600"/>
<path d="M74.31 22.4801C74.1363 22.2692 73.9179 22.0997 73.6706 21.9838C73.4232 21.868 73.1532 21.8086 72.88 21.8101C72.4264 21.8257 71.9972 22.019 71.6848 22.3482C71.3724 22.6775 71.2019 23.1163 71.21 23.5701C71.1979 23.7921 71.2297 24.0143 71.3036 24.224C71.3775 24.4337 71.492 24.6267 71.6406 24.7921C71.7893 24.9574 71.9691 25.0918 72.1697 25.1876C72.3704 25.2833 72.588 25.3385 72.81 25.3501H72.95C73.2127 25.3467 73.4715 25.2859 73.7081 25.1718C73.9448 25.0578 74.1537 24.8934 74.32 24.6901V25.9201C73.8957 26.1459 73.4206 26.2595 72.94 26.2501C72.2415 26.2635 71.5662 25.9995 71.0619 25.5159C70.5577 25.0323 70.2658 24.3685 70.25 23.6701C70.2473 22.9697 70.5209 22.2966 71.0114 21.7967C71.5019 21.2968 72.1698 21.0106 72.87 21.0001H73C73.4643 20.9947 73.9221 21.1084 74.33 21.3301L74.31 22.4801Z" fill="#201600"/>
<path d="M81.92 26.18V28.94H81V26.18C80.6268 26.237 80.2457 26.2126 79.8829 26.1086C79.52 26.0047 79.1838 25.8235 78.8975 25.5775C78.6111 25.3316 78.3813 25.0266 78.2238 24.6836C78.0662 24.3405 77.9846 23.9675 77.9846 23.59C77.9846 23.2125 78.0662 22.8395 78.2238 22.4965C78.3813 22.1534 78.6111 21.8485 78.8975 21.6025C79.1838 21.3566 79.52 21.1754 79.8829 21.0714C80.2457 20.9674 80.6268 20.9431 81 21V16.78H82V21C82.3619 20.9683 82.7265 21.0122 83.0706 21.129C83.4147 21.2457 83.7307 21.4328 83.9986 21.6782C84.2665 21.9237 84.4804 22.2222 84.6267 22.5548C84.7731 22.8873 84.8487 23.2467 84.8487 23.61C84.8487 23.9734 84.7731 24.3327 84.6267 24.6653C84.4804 24.9979 84.2665 25.2964 83.9986 25.5418C83.7307 25.7873 83.4147 25.9743 83.0706 26.0911C82.7265 26.2078 82.3619 26.2517 82 26.22L81.92 26.18ZM80.92 21.84C80.689 21.8196 80.4564 21.8453 80.2354 21.9156C80.0145 21.9859 79.8098 22.0994 79.6331 22.2495C79.4564 22.3996 79.3113 22.5833 79.2062 22.7899C79.1011 22.9966 79.0381 23.222 79.0209 23.4532C79.0037 23.6844 79.0326 23.9167 79.1059 24.1367C79.1792 24.3566 79.2955 24.5598 79.448 24.7344C79.6005 24.909 79.7861 25.0516 79.9942 25.1538C80.2023 25.2561 80.4286 25.316 80.66 25.33H80.92V21.84ZM81.92 21.84V25.33C82.1509 25.3504 82.3836 25.3247 82.6045 25.2544C82.8254 25.1841 83.0302 25.0706 83.2069 24.9206C83.3835 24.7705 83.5287 24.5868 83.6337 24.3801C83.7388 24.1735 83.8018 23.948 83.8191 23.7168C83.8363 23.4856 83.8074 23.2533 83.7341 23.0334C83.6608 22.8135 83.5445 22.6103 83.392 22.4357C83.2395 22.2611 83.0538 22.1185 82.8457 22.0162C82.6377 21.914 82.4114 21.8541 82.18 21.84H81.92Z" fill="#201600"/>
<path d="M90.64 23.57C90.6439 24.1001 90.4906 24.6194 90.1994 25.0623C89.9082 25.5052 89.4922 25.8518 89.004 26.0582C88.5159 26.2647 87.9774 26.3218 87.4568 26.2223C86.9362 26.1228 86.4568 25.8711 86.0792 25.4991C85.7016 25.1271 85.4428 24.6515 85.3355 24.1324C85.2282 23.6133 85.2773 23.0741 85.4764 22.5829C85.6756 22.0917 86.016 21.6706 86.4545 21.3728C86.893 21.0751 87.4099 20.914 87.94 20.91H88C88.3453 20.9034 88.6887 20.9649 89.0103 21.091C89.3319 21.217 89.6256 21.4053 89.8744 21.6448C90.1233 21.8844 90.3225 22.1707 90.4607 22.4873C90.599 22.8039 90.6735 23.1446 90.68 23.49C90.68 23.49 90.64 23.55 90.64 23.57ZM86.25 23.57C86.2559 23.9052 86.3603 24.2312 86.55 24.5075C86.7397 24.7838 87.0065 24.9983 87.3171 25.1242C87.6278 25.2502 87.9686 25.2821 88.2972 25.2159C88.6258 25.1498 88.9277 24.9885 89.1654 24.7522C89.4031 24.5158 89.5661 24.2148 89.6341 23.8866C89.7021 23.5584 89.6722 23.2174 89.548 22.9061C89.4238 22.5947 89.2109 22.3268 88.9357 22.1354C88.6604 21.9441 88.3351 21.8379 88 21.83C87.5402 21.8353 87.1013 22.0223 86.779 22.3502C86.4567 22.6781 86.2773 23.1203 86.28 23.58L86.25 23.57Z" fill="#201600"/>
<path d="M92.4102 21.89C92.5872 21.5833 92.8425 21.3291 93.15 21.1534C93.4574 20.9777 93.806 20.8868 94.1602 20.89C94.8083 20.916 95.4197 21.198 95.8602 21.6742C96.3008 22.1503 96.5345 22.7817 96.5102 23.43V23.51C96.5419 23.8331 96.5096 24.1592 96.4152 24.4699C96.3208 24.7805 96.1661 25.0694 95.9599 25.3202C95.7537 25.571 95.5001 25.7786 95.2136 25.9313C94.9271 26.084 94.6133 26.1787 94.2902 26.21H94.1102C93.766 26.1979 93.4302 26.1001 93.1334 25.9255C92.8366 25.7508 92.588 25.5049 92.4102 25.21V28.86H91.4102V21.06H92.4102V21.89ZM95.5702 23.56C95.5954 23.3348 95.5728 23.1069 95.5039 22.8911C95.435 22.6753 95.3213 22.4764 95.1703 22.3076C95.0193 22.1387 94.8343 22.0036 94.6275 21.9111C94.4207 21.8186 94.1967 21.7708 93.9702 21.7708C93.7436 21.7708 93.5196 21.8186 93.3128 21.9111C93.106 22.0036 92.9211 22.1387 92.77 22.3076C92.619 22.4764 92.5053 22.6753 92.4364 22.8911C92.3675 23.1069 92.3449 23.3348 92.3702 23.56C92.3449 23.7851 92.3675 24.013 92.4364 24.2288C92.5053 24.4447 92.619 24.6435 92.77 24.8124C92.9211 24.9812 93.106 25.1163 93.3128 25.2088C93.5196 25.3013 93.7436 25.3491 93.9702 25.3491C94.1967 25.3491 94.4207 25.3013 94.6275 25.2088C94.8343 25.1163 95.0193 24.9812 95.1703 24.8124C95.3213 24.6435 95.435 24.4447 95.5039 24.2288C95.5728 24.013 95.5954 23.7851 95.5702 23.56Z" fill="#201600"/>
<path d="M96.5601 21.0599H97.6801L99.3701 24.2399L100.94 21.0599H102L98.0001 28.9399H96.8801L98.8801 25.2199L96.5601 21.0599Z" fill="#201600"/>
<path d="M105.19 24.35L106.84 20.88L108.5 26.06H107.5L106.69 23.27L105.25 26.27L103.8 23.27L103 26.05H101.92L103.67 20.88L105.19 24.35Z" fill="#201600"/>
<path d="M46.9999 36.49V34.23H44.6899V36.49H43.6899V31.49H44.6899V33.34H46.9999V31.48H47.9999V36.48L46.9999 36.49Z" fill="#201600"/>
<path d="M49.9 34.14C49.8782 34.5575 50.0228 34.9667 50.302 35.2778C50.5813 35.589 50.9725 35.7767 51.39 35.8C51.7104 35.798 52.0232 35.7023 52.2897 35.5246C52.5563 35.3469 52.765 35.095 52.89 34.8L53.7 35.26C53.4745 35.6778 53.1392 36.0261 52.7304 36.2675C52.3216 36.5089 51.8547 36.6342 51.38 36.63C51.0596 36.6326 50.7418 36.5721 50.4447 36.4519C50.1477 36.3317 49.8772 36.1542 49.6488 35.9295C49.4203 35.7048 49.2384 35.4373 49.1134 35.1422C48.9883 34.8472 48.9226 34.5304 48.92 34.21C48.92 34.1433 48.92 34.0733 48.92 34C48.8732 33.6566 48.902 33.3071 49.0043 32.9759C49.1066 32.6448 49.28 32.34 49.5124 32.0828C49.7448 31.8257 50.0305 31.6224 50.3497 31.4872C50.6688 31.352 51.0136 31.2881 51.36 31.3C52.99 31.3 53.71 32.48 53.71 33.96V34.11L49.9 34.14ZM52.76 33.41C52.7344 33.0643 52.5769 32.7417 52.32 32.509C52.0631 32.2763 51.7265 32.1513 51.38 32.16C51.0386 32.1692 50.7118 32.3003 50.4587 32.5296C50.2056 32.7589 50.0429 33.0712 50 33.41H52.76Z" fill="#201600"/>
<path d="M54.8799 38H53.8799V35.59C54.8099 35.53 54.9399 34.68 54.9399 33.73V31.48H58.6799V35.59H59.3399V38H58.3399V36.49H54.8799V38ZM55.9399 34.14C55.9617 34.4047 55.9215 34.6708 55.8226 34.9173C55.7236 35.1638 55.5686 35.3838 55.3699 35.56H57.7399V32.36H55.9299L55.9399 34.14Z" fill="#201600"/>
<path d="M64.12 32.75C64.1321 32.9668 64.0732 33.1817 63.9523 33.3621C63.8314 33.5425 63.6551 33.6786 63.45 33.75C63.7386 33.8006 63.9989 33.9542 64.1828 34.1822C64.3667 34.4102 64.4617 34.6973 64.45 34.99C64.45 35.53 64.22 36.47 62.78 36.47H60V31.47H62.61C63.89 31.48 64.12 32.24 64.12 32.75ZM62.21 33.48C62.78 33.48 63.21 33.33 63.21 32.88C63.21 32.43 62.52 32.34 62.21 32.34H61V33.47L62.21 33.48ZM62.48 35.63C62.79 35.63 63.48 35.52 63.48 34.92C63.48 34.59 63.28 34.28 62.48 34.28H61V35.63H62.48Z" fill="#201600"/>
<path d="M68.83 36.49V33.41L65.51 36.72V31.48H66.51V34.56L69.83 31.25V36.49H68.83Z" fill="#201600"/>
<path d="M76.51 36.49L74.74 34.26L74.6 34.38V36.49H73.6V34.39L73.46 34.27L71.7 36.49H70.48L72.83 33.74L70.58 31.49H71.85L73.6 33.4V31.48H74.6V33.39L76.35 31.48H77.62L75.4 33.74L77.75 36.49H76.51Z" fill="#201600"/>
<path d="M81.7599 36.49V33.41L78.4399 36.72V31.48H79.4399V34.56L82.7599 31.25V36.49H81.7599Z" fill="#201600"/>
<path d="M86.6998 34.78L88.3498 31.31L89.9998 36.4901H88.9998L88.1898 33.7001L86.7498 36.7001L85.2999 33.7001L84.4898 36.4801H83.3398L84.9998 31.3L86.6998 34.78Z" fill="#201600"/>
<path d="M95.5699 33.9999C95.5738 34.5299 95.4205 35.0492 95.1293 35.4921C94.8381 35.935 94.4221 36.2816 93.934 36.4881C93.4458 36.6946 92.9073 36.7517 92.3867 36.6522C91.8661 36.5526 91.3867 36.301 91.0091 35.929C90.6315 35.557 90.3727 35.0814 90.2654 34.5623C90.1581 34.0432 90.2072 33.504 90.4064 33.0128C90.6055 32.5216 90.9459 32.1005 91.3844 31.8027C91.8229 31.5049 92.3399 31.3439 92.8699 31.3399C93.2166 31.3346 93.5609 31.3977 93.8833 31.5255C94.2056 31.6533 94.4996 31.8433 94.7485 32.0848C94.9973 32.3262 95.1962 32.6143 95.3337 32.9326C95.4712 33.2509 95.5447 33.5932 95.5499 33.9399L95.5699 33.9999ZM91.1799 33.9999C91.1878 34.3363 91.2947 34.6629 91.4873 34.9388C91.6799 35.2147 91.9497 35.4276 92.2627 35.5509C92.5758 35.6743 92.9183 35.7025 93.2473 35.632C93.5764 35.5616 93.8773 35.3957 94.1125 35.155C94.3476 34.9143 94.5066 34.6096 94.5694 34.2791C94.6322 33.9485 94.5961 33.6068 94.4655 33.2966C94.335 32.9865 94.1159 32.7217 93.8356 32.5355C93.5554 32.3494 93.2264 32.25 92.8899 32.2499C92.4336 32.2604 91.9998 32.4497 91.6818 32.777C91.3638 33.1044 91.1871 33.5436 91.1899 33.9999H91.1799Z" fill="#201600"/>
<path d="M100.13 32.9001C99.9554 32.6911 99.7365 32.5235 99.4892 32.4094C99.242 32.2952 98.9724 32.2374 98.7001 32.2401C98.4729 32.244 98.2487 32.2926 98.0403 32.3832C97.8319 32.4738 97.6433 32.6045 97.4855 32.7679C97.3276 32.9314 97.2035 33.1243 97.1202 33.3357C97.0369 33.5471 96.9961 33.7729 97.0001 34.0001C96.9879 34.2221 97.0197 34.4443 97.0936 34.654C97.1675 34.8637 97.282 35.0568 97.4307 35.2221C97.5793 35.3875 97.7591 35.5219 97.9598 35.6176C98.1604 35.7134 98.378 35.7686 98.6001 35.7801H98.7401C99.0027 35.7767 99.2615 35.7159 99.4982 35.6019C99.7349 35.4879 99.9437 35.3234 100.11 35.1201V36.3501C99.684 36.5819 99.205 36.6991 98.7201 36.6901C98.3717 36.7007 98.0247 36.6423 97.699 36.5181C97.3733 36.394 97.0755 36.2066 96.8226 35.9667C96.5697 35.7269 96.3668 35.4393 96.2257 35.1207C96.0845 34.802 96.0078 34.4585 96.0001 34.1101C95.9948 33.7608 96.0583 33.4138 96.1872 33.0891C96.316 32.7643 96.5075 32.4681 96.7508 32.2174C96.9941 31.9667 97.2844 31.7663 97.6051 31.6278C97.9259 31.4893 98.2707 31.4153 98.6201 31.4101H98.7401C99.2043 31.4048 99.6622 31.5184 100.07 31.7401L100.13 32.9001Z" fill="#201600"/>
<path d="M103.23 36.49H102.23V32.38H100.53V31.48H104.89V32.38H103.19L103.23 36.49Z" fill="#201600"/>
<path d="M109 36.49V33.41L105.68 36.72V31.48H106.68V34.56L110 31.25V36.49H109Z" fill="#201600"/>
</g>
<defs>
<clipPath id="clip0">
<rect width="121.87" height="40" fill="white"/>
</clipPath>
</defs>
</svg>
