<svg width="171" height="19" viewBox="0 0 171 19" fill="none" xmlns="http://www.w3.org/2000/svg">
<g clip-path="url(#clip0)">
<path d="M0 5.88354H0.899621V13.1345H0V5.88354Z" fill="black"/>
<path d="M5.34371 13.1165H4.44409V5.88354H6.02742L12.6666 12.2169V5.88354H13.5662V13.1345H12.3608L5.34371 6.63923V13.1165Z" fill="black"/>
<path d="M17.0928 13.1165V5.88354H24.0379V6.63923H17.9924V9.05021H23.732V9.8059H17.9924V13.1345H17.0928V13.1165Z" fill="black"/>
<path d="M27.5645 5.88354H28.4641V13.1345H27.5645V5.88354Z" fill="black"/>
<path d="M32.9082 13.1165H32.0085V5.88354H33.5919L40.2311 12.2169V5.88354H41.1307V13.1345H39.9252L32.9082 6.63923V13.1165Z" fill="black"/>
<path d="M44.6572 5.88354H45.5569V13.1345H44.6572V5.88354Z" fill="black"/>
<path d="M57.252 5.88354V6.63923H53.6355V13.1345H52.7359V6.63923H49.1194V5.88354H57.252Z" fill="black"/>
<path d="M60.7783 5.88354H61.9838L65.3124 9.42805L68.641 5.88354H69.8465L65.7622 10.1118V13.1345H64.8626V10.1118L60.7783 5.88354Z" fill="black"/>
<path d="M76.8457 13.1165V5.88354H77.7453V12.3788H83.4849V13.1345H76.8457V13.1165Z" fill="black"/>
<path d="M94.7661 11.4611H89.0985L88.1449 13.1164H87.1013L91.2396 5.86548H92.535L96.6553 13.1164H95.7197L94.7661 11.4611ZM94.3523 10.7054L91.9413 6.47722L89.5303 10.7054H94.3523Z" fill="black"/>
<path d="M105.076 9.05018C105.579 9.05018 105.993 9.06818 106.353 9.10416C106.713 9.14014 107.001 9.21211 107.253 9.28408C107.505 9.35605 107.685 9.46401 107.828 9.58996C107.972 9.7159 108.08 9.84185 108.17 10.0038C108.242 10.1657 108.296 10.3276 108.332 10.5256C108.35 10.7235 108.368 10.9214 108.368 11.1373C108.368 11.3532 108.35 11.5691 108.314 11.749C108.278 11.947 108.206 12.1089 108.098 12.2708C107.99 12.4328 107.864 12.5767 107.685 12.7026C107.505 12.8286 107.289 12.9365 107.019 13.0265C106.749 13.1165 106.425 13.1884 106.047 13.2244C105.669 13.2784 105.238 13.2964 104.734 13.2964H103.528C103.078 13.2964 102.683 13.2784 102.341 13.2424C101.999 13.2064 101.711 13.1525 101.459 13.0805C101.207 13.0085 101.009 12.9186 100.847 12.8106C100.685 12.7026 100.56 12.5767 100.47 12.4328C100.38 12.2888 100.308 12.1269 100.272 11.929C100.236 11.749 100.218 11.5331 100.218 11.3172H101.117C101.117 11.6051 101.153 11.821 101.243 12.0009C101.333 12.1629 101.459 12.2888 101.657 12.3608C101.837 12.4508 102.089 12.4867 102.395 12.5227C102.701 12.5407 103.078 12.5587 103.528 12.5587H104.734C105.256 12.5587 105.705 12.5407 106.047 12.4867C106.389 12.4328 106.677 12.3608 106.875 12.2528C107.091 12.1449 107.235 12.0009 107.307 11.821C107.397 11.6411 107.433 11.4252 107.433 11.1733C107.433 10.9214 107.397 10.7055 107.343 10.5256C107.289 10.3456 107.163 10.2197 107.001 10.1117C106.821 10.0038 106.587 9.93181 106.281 9.89583C105.975 9.85984 105.561 9.82386 105.058 9.82386H103.816C103.258 9.82386 102.791 9.80586 102.395 9.76988C101.999 9.7339 101.675 9.66193 101.405 9.58996C101.135 9.51799 100.919 9.41003 100.757 9.30208C100.596 9.19412 100.47 9.05018 100.398 8.90624C100.308 8.7623 100.254 8.60037 100.236 8.42045C100.218 8.24052 100.2 8.04261 100.2 7.8267C100.2 7.61079 100.218 7.39488 100.254 7.21495C100.29 7.03503 100.362 6.85511 100.47 6.71117C100.578 6.56723 100.721 6.42329 100.901 6.29734C101.081 6.17139 101.333 6.08143 101.621 5.99147C101.909 5.9195 102.269 5.84753 102.665 5.81155C103.078 5.77556 103.546 5.75757 104.104 5.75757H105.004C105.453 5.75757 105.849 5.77556 106.191 5.81155C106.533 5.84753 106.821 5.90151 107.073 5.97348C107.325 6.04545 107.523 6.13541 107.685 6.24336C107.846 6.35132 107.972 6.47727 108.062 6.6212C108.152 6.76514 108.224 6.92708 108.26 7.12499C108.296 7.30492 108.314 7.52083 108.314 7.73674H107.415C107.415 7.44886 107.379 7.23295 107.289 7.07102C107.199 6.90908 107.073 6.78314 106.875 6.71117C106.695 6.6392 106.443 6.58522 106.137 6.56723C105.831 6.54924 105.453 6.53124 105.004 6.53124H104.104C103.492 6.53124 103.007 6.54924 102.611 6.60321C102.215 6.6392 101.909 6.71117 101.693 6.81912C101.459 6.92708 101.315 7.05302 101.225 7.23295C101.135 7.39488 101.099 7.61079 101.099 7.86268C101.099 8.02461 101.117 8.16855 101.135 8.27651C101.153 8.40246 101.207 8.51041 101.261 8.60037C101.333 8.69033 101.423 8.7623 101.549 8.83427C101.675 8.88825 101.837 8.94223 102.035 8.99621C102.233 9.03219 102.485 9.06818 102.773 9.08617C103.061 9.10416 103.402 9.10416 103.816 9.10416H105.076V9.05018Z" fill="black"/>
<path d="M119.434 5.88354H120.333V13.1345H119.434V9.8059H112.795V13.1345H111.895V5.88354H112.795V9.05021H119.434V5.88354Z" fill="black"/>
<path d="M123.86 13.1165V5.88354H131.111V6.63923H124.777V9.05021H130.805V9.8059H124.759V12.3788H131.093V13.1345H123.86V13.1165Z" fill="black"/>
<path d="M139.585 9.08619C140.089 9.08619 140.503 9.10419 140.863 9.14017C141.222 9.17615 141.51 9.24812 141.762 9.32009C142.014 9.39206 142.194 9.50002 142.338 9.62597C142.482 9.75191 142.59 9.87786 142.68 10.0398C142.752 10.2017 142.806 10.3637 142.842 10.5616C142.86 10.7595 142.878 10.9574 142.878 11.1733C142.878 11.3892 142.86 11.6051 142.824 11.7851C142.788 11.983 142.716 12.1449 142.608 12.3068C142.5 12.4688 142.374 12.6127 142.194 12.7387C142.014 12.8646 141.798 12.9726 141.528 13.0625C141.258 13.1525 140.935 13.2245 140.557 13.2604C140.179 13.3144 139.747 13.3324 139.243 13.3324H138.038C137.588 13.3324 137.192 13.3144 136.85 13.2784C136.508 13.2424 136.221 13.1885 135.969 13.1165C135.717 13.0445 135.519 12.9546 135.357 12.8466C135.195 12.7387 135.069 12.6127 134.979 12.4688C134.889 12.3248 134.817 12.1629 134.781 11.965C134.745 11.7851 134.727 11.5691 134.727 11.3532H135.627C135.627 11.6411 135.663 11.857 135.753 12.037C135.843 12.1989 135.969 12.3248 136.167 12.3968C136.347 12.4868 136.598 12.5227 136.904 12.5587C137.21 12.5767 137.588 12.5947 138.038 12.5947H139.243C139.765 12.5947 140.215 12.5767 140.557 12.5227C140.899 12.4688 141.186 12.3968 141.384 12.2888C141.6 12.1809 141.744 12.037 141.816 11.857C141.906 11.6771 141.942 11.4612 141.942 11.2093C141.942 10.9574 141.906 10.7415 141.852 10.5616C141.798 10.3816 141.672 10.2557 141.51 10.1477C141.33 10.0398 141.097 9.96782 140.791 9.93184C140.485 9.89585 140.071 9.85987 139.567 9.85987H138.326C137.768 9.85987 137.3 9.84187 136.904 9.80589C136.508 9.7699 136.185 9.69794 135.915 9.62597C135.645 9.554 135.429 9.44604 135.267 9.33809C135.105 9.23013 134.979 9.08619 134.907 8.94225C134.817 8.79831 134.763 8.63638 134.745 8.45646C134.727 8.27653 134.709 8.07862 134.709 7.86271C134.709 7.6468 134.727 7.43089 134.763 7.25097C134.799 7.07104 134.871 6.89112 134.979 6.74718C135.087 6.60324 135.231 6.4593 135.411 6.33335C135.591 6.2074 135.843 6.11744 136.131 6.02748C136.418 5.95551 136.778 5.88354 137.174 5.84756C137.588 5.81157 138.056 5.79358 138.614 5.79358H139.513C139.963 5.79358 140.359 5.81157 140.701 5.84756C141.043 5.88354 141.33 5.93752 141.582 6.00949C141.834 6.08146 142.032 6.17142 142.194 6.27937C142.356 6.38733 142.482 6.51328 142.572 6.65722C142.662 6.80115 142.734 6.96309 142.77 7.161C142.806 7.34093 142.824 7.55684 142.824 7.77275H141.924C141.924 7.48487 141.888 7.26896 141.798 7.10703C141.708 6.94509 141.582 6.81915 141.384 6.74718C141.204 6.67521 140.953 6.62123 140.647 6.60324C140.341 6.58525 139.963 6.56725 139.513 6.56725H138.614C138.002 6.56725 137.516 6.58525 137.12 6.63922C136.724 6.67521 136.419 6.74718 136.203 6.85513C135.969 6.96309 135.825 7.08903 135.735 7.26896C135.645 7.43089 135.609 7.6468 135.609 7.89869C135.609 8.06062 135.627 8.20456 135.645 8.31252C135.663 8.43847 135.717 8.54642 135.771 8.63638C135.843 8.72634 135.933 8.79831 136.059 8.87028C136.185 8.92426 136.347 8.97824 136.544 9.03222C136.742 9.0682 136.994 9.10419 137.282 9.12218C137.57 9.14017 137.912 9.14017 138.326 9.14017H139.585V9.08619Z" fill="black"/>
<path d="M159.251 11.7852C158.729 12.235 158.046 12.4509 157.362 12.4509C156.678 12.4329 155.994 12.217 155.455 11.7672C154.915 11.3174 154.573 10.6516 154.483 9.93194C154.393 9.23023 154.519 8.47455 154.879 7.84482C155.059 7.52095 155.293 7.23307 155.563 7.01716C155.85 6.78326 156.174 6.60334 156.516 6.49538C156.858 6.36944 157.236 6.31546 157.596 6.33345C157.974 6.35144 158.333 6.44141 158.675 6.58535C159.017 6.72928 159.323 6.9272 159.611 7.14311C159.899 7.35902 160.169 7.59292 160.403 7.84482C160.906 8.33061 161.374 8.81641 161.842 9.3022L163.245 10.7776C163.713 11.2454 164.199 11.6772 164.757 11.8751C165.297 12.091 165.944 12.055 166.52 11.8031C167.096 11.5692 167.582 11.1014 167.833 10.5257C168.355 9.35618 167.887 7.77285 166.772 7.07114C166.214 6.71129 165.53 6.58535 164.883 6.67531C164.217 6.76527 163.587 7.08913 163.137 7.61091C163.551 7.07114 164.199 6.71129 164.865 6.58535C165.53 6.4594 166.268 6.56735 166.88 6.90921C168.121 7.61091 168.733 9.28421 168.211 10.6876C168.085 11.0295 167.887 11.3533 167.636 11.6232C167.384 11.8931 167.078 12.127 166.754 12.2889C166.43 12.4509 166.07 12.5768 165.692 12.6128C165.315 12.6488 164.937 12.6308 164.559 12.5049C164.199 12.3969 163.857 12.217 163.551 12.0011C163.245 11.7852 162.975 11.5513 162.724 11.3174C162.472 11.0655 162.238 10.8316 161.986 10.5797L161.266 9.84197C161.032 9.59008 160.798 9.35618 160.564 9.10429C160.331 8.85239 160.097 8.6005 159.863 8.3486C159.413 7.86281 158.945 7.39501 158.405 7.08913C158.136 6.94519 157.848 6.83724 157.542 6.78326C157.236 6.74728 156.93 6.76527 156.624 6.83724C156.318 6.90921 156.03 7.05315 155.778 7.23307C155.527 7.413 155.311 7.66489 155.131 7.93478C154.789 8.49254 154.627 9.17626 154.681 9.84197C154.717 10.1658 154.789 10.5077 154.933 10.7956C155.077 11.1014 155.275 11.3713 155.527 11.5872C156.03 12.0371 156.678 12.2889 157.344 12.3069C158.046 12.4149 158.729 12.217 159.251 11.7852Z" fill="black"/>
<path d="M161.428 0.251894C166.52 0.251894 170.676 4.40814 170.676 9.5C170.676 14.5919 166.52 18.7481 161.428 18.7481C156.336 18.7481 152.18 14.5919 152.18 9.5C152.18 4.40814 156.336 0.251894 161.428 0.251894ZM161.428 0C156.174 0 151.928 4.24621 151.928 9.5C151.928 14.7538 156.174 19 161.428 19C166.682 19 170.928 14.7538 170.928 9.5C170.928 4.24621 166.682 0 161.428 0Z" fill="black"/>
<path d="M161.428 1.51142C165.836 1.51142 169.417 5.09191 169.417 9.50005C169.417 13.9082 165.836 17.4887 161.428 17.4887C157.02 17.4887 153.44 13.9082 153.44 9.50005C153.44 5.09191 157.02 1.51142 161.428 1.51142ZM161.428 1.25952C156.876 1.25952 153.188 4.94797 153.188 9.50005C153.188 14.0521 156.876 17.7406 161.428 17.7406C165.98 17.7406 169.669 14.0521 169.669 9.50005C169.669 4.94797 165.98 1.25952 161.428 1.25952Z" fill="black"/>
</g>
<defs>
<clipPath id="clip0">
<rect width="170.928" height="19" fill="white"/>
</clipPath>
</defs>
</svg>
