<svg width="102" height="18" viewBox="0 0 102 18" fill="none" xmlns="http://www.w3.org/2000/svg">
<g clip-path="url(#clip0)">
<path d="M37.3655 9.49862C36.8852 8.67508 36.1755 8.00927 35.3229 7.58254C34.3756 7.11346 33.329 6.8799 32.2721 6.90168H28.3358V3.38576H36.7405V0.182373H24.8347V17.8178H32.2758C33.3319 17.8401 34.3781 17.6092 35.3267 17.1443C36.1747 16.7247 36.883 16.0682 37.3655 15.2543C37.8614 14.3823 38.1121 13.3924 38.091 12.3895C38.1157 11.3779 37.865 10.3787 37.3655 9.49862ZM34.2068 13.5503C34.0381 13.8782 33.7802 14.1516 33.4627 14.3391C33.1218 14.5287 32.7364 14.6237 32.3465 14.6144H28.3358V10.1051H32.3688C32.7593 10.0954 33.145 10.1918 33.485 10.3841C33.8034 10.5654 34.062 10.8356 34.2291 11.1617C34.4094 11.5335 34.4987 11.9429 34.4895 12.356C34.4958 12.7714 34.3986 13.1818 34.2068 13.5503Z" fill="#000105"/>
<path d="M43.2959 17.1927C42.301 16.679 41.4775 15.8864 40.926 14.912C40.3512 13.8682 40.0612 12.6915 40.0851 11.5002V6.49981C40.0612 5.30849 40.3512 4.13184 40.926 3.08807C41.4795 2.11257 42.3057 1.3199 43.3034 0.807377C44.4102 0.275059 45.6227 -0.00134277 46.8509 -0.00134277C48.0791 -0.00134277 49.2916 0.275059 50.3985 0.807377C51.3957 1.31906 52.221 2.11202 52.7722 3.08807C53.3486 4.13119 53.6387 5.30829 53.613 6.49981V11.5002C53.6387 12.6917 53.3486 13.8688 52.7722 14.912C52.221 15.888 51.3957 16.681 50.3985 17.1927C49.2916 17.725 48.0791 18.0014 46.8509 18.0014C45.6227 18.0014 44.4102 17.725 43.3034 17.1927H43.2959ZM48.5047 14.2944C48.9772 14.0523 49.3661 13.6738 49.6209 13.208C49.8887 12.7099 50.0232 12.1511 50.0115 11.5858V6.41796C50.0232 5.85143 49.8887 5.29145 49.6209 4.79208C49.3661 4.32628 48.9772 3.94778 48.5047 3.70568C47.9892 3.45359 47.4229 3.32256 46.8491 3.32256C46.2752 3.32256 45.7089 3.45359 45.1934 3.70568C44.7217 3.9489 44.3331 4.32711 44.0773 4.79208C43.8158 5.29313 43.6876 5.85305 43.7052 6.41796V11.5858C43.6878 12.1495 43.8159 12.7082 44.0773 13.208C44.3331 13.6729 44.7217 14.0511 45.1934 14.2944C45.7089 14.5464 46.2752 14.6775 46.8491 14.6775C47.4229 14.6775 47.9892 14.5464 48.5047 14.2944Z" fill="#000105"/>
<path d="M68.83 2.75328C68.344 1.93756 67.6337 1.27887 66.7837 0.855797C65.8354 0.390123 64.789 0.159165 63.7328 0.182378H56.2917V17.8178H59.7816V10.9757H63.7179C64.7734 10.9995 65.8193 10.7712 66.7688 10.3097C67.6197 9.89318 68.3308 9.23768 68.8151 8.42339C69.3134 7.5605 69.5644 6.57704 69.5406 5.58089C69.5638 4.59144 69.3182 3.61422 68.83 2.75328ZM65.6712 6.73054C65.504 7.05464 65.2453 7.32246 64.9271 7.50069C64.5866 7.69118 64.201 7.7863 63.811 7.77601H59.7816V3.38577H63.8072C64.1966 3.37738 64.5814 3.47102 64.9234 3.65737C65.2435 3.83651 65.5026 4.10732 65.6675 4.43496C65.8484 4.79341 65.9391 5.1906 65.9317 5.59205C65.9371 5.98866 65.8424 6.38023 65.6563 6.73054H65.6712Z" fill="#000105"/>
<path d="M75.9922 17.8586C75.4597 17.7216 74.9488 17.5113 74.4742 17.2336C73.4976 16.7446 72.6969 15.9646 72.1824 15.0012C71.6292 13.8978 71.3582 12.6745 71.3936 11.4407V6.60397C71.3544 5.36427 71.6242 4.1343 72.1787 3.02481C72.6947 2.06259 73.4951 1.28303 74.4705 0.792478C75.5973 0.241246 76.8403 -0.0305732 78.0943 2.29315e-06C79.1773 -0.0178124 80.2484 0.227309 81.2159 0.714347C82.1396 1.2009 82.9225 1.91717 83.4891 2.79413C84.1231 3.79669 84.5448 4.9186 84.7281 6.09053H81.108C80.9945 5.55912 80.7812 5.05409 80.4792 4.60232C80.215 4.20814 79.8604 3.88285 79.4449 3.65358C79.0279 3.43304 78.5623 3.32048 78.0906 3.32617C77.5112 3.30673 76.9364 3.43475 76.4201 3.69822C75.9622 3.95133 75.5952 4.34172 75.3709 4.81439C75.1124 5.36563 74.9851 5.96924 74.9988 6.57793V11.4146C74.9847 12.0222 75.1121 12.6246 75.3709 13.1745C75.5965 13.6463 75.9631 14.0363 76.4201 14.2906C76.9358 14.5558 77.5111 14.6839 78.0906 14.6627C78.5691 14.6699 79.0421 14.5587 79.4672 14.339C79.8832 14.1168 80.2374 13.7946 80.4978 13.4014C80.7946 12.9463 81.0017 12.4386 81.108 11.9057H84.7243C84.5322 13.0765 84.1057 14.1964 83.4705 15.1984C82.9068 16.0751 82.1263 16.7914 81.2047 17.2782C80.2402 17.766 79.1713 18.0113 78.0906 17.9926C77.3883 18.0312 76.6839 17.9862 75.9922 17.8586Z" fill="#000105"/>
<path d="M97.3666 17.8178H101.121L94.0516 0.182373H91.8193L84.7502 17.8178H88.508L89.546 14.9901H96.3249L97.3666 17.8178ZM90.718 11.7905L92.9317 5.77435L95.1455 11.7905H90.718Z" fill="#000105"/>
<path d="M0 11.4071L0 17.8176H6.4105V11.4071H0Z" fill="#000105"/>
<path d="M11.2584 0.100464H0V6.51096H11.2584V17.8177H17.7172V6.51096V0.100464H11.2584Z" fill="#000105"/>
</g>
<defs>
<clipPath id="clip0">
<rect width="101.121" height="18" fill="white"/>
</clipPath>
</defs>
</svg>
