<svg width="128" height="15" viewBox="0 0 128 15" fill="none" xmlns="http://www.w3.org/2000/svg">
<g clip-path="url(#clip0)">
<path d="M0 7.26629C0 4.2068 1.91218 0 7.98867 0C10.2833 0 11.983 0.509915 12.7054 0.509915C12.9178 0.509915 12.9603 0.594901 12.9603 0.72238C12.9603 0.934844 12.8329 1.86969 12.8329 2.9745C12.8329 3.90935 12.7904 4.16431 12.6204 4.16431C12.4929 4.16431 12.4504 4.03683 12.4504 3.78187C12.4504 1.52974 10.1983 0.72238 7.8187 0.72238C2.93201 0.72238 1.69972 3.73938 1.69972 7.09632C1.69972 10.7507 4.50425 14.1076 8.58357 14.1076C10.0283 14.1076 11.1331 13.9377 11.898 13.1728C12.2805 12.7479 12.5354 11.898 12.6204 11.5581C12.6629 11.3456 12.7054 11.2606 12.8329 11.2606C12.9178 11.2606 12.9603 11.3881 12.9603 11.5581C12.9603 11.6856 12.7479 13.3428 12.5354 14.0227C12.4079 14.4051 12.3654 14.4051 12.0255 14.5751C11.2606 14.8725 9.81586 15 8.58357 15C2.80453 15 0 11.6856 0 7.26629Z" fill="black"/>
<path d="M16.4447 8.75352C16.4447 6.75636 16.4447 6.41641 16.4022 5.99148C16.3597 5.56656 16.2747 5.35409 15.8498 5.26911C15.7648 5.22661 15.5098 5.22661 15.4248 5.22661C15.3823 5.22661 15.3398 5.18412 15.3398 5.14163C15.3398 5.05664 15.3823 5.05664 15.5523 5.05664C16.1047 5.05664 16.9121 5.09913 16.9971 5.09913C17.1245 5.09913 18.1019 5.05664 18.4843 5.05664C19.2917 5.05664 20.1415 5.14163 20.8214 5.60905C21.1614 5.82151 21.7138 6.45891 21.7138 7.35126C21.7138 8.2861 21.3313 9.22095 20.184 10.2833C21.2464 11.643 22.0962 12.7479 22.8186 13.5552C23.4985 14.2776 24.0509 14.4051 24.3908 14.4901C24.6458 14.5326 24.8158 14.5326 24.9008 14.5326C24.9432 14.5326 25.0282 14.5751 25.0282 14.6175C25.0282 14.7025 24.9432 14.7025 24.7308 14.7025H23.8384C23.116 14.7025 22.8186 14.66 22.4787 14.4476C21.9262 14.1501 21.5013 13.5127 20.7789 12.5779C20.1415 11.898 19.5466 11.0481 19.2917 10.7082C19.2492 10.6657 19.2067 10.6232 19.1217 10.6232L17.5495 10.5807C17.507 10.5807 17.4645 10.6232 17.4645 10.6657V10.9632C17.4645 12.1954 17.4645 13.1728 17.507 13.7252C17.5495 14.1076 17.6345 14.3626 18.0169 14.4051C18.1869 14.4476 18.4843 14.4476 18.6118 14.4476C18.6968 14.4476 18.6968 14.4901 18.6968 14.5326C18.6968 14.6175 18.6543 14.6175 18.4843 14.6175C17.8044 14.6175 16.9971 14.5751 16.9121 14.5751C16.9121 14.5751 16.1047 14.6175 15.7223 14.6175C15.5948 14.6175 15.5098 14.5751 15.5098 14.5326C15.5098 14.4901 15.5523 14.4476 15.5948 14.4476C15.7223 14.4476 15.8498 14.4051 15.9772 14.4051C16.2322 14.3626 16.3172 14.0651 16.3597 13.7252C16.4022 13.1728 16.4022 12.1954 16.4022 10.9632V8.75352H16.4447ZM17.4645 9.85834C17.4645 9.90083 17.507 9.98582 17.5495 10.0283C17.7194 10.1558 18.3143 10.2408 18.8668 10.2408C19.1642 10.2408 19.5466 10.1983 19.8016 9.98582C20.2265 9.68837 20.5665 9.00848 20.5665 8.03114C20.5665 6.41641 19.7166 5.48157 18.3568 5.48157C17.9744 5.48157 17.6345 5.52406 17.507 5.56656C17.4645 5.60905 17.422 5.65154 17.422 5.73653V9.85834H17.4645Z" fill="black"/>
<path d="M27.1105 9.22098C27.1105 9.30597 27.1105 9.34846 27.1955 9.34846C27.3654 9.34846 28.9377 9.34846 29.2351 9.30597C29.5326 9.26347 29.7026 9.26347 29.83 9.136C29.915 9.05101 29.9575 8.96602 30.0425 8.96602C30.085 8.96602 30.085 9.00852 30.085 9.05101C30.085 9.0935 29.915 9.94336 29.915 10.5808C29.915 10.7082 29.915 10.8357 29.83 10.8357C29.7875 10.8357 29.745 10.7932 29.745 10.7082C29.745 10.5808 29.745 10.4533 29.7026 10.2833C29.6601 10.1133 29.5326 9.90087 29.0227 9.85838C28.6827 9.81588 27.4079 9.77339 27.1955 9.77339C27.153 9.77339 27.1105 9.81588 27.1105 9.85838V13.1728C27.1105 14.0227 27.323 14.2351 28.5977 14.2351C28.9377 14.2351 29.4901 14.2351 29.83 14.1077C30.17 13.9802 30.2975 13.7252 30.4249 13.1728C30.4674 13.0453 30.4674 12.9604 30.5524 12.9604C30.6374 12.9604 30.6374 13.0453 30.6374 13.1728C30.6374 13.2578 30.5524 14.1502 30.4674 14.4051C30.3824 14.7451 30.255 14.7451 29.7875 14.7451C27.8754 14.7451 27.0255 14.6601 26.6431 14.6601C26.3031 14.6601 25.6657 14.7026 25.4108 14.7026C25.2833 14.7026 25.1983 14.6601 25.1983 14.6176C25.1983 14.5751 25.2408 14.5326 25.2833 14.5326C25.4108 14.5326 25.5382 14.5326 25.6657 14.4901C25.8782 14.4476 25.9207 14.3201 26.0057 13.9377C26.0482 13.5978 26.0907 12.5779 26.0907 11.0057V8.75356C26.0907 6.62892 26.0907 6.07651 26.0482 5.86404C26.0057 5.56659 25.9207 5.35413 25.4958 5.26914C25.4108 5.22665 25.1558 5.22665 25.0708 5.22665C25.0283 5.22665 24.9858 5.18416 24.9858 5.14166C24.9858 5.05668 25.0283 5.05668 25.1983 5.05668C25.7507 5.05668 26.5581 5.09917 26.6431 5.09917C28.0028 5.09917 29.3201 5.09917 29.5326 5.05668C29.745 5.05668 30.0425 5.01418 30.085 5.01418C30.17 4.97169 30.2125 4.9292 30.255 4.9292C30.2975 4.9292 30.3399 5.01418 30.3399 5.05668C30.3399 5.14166 30.2975 5.31164 30.255 5.65158C30.255 5.77906 30.2125 6.33146 30.17 6.50144C30.17 6.58642 30.1275 6.62892 30.085 6.62892C30.0425 6.62892 30 6.58642 30 6.50144C30 6.41645 29.9575 6.16149 29.8725 6.03401C29.7875 5.86404 29.4901 5.60909 28.7252 5.60909C28.6402 5.60909 27.4929 5.56659 27.238 5.56659C27.1955 5.56659 27.153 5.60909 27.153 5.69407V9.22098H27.1105Z" fill="black"/>
<path d="M33.0169 14.5326C32.8469 14.4476 32.8044 14.4051 32.8044 14.0652C32.8044 13.4278 32.8469 12.9179 32.8469 12.7054C32.8469 12.5779 32.8894 12.493 32.9319 12.493C33.0169 12.493 33.0169 12.5354 33.0169 12.6204C33.0169 12.7479 33.0169 12.9179 33.0594 13.0879C33.2719 14.0227 34.0792 14.4051 34.9291 14.4051C36.1614 14.4051 36.7563 13.5128 36.7563 12.7054C36.7563 11.8131 36.3739 11.3032 35.269 10.4108L34.7166 9.94338C33.3569 8.83856 33.0594 8.03119 33.0594 7.18134C33.0594 5.82156 34.0792 4.88672 35.694 4.88672C36.2039 4.88672 36.5438 4.92921 36.8838 5.0142C37.1387 5.05669 37.2237 5.09918 37.3087 5.09918C37.3937 5.09918 37.4362 5.14168 37.4362 5.18417C37.4362 5.22666 37.3937 5.65159 37.3937 6.54394C37.3937 6.75641 37.3512 6.84139 37.3087 6.84139C37.2237 6.84139 37.2237 6.7989 37.2237 6.67142C37.2237 6.50145 37.1387 6.16151 37.0537 6.03403C36.9688 5.90655 36.6288 5.35414 35.439 5.35414C34.5467 5.35414 33.8668 5.90655 33.8668 6.84139C33.8668 7.56377 34.2067 7.9887 35.439 8.96604L35.7789 9.26349C37.2662 10.4533 37.6486 11.2182 37.6486 12.238C37.6486 12.7479 37.4362 13.7252 36.5863 14.3626C36.0339 14.7451 35.354 14.915 34.6741 14.915C34.1217 14.8726 33.5268 14.7876 33.0169 14.5326Z" fill="black"/>
<path d="M39.6458 9.73091C39.6458 7.69125 40.9205 4.88672 44.9574 4.88672C46.4871 4.88672 47.6344 5.22666 48.1018 5.22666C48.2293 5.22666 48.2718 5.31165 48.2718 5.35414C48.2718 5.48162 48.1868 6.11901 48.1868 6.84139C48.1868 7.43629 48.1443 7.64876 48.0594 7.64876C47.9744 7.64876 47.9744 7.56377 47.9744 7.3938C47.9744 5.90655 46.4871 5.35414 44.8724 5.35414C41.6004 5.35414 40.7931 7.35131 40.7931 9.60343C40.7931 12.0255 42.6628 14.2777 45.3823 14.2777C46.3171 14.2777 47.082 14.1502 47.5919 13.6403C47.8469 13.3428 48.0169 12.7904 48.0594 12.5779C48.1018 12.4505 48.1018 12.3655 48.1868 12.3655C48.2293 12.3655 48.2718 12.4505 48.2718 12.5779C48.2718 12.6629 48.1018 13.7677 47.9744 14.1927C47.8894 14.4476 47.8894 14.4476 47.6344 14.5751C47.1245 14.7876 46.1472 14.8726 45.3398 14.8726C41.5154 14.8726 39.6458 12.6629 39.6458 9.73091Z" fill="black"/>
<path d="M54.9433 4.88672C57.8328 4.88672 59.9574 6.71391 59.9574 9.64593C59.9574 12.493 57.9603 14.8726 54.8583 14.8726C51.3738 14.8726 49.9291 12.153 49.9291 9.85839C49.8866 7.81873 51.4163 4.88672 54.9433 4.88672ZM55.1982 14.4051C56.3455 14.4051 58.7251 13.7252 58.7251 10.0284C58.7251 6.96887 56.8554 5.31165 54.8583 5.31165C52.7336 5.31165 51.1189 6.71391 51.1189 9.51845C51.1189 12.493 52.9036 14.4051 55.1982 14.4051Z" fill="black"/>
<path d="M65.779 6.50139C65.779 6.54389 65.779 6.58638 65.779 6.58638C65.779 6.62887 65.8215 6.67136 65.9065 6.67136C66.1614 6.67136 68.711 6.67136 69.1359 6.62887C69.6034 6.58638 69.8583 6.54389 70.0283 6.37391C70.1558 6.20394 70.2408 6.11896 70.3257 6.11896C70.3682 6.11896 70.4107 6.16145 70.4107 6.28893C70.4107 6.37391 70.1983 7.6487 70.1983 8.58355C70.1983 8.79601 70.1983 8.96598 70.0708 8.96598C69.9858 8.96598 69.9433 8.881 69.9433 8.79601C69.9433 8.58355 69.9433 8.41357 69.8583 8.15862C69.7733 7.90366 69.6034 7.56372 68.881 7.47873C68.3711 7.43624 66.2889 7.39374 65.949 7.39374C65.864 7.39374 65.8215 7.43624 65.8215 7.56371V9.22094C65.8215 11.0481 65.8215 12.9178 65.949 13.5552C66.034 14.1076 66.2464 14.3626 66.6713 14.4051C66.9263 14.4476 67.3512 14.4901 67.5212 14.4901C67.6487 14.4901 67.6912 14.5326 67.6912 14.6175C67.6912 14.7025 67.6062 14.7875 67.3937 14.7875C66.3314 14.7875 65.1416 14.745 65.0566 14.745C64.9716 14.745 63.7393 14.7875 63.1869 14.7875C62.9745 14.7875 62.8895 14.745 62.8895 14.6175C62.8895 14.575 62.932 14.4901 63.0595 14.4901C63.2294 14.4901 63.4419 14.4901 63.6544 14.4051C63.9518 14.3201 64.0368 14.1501 64.1643 13.5977C64.2493 13.0878 64.2917 11.5581 64.2917 9.22094V5.864C64.2917 2.63454 64.2917 1.86966 64.2493 1.52972C64.2068 1.0623 64.0793 0.764848 63.4419 0.637369C63.2719 0.594876 62.9745 0.594876 62.8045 0.594876C62.7195 0.594876 62.6345 0.552383 62.6345 0.467397C62.6345 0.339918 62.7195 0.297426 62.932 0.297426C63.7818 0.297426 65.0566 0.339918 65.1841 0.339918C65.5665 0.339918 69.5609 0.339918 69.8158 0.297426C70.1133 0.297426 70.5807 0.254933 70.6657 0.21244C70.7932 0.169947 70.8781 0.0849609 70.9206 0.0849609C71.0056 0.0849609 71.0481 0.21244 71.0481 0.297426C71.0481 0.424904 70.9631 0.679862 70.8782 1.18978C70.8782 1.40224 70.8357 2.20961 70.7932 2.46456C70.7932 2.54955 70.7507 2.67703 70.6232 2.67703C70.4957 2.67703 70.4957 2.59204 70.4957 2.46456C70.4957 2.29459 70.4532 1.99714 70.3257 1.74218C70.1983 1.48723 69.7308 1.10479 68.626 1.10479C68.4561 1.10479 67.5212 1.0623 66.0765 1.0623C65.949 1.0623 65.9065 1.10479 65.9065 1.27476V6.50139H65.779Z" fill="black"/>
<path d="M75.4249 11.0056C75.4249 12.2379 75.4249 13.2153 75.4674 13.7677C75.5099 14.1501 75.5949 14.4051 75.9773 14.4476C76.1473 14.4901 76.4447 14.4901 76.5722 14.4901C76.6572 14.4901 76.6572 14.5326 76.6572 14.5751C76.6572 14.66 76.6147 14.66 76.4447 14.66C75.7648 14.66 74.9575 14.6175 74.8725 14.6175C74.83 14.6175 74.0226 14.66 73.6402 14.66C73.5127 14.66 73.4277 14.6175 73.4277 14.5751C73.4277 14.5326 73.4702 14.4901 73.5127 14.4901C73.6402 14.4901 73.7677 14.4476 73.8952 14.4476C74.1501 14.4051 74.2351 14.1076 74.2776 13.7677C74.3201 13.2153 74.3201 12.2379 74.3201 11.0056V8.75352C74.3201 6.75636 74.3201 6.41641 74.2776 5.99148C74.2351 5.56656 74.1076 5.35409 73.8527 5.26911C73.7252 5.22661 73.5552 5.22661 73.4702 5.22661C73.4277 5.22661 73.3853 5.18412 73.3853 5.14163C73.3853 5.05664 73.4702 5.05664 73.5977 5.05664C74.0226 5.05664 74.83 5.09913 74.8725 5.09913C74.9575 5.09913 75.7224 5.05664 76.1048 5.05664C76.2323 5.05664 76.3173 5.09913 76.3173 5.14163C76.3173 5.18412 76.2748 5.22661 76.2323 5.22661C76.1473 5.22661 76.0623 5.22661 75.8923 5.26911C75.5524 5.35409 75.4674 5.56656 75.4249 5.99148C75.3824 6.41641 75.3824 6.75636 75.3824 8.75352V11.0056H75.4249Z" fill="black"/>
<path d="M80.3116 12.9604C80.3541 14.0227 80.4815 14.3201 80.8215 14.4476C81.0764 14.4901 81.3314 14.5326 81.4589 14.5326C81.5439 14.5326 81.5438 14.5751 81.5438 14.6176C81.5438 14.7026 81.4589 14.7026 81.3314 14.7026C80.609 14.7026 80.0991 14.6601 79.9716 14.6601C79.8441 14.6601 79.3342 14.7026 78.7393 14.7026C78.6118 14.7026 78.5269 14.7026 78.5269 14.6176C78.5269 14.5751 78.5693 14.5326 78.6118 14.5326C78.6968 14.5326 78.9518 14.5326 79.1218 14.4476C79.4617 14.3626 79.5042 13.9802 79.5042 12.8329V5.52411C79.5042 5.0142 79.5467 4.88672 79.6317 4.88672C79.7167 4.88672 79.9716 5.18417 80.0566 5.31165C80.2691 5.52411 82.1388 7.56377 84.0934 9.68842C85.3682 11.0482 86.728 12.5779 87.1529 13.0029L87.1104 6.50145C87.1104 5.65159 87.0254 5.39663 86.6005 5.26915C86.388 5.22666 86.0906 5.22666 85.9631 5.22666C85.8781 5.22666 85.8781 5.18417 85.8781 5.14168C85.8781 5.05669 85.9631 5.05669 86.1331 5.05669C86.6855 5.05669 87.3229 5.09918 87.4504 5.09918C87.5778 5.09918 88.0028 5.05669 88.5552 5.05669C88.6827 5.05669 88.7676 5.05669 88.7676 5.14168C88.7676 5.18417 88.7252 5.22666 88.6402 5.22666C88.5977 5.22666 88.4702 5.22666 88.3427 5.26915C87.9178 5.35414 87.8753 5.65159 87.8753 6.41646L87.8328 13.8952C87.8328 14.7451 87.7903 14.7876 87.7053 14.7876C87.6203 14.7876 87.4504 14.6601 86.7705 13.9802C86.643 13.8527 84.8158 11.983 83.456 10.5383C81.9688 8.96604 80.524 7.35131 80.1416 6.88389L80.3116 12.9604Z" fill="black"/>
<path d="M94.4192 5.35415C94.5892 5.82158 96.6288 11.0907 97.3937 13.0454C97.8611 14.1927 98.2436 14.3626 98.4985 14.4476C98.711 14.4901 98.881 14.5326 99.0084 14.5326C99.0934 14.5326 99.1359 14.5326 99.1359 14.6176C99.1359 14.7026 99.0084 14.7026 98.8809 14.7026C98.711 14.7026 97.7761 14.7026 96.8838 14.6601C96.6288 14.6601 96.5014 14.6601 96.5014 14.5751C96.5014 14.5326 96.5438 14.4901 96.5863 14.4901C96.6288 14.4901 96.6713 14.4051 96.6713 14.3202C96.6713 14.2777 96.6713 14.1927 96.6288 14.1502L95.439 11.0057C95.3965 10.9632 95.3965 10.9207 95.3115 10.9207H92.6345C92.5495 10.9207 92.5495 10.9632 92.507 11.0057L91.7421 13.2578C91.6147 13.5978 91.5722 13.8952 91.5722 14.1077C91.5722 14.3626 91.8271 14.4901 92.0396 14.4901H92.1671C92.2521 14.4901 92.2945 14.5326 92.2945 14.5751C92.2945 14.6601 92.2096 14.6601 92.0821 14.6601C91.7846 14.6601 91.2322 14.6176 91.1047 14.6176C90.9773 14.6176 90.2549 14.6601 89.66 14.6601C89.49 14.6601 89.405 14.6176 89.405 14.5751C89.405 14.5326 89.4475 14.4901 89.5325 14.4901C89.6175 14.4901 89.7875 14.4901 89.9149 14.4476C90.5099 14.3626 90.7648 13.8952 90.9773 13.2578L93.8668 5.35415C94.0368 4.92922 94.0793 4.84424 94.1642 4.84424C94.2492 4.84424 94.2917 4.97172 94.4192 5.35415ZM95.1841 10.4958C95.2691 10.4958 95.2691 10.4533 95.2266 10.4108L94.0368 6.96888C93.9943 6.8839 93.9518 6.84141 93.9518 6.84141C93.9093 6.84141 93.8668 6.8839 93.8668 6.96888L92.762 10.4108C92.7195 10.4958 92.762 10.4958 92.8045 10.4958H95.1841Z" fill="black"/>
<path d="M101.303 12.9604C101.346 14.0227 101.473 14.3201 101.813 14.4476C102.068 14.4901 102.323 14.5326 102.45 14.5326C102.535 14.5326 102.535 14.5751 102.535 14.6176C102.535 14.7026 102.45 14.7026 102.323 14.7026C101.6 14.7026 101.091 14.6601 100.963 14.6601C100.836 14.6601 100.326 14.7026 99.7308 14.7026C99.6033 14.7026 99.5183 14.7026 99.5183 14.6176C99.5183 14.5751 99.5608 14.5326 99.6033 14.5326C99.6883 14.5326 99.9432 14.5326 100.113 14.4476C100.453 14.3626 100.496 13.9802 100.496 12.8329V5.52411C100.496 5.0142 100.538 4.88672 100.623 4.88672C100.708 4.88672 100.963 5.18417 101.048 5.31165C101.261 5.52411 103.13 7.56377 105.085 9.68842C106.36 11.0482 107.719 12.5779 108.144 13.0029L108.017 6.54394C108.017 5.69408 107.932 5.43913 107.507 5.31165C107.295 5.26915 106.997 5.26915 106.87 5.26915C106.785 5.26915 106.785 5.22666 106.785 5.18417C106.785 5.09918 106.87 5.09918 107.04 5.09918C107.634 5.09918 108.229 5.14168 108.357 5.14168C108.484 5.14168 108.909 5.09918 109.419 5.09918C109.547 5.09918 109.632 5.09918 109.632 5.18417C109.632 5.22666 109.589 5.26915 109.504 5.26915C109.419 5.26915 109.334 5.26915 109.207 5.31165C108.782 5.39663 108.739 5.69408 108.739 6.45896L108.697 13.9377C108.697 14.7876 108.654 14.8301 108.569 14.8301C108.484 14.8301 108.314 14.7026 107.634 14.0227C107.507 13.8952 105.637 12.0255 104.32 10.5808C102.833 9.00853 101.388 7.3938 101.006 6.92638L101.303 12.9604Z" fill="black"/>
<path d="M111.586 9.73091C111.586 7.69125 112.861 4.88672 116.898 4.88672C118.428 4.88672 119.575 5.22666 120.043 5.22666C120.17 5.22666 120.212 5.31165 120.212 5.35414C120.212 5.48162 120.128 6.11901 120.128 6.84139C120.128 7.43629 120.085 7.64876 120 7.64876C119.915 7.64876 119.915 7.56377 119.915 7.3938C119.915 5.90655 118.428 5.35414 116.813 5.35414C113.541 5.35414 112.734 7.35131 112.734 9.60343C112.734 12.0255 114.603 14.2777 117.323 14.2777C118.258 14.2777 119.023 14.1502 119.533 13.6403C119.788 13.3428 119.958 12.7904 120 12.5779C120.043 12.4505 120.043 12.3655 120.128 12.3655C120.17 12.3655 120.212 12.4505 120.212 12.5779C120.212 12.6629 120.043 13.7677 119.915 14.1927C119.83 14.4476 119.83 14.4476 119.575 14.5751C119.065 14.7876 118.088 14.8726 117.28 14.8726C113.456 14.8726 111.586 12.6629 111.586 9.73091Z" fill="black"/>
<path d="M124.377 9.22098C124.377 9.30597 124.377 9.34846 124.462 9.34846C124.632 9.34846 126.204 9.34846 126.502 9.30597C126.799 9.26347 126.969 9.26347 127.096 9.136C127.181 9.05101 127.224 8.96602 127.309 8.96602C127.351 8.96602 127.351 9.00852 127.351 9.05101C127.351 9.0935 127.181 9.94336 127.181 10.5808C127.181 10.7082 127.181 10.8357 127.096 10.8357C127.054 10.8357 127.011 10.7932 127.011 10.7082C127.011 10.5808 127.011 10.4533 126.969 10.2833C126.926 10.1133 126.799 9.90087 126.289 9.85838C125.949 9.81588 124.674 9.77339 124.462 9.77339C124.419 9.77339 124.377 9.81588 124.377 9.85838V13.1728C124.377 14.0227 124.589 14.2351 125.864 14.2351C126.204 14.2351 126.756 14.2351 127.096 14.1077C127.436 13.9802 127.564 13.7252 127.649 13.1728C127.691 13.0453 127.691 12.9604 127.776 12.9604C127.861 12.9604 127.861 13.0453 127.861 13.1728C127.861 13.2578 127.776 14.1502 127.691 14.4051C127.606 14.7451 127.479 14.7451 127.011 14.7451C125.099 14.7451 124.249 14.6601 123.867 14.6601C123.527 14.6601 122.89 14.7026 122.635 14.7026C122.507 14.7026 122.422 14.6601 122.422 14.6176C122.422 14.5751 122.465 14.5326 122.507 14.5326C122.635 14.5326 122.762 14.5326 122.89 14.4901C123.102 14.4476 123.145 14.3201 123.23 13.9377C123.315 13.5978 123.315 12.5779 123.315 11.0057V8.75356C123.315 6.62892 123.315 6.07651 123.272 5.86404C123.23 5.56659 123.145 5.35413 122.72 5.26914C122.635 5.22665 122.38 5.22665 122.295 5.22665C122.252 5.22665 122.21 5.18416 122.21 5.14166C122.21 5.05668 122.252 5.05668 122.422 5.05668C122.975 5.05668 123.782 5.09917 123.867 5.09917C125.227 5.09917 126.544 5.09917 126.756 5.05668C126.969 5.05668 127.266 5.01418 127.309 5.01418C127.394 4.97169 127.436 4.9292 127.479 4.9292C127.521 4.9292 127.564 5.01418 127.564 5.05668C127.564 5.14166 127.479 5.31164 127.479 5.65158C127.479 5.77906 127.436 6.33146 127.394 6.50144C127.394 6.58642 127.351 6.62892 127.309 6.62892C127.266 6.62892 127.224 6.58642 127.224 6.50144C127.224 6.41645 127.181 6.16149 127.096 6.03401C127.011 5.86404 126.714 5.60909 125.949 5.60909C125.864 5.60909 124.717 5.56659 124.462 5.56659C124.419 5.56659 124.377 5.60909 124.377 5.69407V9.22098Z" fill="black"/>
</g>
<defs>
<clipPath id="clip0">
<rect width="127.819" height="15" fill="white"/>
</clipPath>
</defs>
</svg>
