<svg width="83" height="18" viewBox="0 0 83 18" fill="none" xmlns="http://www.w3.org/2000/svg">
<g clip-path="url(#clip0)">
<path d="M8.08421 7.17913V7.30545C9.48772 7.51597 10.4234 7.95808 10.8912 8.63176C11.3591 9.30545 11.9953 11.1066 12.8 14.0353C12.8982 14.3862 12.9754 14.6528 13.0316 14.8353H8.27368C7.52982 12.0704 7.06199 10.4329 6.87018 9.92299C6.78107 9.67079 6.63547 9.44229 6.44451 9.25499C6.25356 9.06768 6.0223 8.92652 5.76842 8.84229C5.4874 8.7803 5.19999 8.75203 4.91228 8.75808H4.4C4.50509 9.19258 4.56158 9.63742 4.56842 10.0844V14.8212H0V0.294922H4.56842V3.95808C4.57247 4.58181 4.50179 5.20379 4.35789 5.81071H4.82105C5.163 5.85176 5.50963 5.79667 5.82201 5.65164C6.13439 5.5066 6.40016 5.27737 6.58947 4.98966C7.14381 3.67494 7.56008 2.30619 7.83158 0.905448C7.90175 0.638782 7.95088 0.435273 7.97895 0.294922H12.6316C11.8035 3.01773 11.3614 4.46334 11.3053 4.63176C11.0892 5.43437 10.6067 6.13965 9.93684 6.63176C9.364 6.94087 8.73306 7.12728 8.08421 7.17913Z" fill="#201600"/>
<path d="M20.3509 0.000102859C21.719 -0.061425 23.0852 0.158307 24.365 0.645717C25.3391 1.09639 26.0957 1.91358 26.4702 2.9194C26.9918 4.40822 27.2298 5.98154 27.172 7.558C27.2307 9.1368 26.9926 10.7126 26.4702 12.2036C26.0964 13.2098 25.3395 14.0273 24.365 14.4773C23.0852 14.9647 21.719 15.1844 20.3509 15.1229C18.9898 15.1835 17.6307 14.9638 16.358 14.4773C15.3834 14.0273 14.6266 13.2098 14.2527 12.2036C13.7303 10.7126 13.4923 9.1368 13.5509 7.558C13.4932 5.98154 13.7312 4.40822 14.2527 2.9194C14.6272 1.91358 15.3839 1.09639 16.358 0.645717C17.6307 0.159224 18.9898 -0.0605267 20.3509 0.000102859ZM21.9229 4.21063C21.7754 3.93015 21.546 3.7013 21.2651 3.5546C20.9843 3.4079 20.6654 3.35034 20.3509 3.38958C20.0388 3.35332 19.7229 3.41233 19.4449 3.55886C19.1668 3.7054 18.9396 3.9326 18.7931 4.21063C18.4596 5.28841 18.3264 6.41818 18.4001 7.54396C18.3262 8.66975 18.4594 9.79955 18.7931 10.8773C18.9355 11.1605 19.1609 11.3936 19.4393 11.5453C19.7177 11.697 20.0357 11.7602 20.3509 11.7264C20.6669 11.7644 20.9869 11.7048 21.2679 11.5555C21.5489 11.4062 21.7775 11.1744 21.9229 10.8913C22.254 9.81311 22.3848 8.68336 22.3088 7.558C22.3887 6.42842 22.2602 5.29378 21.9299 4.21063H21.9229Z" fill="#201600"/>
<path d="M28.9895 14.8211V0.294755C30.4211 0.154404 32.4702 0.0842285 35.1369 0.0842285C37.4761 0.0842285 39.0597 0.428088 39.8877 1.11581C40.7158 1.80353 41.1392 3.10879 41.1579 5.0316C41.1579 6.92633 40.7649 8.21756 39.979 8.90528C39.193 9.593 37.7895 9.93686 35.7684 9.93686C35.03 9.94267 34.2919 9.90518 33.5579 9.82458V14.8351L28.9895 14.8211ZM33.5579 6.71581H35.0316C35.4737 6.76932 35.9192 6.64849 36.2737 6.37897C36.532 5.98005 36.6437 5.50375 36.5895 5.0316C36.6523 4.54119 36.5405 4.04433 36.2737 3.62809C36.1003 3.49013 35.9012 3.38805 35.6879 3.32781C35.4747 3.26757 35.2516 3.25037 35.0316 3.27721H33.5579V6.71581Z" fill="#201600"/>
<path d="M56.1404 11.8316V18H52.8632L52.5474 14.8211H43.7895L43.4737 18H40.1685V11.8316H41.7685C42.6727 9.13512 43.2568 6.34168 43.5088 3.50881C43.5762 2.62253 43.9775 1.79487 44.6316 1.19302C45.3163 0.576221 46.2162 0.25357 47.1369 0.294772H54.1544V11.8316H56.1404ZM49.572 11.8316V3.28425H48.7369C48.1474 3.28425 47.8246 3.62109 47.7685 4.29477C47.6218 5.81579 47.3875 7.32707 47.0667 8.82109C46.8378 9.86038 46.4917 10.8703 46.0351 11.8316H49.572Z" fill="#201600"/>
<path d="M65.6001 11.6842H61.6212L60.8843 14.8211H56.2317L60.0001 1.48772C60.0884 1.14483 60.2884 0.841117 60.5685 0.624566C60.8442 0.407255 61.186 0.290861 61.537 0.294742H65.6843C66.0401 0.28762 66.3874 0.404193 66.6668 0.624566C66.9444 0.83751 67.1441 1.13591 67.2352 1.47369L71.0036 14.807H66.337L65.6001 11.6842ZM64.8633 8.48421L64.1615 5.36843C64.0258 4.70878 63.9253 4.15439 63.8598 3.70527H63.2913C63.2071 4.36492 63.1229 4.9193 63.0387 5.36843L62.337 8.48421H64.8633Z" fill="#201600"/>
<path d="M71.9367 14.8212V3.50896C71.9186 3.06603 71.9936 2.62423 72.1568 2.21206C72.32 1.79989 72.5677 1.4265 72.8841 1.11597C73.2107 0.810539 73.5948 0.573187 74.0141 0.417763C74.4334 0.262339 74.8794 0.191954 75.3262 0.210711C77.6692 0.162279 80.013 0.260718 82.3437 0.505448L82.1332 3.70545H77.3543C77.1203 3.69276 76.8901 3.76783 76.7086 3.91597C76.6298 3.98339 76.5669 4.06744 76.5244 4.16209C76.4819 4.25674 76.461 4.35962 76.463 4.46334V14.8212H71.9367Z" fill="#201600"/>
</g>
<defs>
<clipPath id="clip0">
<rect width="82.379" height="18" fill="white"/>
</clipPath>
</defs>
</svg>
