<svg width="92" height="60" viewBox="0 0 92 60" fill="none" xmlns="http://www.w3.org/2000/svg">
<g clip-path="url(#clip0)">
<path d="M30.4587 56.4441C30.8509 56.4627 31.2587 56.4747 31.6614 56.4638L34.1707 56.2002C35.6001 55.942 37.0864 55.4926 38.6262 54.821C39.4644 55.9904 40.2214 56.8885 41.153 57.7851L42.7238 59.1708C42.9796 59.3798 43.2375 59.5858 43.4975 59.789C46.2171 54.5425 47.3826 50.0171 48.2814 44.0299C44.3204 44.8978 40.1846 44.4685 36.4876 42.8057C35.3392 47.6536 33.358 52.3885 30.4587 56.4441Z" fill="white"/>
<path d="M62.0198 55.5632C61.6653 55.5814 61.3106 55.5924 60.9556 55.5963L58.5994 55.5257C56.5387 55.3832 54.442 55.036 52.3727 54.5327C51.4899 55.769 50.4166 56.8674 49.3265 57.8263L47.7269 59.14C47.4504 59.3528 47.171 59.5626 46.8887 59.7694C46.3435 58.6271 45.7351 57.5159 45.0664 56.4409C46.7112 52.5031 47.5793 48.7147 48.282 44.0318C50.477 43.5495 52.5665 42.6751 54.4497 41.4509C56.6709 46.3102 59.1994 51.0238 62.0198 55.5632Z" fill="white"/>
<path d="M48.0407 2.19061C46.0671 1.91718 44.3057 0.637292 42.9955 0.250052C41.2825 -0.256087 40.2395 1.02999 40.4334 2.18916C38.4711 2.53677 36.4028 1.86191 35.0372 1.89828C33.2514 1.94482 32.657 3.48869 33.2004 4.53078C31.4415 5.46852 29.2657 5.46488 27.9755 5.91939C26.2914 6.51425 26.2043 8.16574 27.0425 8.98967C25.6612 10.423 23.5893 11.0899 22.505 11.9203C21.0877 13.0053 21.5163 14.6027 22.5699 15.1273C21.6989 16.9166 19.9349 18.1903 19.1608 19.3143C18.1487 20.7829 19.0515 22.17 20.2177 22.3442C19.9418 24.3146 18.66 26.0704 18.2701 27.3772C17.7624 29.0862 19.0504 30.1272 20.2122 29.9337C20.5618 31.8925 19.8842 33.957 19.9207 35.3202C19.9673 37.1018 21.5148 37.6945 22.5593 37.1527C23.4985 38.9075 23.4949 41.0797 23.9508 42.3654C24.5471 44.0456 26.2024 44.1325 27.0283 43.2948C28.465 44.6743 29.1341 46.7414 29.9658 47.8231C31.0534 49.2372 32.6544 48.8096 33.1807 47.758C34.9745 48.627 36.2512 50.3869 37.3774 51.1592C38.8494 52.1689 40.2402 51.2683 40.4144 50.1047C42.3894 50.3782 44.1486 51.6584 45.4592 52.0457C47.1722 52.5522 48.2156 51.2672 48.0217 50.108C49.985 49.7593 52.0544 50.4352 53.4208 50.3989C55.2066 50.3523 55.801 48.8085 55.2576 47.766C57.0165 46.829 59.1937 46.8326 60.4825 46.3778C62.1666 45.7829 62.2537 44.1314 61.414 43.3071C62.7967 41.8738 64.8687 41.2058 65.9529 40.3761C67.3703 39.2911 66.9417 37.6934 65.8877 37.1691C66.7588 35.3794 68.5227 34.1057 69.2972 32.9818C70.3093 31.5129 69.4065 30.1257 68.2403 29.9519C68.5143 27.9815 69.7976 26.226 70.1857 24.9185C70.6934 23.2096 69.4051 22.1686 68.2435 22.362C67.8937 20.4033 68.5716 18.3387 68.5351 16.9752C68.4885 15.1935 66.941 14.6005 65.8961 15.143C64.9569 13.3882 64.9602 11.216 64.5042 9.93032C63.9076 8.2501 62.2526 8.1632 61.4264 9.00131C59.9893 7.62324 59.3209 5.55578 58.4892 4.47224C57.4017 3.05818 55.8003 3.48614 55.2744 4.53732C53.4805 3.66831 52.2038 1.90846 51.0773 1.13616C49.6053 0.126426 48.2152 1.02708 48.0407 2.19061Z" fill="white"/>
<path d="M41.288 7.62693C43.2364 7.32041 45.2209 7.32041 47.1693 7.62693L48.0403 2.19066C46.065 1.91723 44.3057 0.637703 42.9951 0.2501C41.2822 -0.256039 40.2391 1.02931 40.4327 2.18812L41.2877 7.62693H41.288Z" fill="url(#paint0_linear)"/>
<path d="M47.1694 7.62697C49.1173 7.93612 51.0045 8.54798 52.7624 9.44027L55.2746 4.53851C53.4807 3.66949 52.204 1.91 51.0778 1.13771C49.6055 0.127975 48.2154 1.02863 48.0408 2.19216L47.1694 7.62843V7.62697Z" fill="url(#paint1_linear)"/>
<path d="M52.7623 9.44026C54.5192 10.3348 56.1246 11.4985 57.5203 12.8891L61.4276 9.00212C59.9906 7.6226 59.3214 5.5555 58.4894 4.47378C57.4019 3.05971 55.8008 3.48768 55.2749 4.53886L52.762 9.44026H52.7623Z" fill="url(#paint2_linear)"/>
<path d="M57.52 12.8891C58.9139 14.2809 60.0804 15.8823 60.9769 17.6348L65.8971 15.1427C64.9579 13.3879 64.9615 11.2157 64.5056 9.93004C63.909 8.24982 62.2539 8.16328 61.4281 9.00102L57.5204 12.888L57.52 12.8891Z" fill="url(#paint3_linear)"/>
<path d="M60.9768 17.6348C61.872 19.389 62.4858 21.2724 62.7958 23.2165L68.2455 22.3616C67.8957 20.4033 68.5736 18.3383 68.5371 16.9752C68.4905 15.1935 66.943 14.6008 65.8981 15.143L60.9768 17.6348Z" fill="url(#paint4_linear)"/>
<path d="M62.7937 23.2165C63.1013 25.1602 63.1013 27.14 62.7937 29.0837L68.2427 29.9531C68.5168 27.9827 69.7996 26.2276 70.1878 24.92C70.6955 23.2111 69.4068 22.1704 68.2456 22.3635L62.7941 23.2162L62.7937 23.2165Z" fill="url(#paint5_linear)"/>
<path d="M62.7936 29.0833C62.4838 31.0265 61.8705 32.9094 60.9761 34.6631L65.8889 37.1695C66.7596 35.3798 68.5232 34.1065 69.2981 32.9826C70.3102 31.5136 69.4074 30.1268 68.2411 29.9526L62.7936 29.0833Z" fill="url(#paint6_linear)"/>
<path d="M60.9762 34.6637C60.0797 36.4163 58.9132 38.0179 57.5193 39.4098L61.4153 43.3084C62.7981 41.8751 64.87 41.2071 65.9543 40.3774C67.3716 39.2924 66.9427 37.6951 65.889 37.1704L60.9765 34.6633L60.9762 34.6637Z" fill="url(#paint7_linear)"/>
<path d="M57.5192 39.4098C56.1235 40.8 54.518 41.9635 52.7612 42.8579L55.2588 47.7665C57.0177 46.8295 59.195 46.8332 60.4833 46.3783C62.1675 45.7834 62.2542 44.1319 61.4145 43.308L57.5188 39.4094L57.5192 39.4098Z" fill="url(#paint8_linear)"/>
<path d="M52.7609 42.8582C51.003 43.7503 49.1158 44.362 47.168 44.6711L48.023 50.1096C49.9863 49.7609 52.0557 50.4368 53.4217 50.4005C55.2075 50.3539 55.8016 48.81 55.2585 47.7676L52.7613 42.8589L52.7609 42.8582Z" fill="#575757"/>
<path d="M35.6945 42.857C33.9378 41.9625 32.3326 40.7988 30.9372 39.4082L27.0295 43.2951C28.4662 44.6747 29.1354 46.7418 29.9671 47.8235C31.0546 49.2376 32.6553 48.8096 33.1816 47.7584L35.6945 42.8574V42.857Z" fill="url(#paint9_linear)"/>
<path d="M41.2728 44.6143C39.3251 44.305 37.438 43.6928 35.6803 42.8003L33.1677 47.7013C34.9616 48.5704 36.2379 50.3299 37.3641 51.1025C38.8361 52.1122 40.2261 51.2116 40.4011 50.0481L41.2728 44.6143Z" fill="#575757"/>
<path d="M30.9368 39.4078C29.5429 38.0155 28.3765 36.4137 27.48 34.6609L22.5598 37.1527C23.499 38.9071 23.495 41.0796 23.9509 42.365C24.5472 44.0452 26.2026 44.1317 27.0281 43.294L30.9368 39.4078Z" fill="url(#paint10_linear)"/>
<path d="M27.48 34.6607C26.5858 32.9069 25.9728 31.0241 25.6632 29.0808L20.2132 29.9342C20.5627 31.8929 19.8851 33.9571 19.9216 35.3203C19.9682 37.102 21.5157 37.6943 22.5603 37.1529L27.4804 34.6614L27.48 34.6607Z" fill="url(#paint11_linear)"/>
<path d="M25.6644 29.081C25.357 27.1373 25.357 25.1575 25.6644 23.2139L20.2165 22.3445C19.9424 24.3149 18.6603 26.0703 18.271 27.3771C17.7634 29.0861 19.0513 30.1267 20.2132 29.9333L25.6644 29.081Z" fill="#575757"/>
<path d="M25.6647 23.214C25.9747 21.271 26.5881 19.3884 27.4826 17.6349L22.5701 15.126C21.699 16.9153 19.9354 18.189 19.1609 19.3125C18.1489 20.7811 19.0516 22.1679 20.2179 22.3425L25.6661 23.2122L25.6647 23.214Z" fill="url(#paint12_linear)"/>
<path d="M27.4824 17.6347C28.3791 15.8823 29.5456 14.281 30.9393 12.8889L27.0425 8.98999C25.6613 10.4233 23.5893 11.0898 22.5051 11.9207C21.0877 13.0056 21.5163 14.6026 22.5703 15.1273L27.4828 17.6362L27.4824 17.6347Z" fill="url(#paint13_linear)"/>
<path d="M30.9397 12.8884C32.3352 11.4979 33.9407 10.3345 35.6976 9.44029L33.2018 4.53198C31.4415 5.46899 29.2657 5.46499 27.9759 5.9195C26.2918 6.51436 26.205 8.16549 27.0447 8.98942L30.9397 12.8884Z" fill="url(#paint14_linear)"/>
<path d="M35.6977 9.44067C37.4556 8.54867 39.3429 7.93717 41.2907 7.62846L40.436 2.19001C38.4731 2.53871 36.4037 1.86277 35.0377 1.89913C33.2519 1.94567 32.6578 3.48954 33.2008 4.53163L35.6977 9.4403V9.44067Z" fill="url(#paint15_linear)"/>
<path d="M44.2287 44.9231C54.6214 44.9231 63.0463 36.5178 63.0463 26.1494C63.0463 15.781 54.6214 7.37573 44.2287 7.37573C33.8361 7.37573 25.4111 15.781 25.4111 26.1494C25.4111 36.5178 33.8361 44.9231 44.2287 44.9231Z" fill="#575757"/>
<path d="M30.4587 56.4441C30.8509 56.4627 31.2587 56.4747 31.6614 56.4638L34.1707 56.2002C35.6001 55.942 37.0864 55.4926 38.6262 54.821C39.4644 55.9904 40.2214 56.8885 41.153 57.7851L42.7238 59.1708C42.9796 59.3798 43.2375 59.5858 43.4975 59.789C46.2171 54.5425 47.3826 50.0171 48.2814 44.0299C44.3204 44.8978 40.1846 44.4685 36.4876 42.8057C35.3392 47.6536 33.358 52.3885 30.4587 56.4441Z" fill="#575757"/>
<path d="M62.0198 55.5632C61.6653 55.5814 61.3106 55.5924 60.9556 55.5963L58.5994 55.5257C56.5387 55.3832 54.442 55.036 52.3727 54.5327C51.4899 55.769 50.4166 56.8674 49.3265 57.8263L47.7269 59.14C47.4504 59.3528 47.171 59.5626 46.8887 59.7694C46.3435 58.6271 45.7351 57.5159 45.0664 56.4409C46.7112 52.5031 47.5793 48.7147 48.282 44.0318C50.477 43.5495 52.5665 42.6751 54.4497 41.4509C56.6709 46.3102 59.1994 51.0238 62.0198 55.5632Z" fill="#575757"/>
<path d="M34.1747 56.2021C33.3443 56.354 32.5037 56.4436 31.6599 56.47C34.4232 52.4958 36.3297 47.9126 37.4446 43.2083C38.0723 43.4515 38.7127 43.6606 39.3631 43.8347C38.3316 48.1882 36.6154 52.4424 34.1761 56.2024L34.1747 56.2021ZM41.1642 57.7812C41.6655 58.2643 42.1854 58.7268 42.7241 59.1687C45.284 54.1815 46.4444 49.8241 47.3213 44.2169C46.6264 44.3316 45.9255 44.4074 45.2221 44.4438C44.4115 49.3775 43.3167 53.371 41.1642 57.7812Z" fill="url(#paint16_linear)"/>
<path d="M51.8428 42.861C52.4471 42.5935 53.0369 42.2945 53.6096 41.9651C55.7016 46.514 58.1486 51.0598 60.9505 55.6025C60.1728 55.6108 59.391 55.5818 58.5987 55.5272C56.1068 51.437 53.851 47.2082 51.8424 42.8614L51.8428 42.861ZM47.7288 59.1338C48.2521 58.7295 48.7883 58.3015 49.3244 57.8299C48.477 56.0952 47.4897 54.4321 46.3723 52.8569C46.1237 53.6583 45.8506 54.4513 45.553 55.236C46.3431 56.4431 47.0571 57.7361 47.7288 59.1338Z" fill="url(#paint17_linear)"/>
<path d="M60.4268 20.5593C58.1067 13.8595 51.7291 9.04721 44.2249 9.04721C34.7603 9.04721 27.0882 16.7018 27.0882 26.1439C27.0882 35.5861 34.7607 43.241 44.2249 43.241C52.0552 43.241 58.6574 38.0011 60.706 30.8446L62.3252 31.7664C59.9257 39.4632 52.7291 45.0518 44.2249 45.0518C33.7581 45.0518 25.2732 36.586 25.2732 26.1443C25.2732 15.7026 33.7585 7.23682 44.2249 7.23682C52.564 7.23682 59.6454 12.6102 62.1798 20.0761L60.4268 20.5593Z" fill="url(#paint18_linear)"/>
<path d="M88.79 17.7043H88.431V15.5259H89.2594C89.7868 15.5259 90.0561 15.7099 90.0561 16.152C90.0561 16.5469 89.8134 16.7098 89.4861 16.7469L90.0981 17.7046H89.6928L89.1286 16.7731H88.7911V17.7046L88.79 17.7043ZM89.1909 16.468C89.4599 16.468 89.6972 16.4418 89.6972 16.1259C89.6972 15.8626 89.4388 15.831 89.2234 15.831H88.7908V16.4676L89.1909 16.468ZM89.1804 18.5467C88.0462 18.5467 87.2393 17.6995 87.2393 16.5782C87.2393 15.3939 88.1362 14.6096 89.1804 14.6096C90.2143 14.6096 91.112 15.3936 91.112 16.5782C91.112 17.7628 90.2143 18.5464 89.18 18.5464L89.1804 18.5467ZM89.1804 14.9521C88.3257 14.9521 87.6613 15.6204 87.6613 16.5785C87.6613 17.4734 88.2415 18.2049 89.1804 18.2049C90.0244 18.2049 90.6892 17.5417 90.6892 16.5785C90.6892 15.6154 90.0244 14.9518 89.18 14.9518L89.1804 14.9521Z" fill="black"/>
<path d="M86.4854 18.8911C85.2743 17.605 83.662 16.9251 81.8233 16.9251C80.1067 16.9251 78.5345 17.5883 77.2767 18.8431C76.6593 19.459 76.1312 20.2168 75.7128 21.0585C75.3582 20.1975 74.8837 19.4423 74.2955 18.8176C73.0844 17.5316 71.4724 16.8516 69.6333 16.8516C67.9168 16.8516 66.3449 17.5148 65.0871 18.7696C64.9028 18.9543 64.7283 19.1485 64.5645 19.3514C64.3862 18.7819 64.0751 18.2626 63.6566 17.8363C63.0425 17.2236 62.24 16.8865 61.397 16.8865C60.9705 16.8844 60.547 16.9583 60.1466 17.1047H55.4739C54.9184 17.1047 54.6567 16.9643 53.8921 16.9643C53.0069 16.9643 52.2685 17.1494 51.7783 17.3727C51.7203 17.3992 51.6518 17.4301 51.5928 17.4559C51.4186 17.4283 51.2002 17.3574 50.9367 17.2712C50.3004 17.0622 49.4297 16.7756 48.1793 16.7756C46.361 16.7756 44.6918 17.4276 43.4647 18.6115V16.9243H41.7557C42.6126 16.2917 43.1771 15.1474 43.1771 13.8093C43.1771 12.6971 42.7839 11.6663 42.098 10.9823C41.5717 10.4573 40.8974 10.1682 40.1995 10.1682C39.5016 10.1682 38.8273 10.4591 38.3011 10.9823C37.6152 11.6666 37.2219 12.6967 37.2219 13.8093C37.2219 14.922 37.6152 15.9521 38.3011 16.6364C38.4068 16.7408 38.5204 16.837 38.6407 16.9243H37.0586V9.62061H29.6157V13.7315H30.1453C30.3342 13.7315 30.5155 13.8063 30.6492 13.9396C30.7829 14.0728 30.8582 14.2535 30.8585 14.442V16.8015C30.4402 16.7121 30.0136 16.6675 29.5858 16.6684C28.0974 16.6684 26.7489 17.2291 25.6861 18.2904C25.1598 18.8224 24.7233 19.436 24.3938 20.1074C24.096 19.5181 23.7167 18.9735 23.2669 18.4897C22.0558 17.2032 20.4438 16.5237 18.6048 16.5237C17.4133 16.5191 16.2457 16.8562 15.2408 17.4948C15.2011 15.4757 14.4521 13.5955 13.1682 12.3149C12.0726 11.2219 10.6742 10.6449 9.1227 10.6449H0.00255119V14.7551H0.532106C0.625466 14.7551 0.717911 14.7734 0.804159 14.8091C0.890408 14.8447 0.96877 14.897 1.03477 14.9629C1.10077 15.0288 1.15311 15.107 1.1888 15.193C1.2245 15.2791 1.24284 15.3713 1.2428 15.4645V29.0997C1.2426 29.2882 1.16741 29.4689 1.03374 29.6021C0.900072 29.7353 0.718859 29.8102 0.529919 29.8102H0V33.9211H9.93762V29.8156H8.41529C8.22645 29.8155 8.04537 29.7406 7.91183 29.6074C7.7783 29.4742 7.70324 29.2935 7.70314 29.1051V25.3745H8.24509C9.39276 25.3745 10.4818 25.1171 11.4417 24.6339C11.4301 24.8295 11.4221 25.0255 11.4221 25.2211C11.4221 28.2128 12.3412 30.8457 13.9437 32.4441C15.1508 33.6487 16.7373 34.2854 18.5311 34.2854C20.3899 34.2854 22.0244 33.644 23.26 32.431C23.6868 32.011 24.054 31.5348 24.3515 31.0155C24.6761 31.6493 25.096 32.2297 25.5968 32.7365C26.6611 33.7978 28.0023 34.3589 29.4776 34.3589C30.0702 34.3616 30.6602 34.2817 31.2306 34.1214H41.8447C41.82 34.3434 41.8079 34.5665 41.8082 34.7897C41.8082 36.0555 42.2787 37.1939 43.1691 38.0826C44.3434 39.2541 46.1157 39.8733 48.2944 39.8733C52.3534 39.8733 55.2869 37.619 55.7425 34.2858H62.174V30.1756H61.6445C61.4556 30.1755 61.2745 30.1006 61.141 29.9674C61.0075 29.8342 60.9324 29.6535 60.9323 29.4651L60.9305 25.3756H62.4583C62.4583 25.4342 62.4539 25.4923 62.4539 25.5505C62.4539 28.5423 63.3731 31.1751 64.9756 32.7739C66.183 33.9785 67.7688 34.6152 69.5626 34.6152C71.4214 34.6152 73.056 33.9738 74.2915 32.7608C74.8837 32.1758 75.3606 31.4851 75.6975 30.7246C76.0879 31.5467 76.5791 32.2663 77.1619 32.8477C78.369 34.0524 79.9555 34.6887 81.749 34.6887C83.6077 34.6887 85.2423 34.0473 86.4778 32.8343C87.6593 31.6744 88.366 30.0996 88.5227 28.2794L88.6354 26.2708C88.8282 23.1907 88.0643 20.5699 86.4851 18.8922L86.4854 18.8911ZM7.8143 20.6019V15.0896C8.04573 15.0896 8.49511 16.3582 8.49511 17.8457C8.49511 19.2191 8.06614 20.6019 7.8143 20.6019ZM81.7778 21.6065C82.0828 21.6065 82.2486 22.3119 82.2486 23.2064H81.2668C81.2668 22.5006 81.4589 21.6065 81.7778 21.6065ZM82.0176 30.2181C81.4363 30.2181 81.1206 28.703 81.1206 27.7496H83.0184C83.0184 28.823 82.6131 30.2185 82.0176 30.2185V30.2181Z" fill="black"/>
<path d="M18.5604 21.2048C18.8655 21.2048 19.0309 21.9102 19.0309 22.8047H18.0491C18.0491 22.0989 18.2415 21.2048 18.5593 21.2048H18.5604ZM18.8002 29.8157C18.2189 29.8157 17.9033 28.3006 17.9033 27.3472H19.801C19.801 28.4202 19.3958 29.8157 18.7999 29.8157H18.8002ZM48.2304 21.1296C48.4998 21.1296 48.5493 21.9382 48.5493 22.9356C48.5493 23.933 48.4994 24.7416 48.2304 24.7416C47.9615 24.7416 47.9112 23.933 47.9112 22.9356C47.9112 21.9382 47.9611 21.1296 48.2304 21.1296ZM43.4433 30.3222C43.2706 30.3222 43.1361 30.1146 43.1361 29.9841V27.0556C43.3509 27.3197 43.5919 27.5614 43.8555 27.777C43.5783 28.3264 43.4252 28.9297 43.4069 29.5445C43.397 29.8043 43.4092 30.0645 43.4433 30.3222ZM48.1273 35.4029C46.7985 35.4029 46.5073 34.7968 46.6564 34.1641C47.0263 34.2881 47.648 34.375 48.1783 34.375C48.9776 34.375 49.5804 34.1808 50.009 34.2143C50.2455 34.2328 50.2969 34.3484 50.2969 34.5051C50.2969 35.0026 49.1941 35.4011 48.1273 35.4011V35.4029ZM54.7604 30.1532C54.2502 29.4332 53.2916 28.578 52.5959 28.3438C53.3642 27.8388 54.4393 26.5778 54.7604 25.4612V30.1532ZM69.5876 21.5335C69.8926 21.5335 70.0581 22.2389 70.0581 23.1334H69.0762C69.0773 22.4276 69.269 21.5339 69.5883 21.5339L69.5876 21.5335ZM69.8274 30.1455C69.2461 30.1455 68.9305 28.6304 68.9305 27.677H70.8282C70.8289 28.75 70.4236 30.1455 69.8281 30.1455H69.8274ZM30.7879 27.8824C30.7879 28.8234 30.7289 29.3765 30.3411 29.3765C29.7259 29.3765 29.5586 27.5057 29.5586 25.679C29.5586 24.6831 29.7511 23.0414 30.1152 22.2305C30.1797 22.0869 30.2737 21.98 30.4406 21.98C30.5897 21.98 30.7172 22.0633 30.7438 22.2345C30.7861 22.5058 30.7876 22.8807 30.7876 23.3297V27.8824H30.7879ZM37.4549 29.8903C37.4549 30.3284 36.9061 30.3651 36.9061 29.9266V20.7256C37.1247 20.7256 37.4549 20.9801 37.4549 21.3463V29.8903Z" fill="#575757"/>
<path d="M81.8229 18.5027C78.2232 18.5027 76.2219 22.3246 76.2219 25.6239C76.2219 29.3127 77.796 33.1106 81.7493 33.1106C84.7189 33.1106 86.6989 31.0289 86.9475 28.1441H84.568C84.3978 29.8479 83.7738 31.7961 82.0055 31.7961C79.7484 31.7961 79.4798 28.5964 79.4798 26.1722H87.0568C87.3484 21.4974 85.2269 18.5027 81.8225 18.5027H81.8229ZM83.8726 24.7844H79.5166C79.5166 23.0074 80.1879 19.9273 81.7864 19.9273C83.3715 19.9273 83.9586 22.0944 83.8726 24.7844ZM69.6333 18.43C66.0335 18.43 64.0323 22.2519 64.0323 25.5512C64.0323 29.24 65.6064 33.0378 69.56 33.0378C72.5296 33.0378 74.5097 30.9562 74.7579 28.0714H72.3787C72.2085 29.7752 71.5846 31.723 69.8162 31.723C67.5592 31.723 67.2906 28.5233 67.2906 26.0992H74.868C75.1606 21.4243 73.0369 18.4296 69.6333 18.4296V18.43ZM71.6833 24.7116H67.327C67.327 22.9347 67.9983 19.8546 69.5965 19.8546C71.1822 19.8528 71.769 22.0213 71.683 24.7116H71.6833ZM50.8182 29.532C50.1957 29.532 48.4023 29.641 47.9995 29.641C46.9138 29.641 46.3157 29.1665 46.3157 28.5091C46.3157 28.1455 46.498 28.0728 46.6802 27.815C49.7916 28.7873 53.4886 26.9885 53.4886 23.5423C53.4886 21.0225 52.7568 20.8763 52.7568 20.1826C52.7568 19.8553 53.2831 19.6346 53.8866 19.6346V18.6856C52.775 18.6856 52.2593 19.0492 51.7323 19.0492C50.7074 19.0492 49.9384 18.3555 48.1814 18.3555C45.448 18.3555 43.13 20.2546 43.13 23.2856C43.13 25.2254 44.0579 26.7995 45.7654 27.4489C44.2464 28.4339 44.4169 30.9195 45.4739 31.7216C44.2773 32.2332 43.3873 33.0237 43.3873 34.7893C43.3873 36.8466 45.23 38.2952 48.2926 38.2952C51.4531 38.2952 54.223 36.6026 54.223 33.3651C54.223 31.2962 52.5148 29.5305 50.8182 29.5305V29.532ZM48.2922 19.4528C49.4763 19.4528 50.0492 21.3028 50.0492 22.8493C50.0492 24.8818 49.3046 26.3919 48.2189 26.3919C47.0348 26.3919 46.4251 24.6149 46.4251 22.8129C46.4251 21.0109 47.084 19.4528 48.2922 19.4528ZM48.2557 36.9822C45.8525 36.9822 45.0343 35.7282 45.0343 34.2799C45.0343 33.5127 45.5835 32.7459 46.4254 32.3444C47.7433 33.1477 49.1341 32.6353 50.0128 32.6353C51.0012 32.6353 51.8799 33.28 51.8799 34.5708C51.8799 36.0554 49.9763 36.9811 48.2557 36.9811V36.9822ZM18.6054 18.1013C15.0057 18.1013 13.0048 21.9232 13.0048 25.2225C13.0048 28.9113 14.5789 32.7088 18.5322 32.7088C21.5028 32.7091 23.4818 30.6275 23.73 27.743H21.3509C21.1803 29.4469 20.5571 31.3951 18.7884 31.3951C16.5313 31.3951 16.2627 28.1953 16.2627 25.7712H23.8401C24.1317 21.0967 22.0094 18.102 18.6054 18.102V18.1013ZM20.6551 24.3829H16.2991C16.2991 22.606 16.9705 19.5259 18.5686 19.5259C20.154 19.5259 20.7408 21.693 20.6551 24.3829ZM8.24611 23.7983C11.0524 23.7983 13.6638 21.8628 13.6638 17.6628C13.6638 14.9237 12.004 12.2222 9.12482 12.2222H1.58386V13.1781C1.74736 13.1782 1.90923 13.2104 2.06021 13.273C2.21119 13.3356 2.34831 13.4273 2.46372 13.5429C2.57913 13.6584 2.67056 13.7956 2.73278 13.9464C2.79499 14.0972 2.82677 14.2589 2.82629 14.422V30.1428C2.82653 30.306 2.79455 30.4676 2.73219 30.6184C2.66983 30.7692 2.5783 30.9064 2.46282 31.0219C2.34735 31.1374 2.2102 31.2291 2.0592 31.2918C1.9082 31.3545 1.7463 31.3868 1.58276 31.3871V32.3423H8.35582V31.3943H7.36851C7.03799 31.394 6.72114 31.2627 6.48757 31.0294C6.25399 30.7961 6.12279 30.4798 6.12279 30.1501V23.7983H8.24611ZM6.23213 13.4082H7.69652C9.29466 13.4082 10.0757 15.6782 10.0757 17.8442C10.0757 20.4007 9.05083 22.5187 7.29379 22.5187C6.41545 22.5187 6.23213 22.093 6.23213 20.8752V13.4082ZM35.4794 30.3693V11.199H31.1974V12.1542C31.3608 12.1542 31.5226 12.1864 31.6735 12.2488C31.8244 12.3112 31.9616 12.4027 32.0771 12.518C32.1926 12.6333 32.2842 12.7702 32.3467 12.9208C32.4092 13.0714 32.4413 13.2329 32.4413 13.3959V19.4892C31.7572 18.6365 30.697 18.2475 29.5861 18.2475C27.1078 18.2475 24.8274 20.4262 24.8274 25.9894C24.8274 29.897 26.6337 32.7819 29.4764 32.7819C30.5461 32.7819 31.5425 32.5604 32.2951 31.65V32.5448H36.7251V31.6132C36.5615 31.6133 36.3994 31.5813 36.2482 31.5189C36.097 31.4565 35.9596 31.365 35.8439 31.2496C35.7281 31.1342 35.6363 30.9972 35.5736 30.8465C35.511 30.6957 35.4787 30.534 35.4786 30.3708L35.4794 30.3693ZM32.3687 28.1066C32.3687 29.8836 31.7098 30.9551 30.3187 30.9551C28.5492 30.9551 27.9759 28.532 27.9759 25.8057C27.9759 23.2732 28.6589 20.2549 30.5016 20.2549C31.9252 20.2549 32.3687 21.5865 32.3687 23.3841V28.1066Z" fill="white"/>
<path d="M40.2025 15.8735C40.9734 15.8735 41.5984 14.9497 41.5984 13.81C41.5984 12.6704 40.9734 11.7466 40.2025 11.7466C39.4316 11.7466 38.8066 12.6704 38.8066 13.81C38.8066 14.9497 39.4316 15.8735 40.2025 15.8735Z" fill="white"/>
<path d="M41.8835 30.3273L41.8865 18.5032H37.6034V19.4529H37.8949C38.3101 19.4529 38.879 19.8787 38.879 20.7677V30.3385C38.879 31.0257 38.2875 31.581 37.5986 31.581L37.6008 32.5452H43.126L43.1278 31.5719C42.7975 31.571 42.481 31.4395 42.2478 31.2062C42.0145 30.9729 41.8835 30.6568 41.8835 30.3273ZM61.3969 18.4664C60.3287 18.4664 59.6111 19.23 59.3461 20.3306V18.6857H55.0637V19.6347H55.3553C55.7704 19.6347 56.3393 20.0605 56.3393 20.9495V30.5207C56.3393 31.2079 55.7478 31.7631 55.059 31.7631L55.0608 32.7085H60.5871V31.754C60.4237 31.754 60.2619 31.7218 60.1109 31.6594C59.96 31.597 59.8229 31.5055 59.7074 31.3902C59.5919 31.2749 59.5002 31.138 59.4377 30.9874C59.3753 30.8368 59.3431 30.6753 59.3432 30.5123V21.628C59.3432 21.4109 59.4296 21.2027 59.5835 21.0492C59.7373 20.8957 59.946 20.8095 60.1636 20.8095C60.3815 20.8094 60.5906 20.8955 60.7451 21.0489C60.8995 21.2023 60.9867 21.4105 60.9876 21.628V23.7983H63.1875V20.6575C63.1875 19.4525 62.4188 18.4661 61.3936 18.4661L61.3969 18.4664Z" fill="white"/>
</g>
<defs>
<linearGradient id="paint0_linear" x1="40.8733" y1="3.85794" x2="47.6084" y2="3.85794" gradientUnits="userSpaceOnUse">
<stop stop-color="#E0E0E0"/>
<stop offset="0.13" stop-color="#B9B9B9"/>
<stop offset="0.26" stop-color="#979797"/>
<stop offset="0.36" stop-color="#818181"/>
<stop offset="0.41" stop-color="#787878"/>
<stop offset="1" stop-color="#575757"/>
</linearGradient>
<linearGradient id="paint1_linear" x1="5129.97" y1="12179.1" x2="5365.5" y2="12108" gradientUnits="userSpaceOnUse">
<stop stop-color="#E0E0E0"/>
<stop offset="0.13" stop-color="#B9B9B9"/>
<stop offset="0.26" stop-color="#979797"/>
<stop offset="0.36" stop-color="#818181"/>
<stop offset="0.41" stop-color="#787878"/>
<stop offset="1" stop-color="#575757"/>
</linearGradient>
<linearGradient id="paint2_linear" x1="5749.23" y1="12891.8" x2="5956.4" y2="12738.8" gradientUnits="userSpaceOnUse">
<stop stop-color="#E0E0E0"/>
<stop offset="0.13" stop-color="#B9B9B9"/>
<stop offset="0.26" stop-color="#979797"/>
<stop offset="0.36" stop-color="#818181"/>
<stop offset="0.41" stop-color="#787878"/>
<stop offset="1" stop-color="#575757"/>
</linearGradient>
<linearGradient id="paint3_linear" x1="5775.52" y1="12500.2" x2="5926.84" y2="12286.7" gradientUnits="userSpaceOnUse">
<stop stop-color="#E0E0E0"/>
<stop offset="0.13" stop-color="#B9B9B9"/>
<stop offset="0.26" stop-color="#979797"/>
<stop offset="0.36" stop-color="#818181"/>
<stop offset="0.41" stop-color="#787878"/>
<stop offset="1" stop-color="#575757"/>
</linearGradient>
<linearGradient id="paint4_linear" x1="5360.54" y1="11087.5" x2="5431.92" y2="10842.7" gradientUnits="userSpaceOnUse">
<stop stop-color="#E0E0E0"/>
<stop offset="0.13" stop-color="#B9B9B9"/>
<stop offset="0.26" stop-color="#979797"/>
<stop offset="0.36" stop-color="#818181"/>
<stop offset="0.41" stop-color="#787878"/>
<stop offset="1" stop-color="#575757"/>
</linearGradient>
<linearGradient id="paint5_linear" x1="56043.9" y1="41918.2" x2="56043.9" y2="43481.9" gradientUnits="userSpaceOnUse">
<stop stop-color="#E0E0E0"/>
<stop offset="0.13" stop-color="#B9B9B9"/>
<stop offset="0.26" stop-color="#979797"/>
<stop offset="0.36" stop-color="#818181"/>
<stop offset="0.41" stop-color="#787878"/>
<stop offset="1" stop-color="#575757"/>
</linearGradient>
<linearGradient id="paint6_linear" x1="6277.27" y1="10358.4" x2="6211.79" y2="10129" gradientUnits="userSpaceOnUse">
<stop stop-color="#E0E0E0"/>
<stop offset="0.13" stop-color="#B9B9B9"/>
<stop offset="0.26" stop-color="#979797"/>
<stop offset="0.36" stop-color="#818181"/>
<stop offset="0.41" stop-color="#787878"/>
<stop offset="1" stop-color="#575757"/>
</linearGradient>
<linearGradient id="paint7_linear" x1="6595.32" y1="10822.4" x2="6443.14" y2="10609.3" gradientUnits="userSpaceOnUse">
<stop stop-color="#E0E0E0"/>
<stop offset="0.13" stop-color="#B9B9B9"/>
<stop offset="0.26" stop-color="#979797"/>
<stop offset="0.36" stop-color="#818181"/>
<stop offset="0.41" stop-color="#787878"/>
<stop offset="1" stop-color="#575757"/>
</linearGradient>
<linearGradient id="paint8_linear" x1="9751.57" y1="-62819.2" x2="8471.38" y2="-61921.6" gradientUnits="userSpaceOnUse">
<stop stop-color="#E0E0E0"/>
<stop offset="0.13" stop-color="#B9B9B9"/>
<stop offset="0.26" stop-color="#979797"/>
<stop offset="0.36" stop-color="#818181"/>
<stop offset="0.41" stop-color="#787878"/>
<stop offset="1" stop-color="#575757"/>
</linearGradient>
<linearGradient id="paint9_linear" x1="2848.21" y1="-69097.7" x2="1501.77" y2="-70036.9" gradientUnits="userSpaceOnUse">
<stop stop-color="#E0E0E0"/>
<stop offset="0.13" stop-color="#B9B9B9"/>
<stop offset="0.26" stop-color="#979797"/>
<stop offset="0.36" stop-color="#818181"/>
<stop offset="0.41" stop-color="#787878"/>
<stop offset="1" stop-color="#575757"/>
</linearGradient>
<linearGradient id="paint10_linear" x1="4536.69" y1="11240.2" x2="4368.44" y2="11445.5" gradientUnits="userSpaceOnUse">
<stop stop-color="#E0E0E0"/>
<stop offset="0.13" stop-color="#B9B9B9"/>
<stop offset="0.26" stop-color="#979797"/>
<stop offset="0.36" stop-color="#818181"/>
<stop offset="0.41" stop-color="#787878"/>
<stop offset="1" stop-color="#575757"/>
</linearGradient>
<linearGradient id="paint11_linear" x1="3957.83" y1="10352" x2="3875" y2="10590.2" gradientUnits="userSpaceOnUse">
<stop stop-color="#E0E0E0"/>
<stop offset="0.13" stop-color="#B9B9B9"/>
<stop offset="0.26" stop-color="#979797"/>
<stop offset="0.36" stop-color="#818181"/>
<stop offset="0.41" stop-color="#787878"/>
<stop offset="1" stop-color="#575757"/>
</linearGradient>
<linearGradient id="paint12_linear" x1="4509.18" y1="10613.2" x2="4564.42" y2="10847.2" gradientUnits="userSpaceOnUse">
<stop stop-color="#E0E0E0"/>
<stop offset="0.13" stop-color="#B9B9B9"/>
<stop offset="0.26" stop-color="#979797"/>
<stop offset="0.36" stop-color="#818181"/>
<stop offset="0.41" stop-color="#787878"/>
<stop offset="1" stop-color="#575757"/>
</linearGradient>
<linearGradient id="paint13_linear" x1="4896.8" y1="11605.7" x2="5042.77" y2="11823.8" gradientUnits="userSpaceOnUse">
<stop stop-color="#E0E0E0"/>
<stop offset="0.13" stop-color="#B9B9B9"/>
<stop offset="0.26" stop-color="#979797"/>
<stop offset="0.36" stop-color="#818181"/>
<stop offset="0.41" stop-color="#787878"/>
<stop offset="1" stop-color="#575757"/>
</linearGradient>
<linearGradient id="paint14_linear" x1="4981.22" y1="11418.8" x2="5193.85" y2="11576.6" gradientUnits="userSpaceOnUse">
<stop stop-color="#E0E0E0"/>
<stop offset="0.13" stop-color="#B9B9B9"/>
<stop offset="0.26" stop-color="#979797"/>
<stop offset="0.36" stop-color="#818181"/>
<stop offset="0.41" stop-color="#787878"/>
<stop offset="1" stop-color="#575757"/>
</linearGradient>
<linearGradient id="paint15_linear" x1="4725.16" y1="10444.7" x2="4953.55" y2="10516.3" gradientUnits="userSpaceOnUse">
<stop stop-color="#E0E0E0"/>
<stop offset="0.13" stop-color="#B9B9B9"/>
<stop offset="0.26" stop-color="#979797"/>
<stop offset="0.36" stop-color="#818181"/>
<stop offset="0.41" stop-color="#787878"/>
<stop offset="1" stop-color="#575757"/>
</linearGradient>
<linearGradient id="paint16_linear" x1="41.2764" y1="44.8445" x2="38.1438" y2="56.5019" gradientUnits="userSpaceOnUse">
<stop stop-color="#C5C5C5"/>
<stop offset="0.09" stop-color="#CACACA"/>
<stop offset="0.47" stop-color="#E4E4E4"/>
<stop offset="0.64" stop-color="#EEEEEE"/>
<stop offset="0.75" stop-color="#E0E0E0"/>
<stop offset="0.92" stop-color="#CFCFCF"/>
<stop offset="1" stop-color="#C7C7C7"/>
</linearGradient>
<linearGradient id="paint17_linear" x1="13308.4" y1="20149.6" x2="13438" y2="19474.7" gradientUnits="userSpaceOnUse">
<stop stop-color="#C5C5C5"/>
<stop offset="0.09" stop-color="#CACACA"/>
<stop offset="0.47" stop-color="#E4E4E4"/>
<stop offset="0.64" stop-color="#EEEEEE"/>
<stop offset="0.75" stop-color="#E0E0E0"/>
<stop offset="0.92" stop-color="#CFCFCF"/>
<stop offset="1" stop-color="#C7C7C7"/>
</linearGradient>
<linearGradient id="paint18_linear" x1="25.2046" y1="26.1857" x2="62.2528" y2="26.1857" gradientUnits="userSpaceOnUse">
<stop stop-color="white"/>
<stop offset="0.03" stop-color="#FCFCFC"/>
<stop offset="0.08" stop-color="#F3F3F3"/>
<stop offset="0.14" stop-color="#E6E6E6"/>
<stop offset="0.22" stop-color="#D3D3D3"/>
<stop offset="0.27" stop-color="#C5C5C5"/>
<stop offset="0.31" stop-color="#C9C9C9"/>
<stop offset="0.38" stop-color="#D2D2D2"/>
<stop offset="0.48" stop-color="#E3E3E3"/>
<stop offset="0.6" stop-color="#F7F7F7"/>
<stop offset="0.64" stop-color="white"/>
<stop offset="0.78" stop-color="#E8E8E8"/>
<stop offset="0.93" stop-color="#D1D1D1"/>
<stop offset="1" stop-color="#C7C7C7"/>
</linearGradient>
<clipPath id="clip0">
<rect width="91.1111" height="60" fill="white"/>
</clipPath>
</defs>
</svg>
