<svg width="144" height="30" viewBox="0 0 144 30" fill="none" xmlns="http://www.w3.org/2000/svg">
<g clip-path="url(#clip0)">
<path d="M135.24 17.8027H134.143L133.877 19.8599H134.88C135.039 19.8779 135.199 19.8607 135.351 19.8097C135.502 19.7586 135.64 19.6749 135.755 19.5645C135.871 19.4541 135.96 19.3197 136.018 19.1707C136.076 19.0218 136.1 18.862 136.089 18.7027C136.103 18.4971 136.039 18.2935 135.908 18.1341C135.777 17.9746 135.59 17.8714 135.386 17.8456L135.24 17.8027Z" fill="#201600"/>
<path d="M104.743 19.7142C105.883 19.7142 106.603 18.4971 106.603 16.9885C106.603 15.9771 106.123 15.1714 105.24 15.1714C104.16 15.1714 103.337 16.44 103.337 17.9057C103.337 18.9514 103.877 19.7142 104.743 19.7142Z" fill="#201600"/>
<path d="M135.497 15.0601H134.572L134.332 16.4315H135.36C135.772 16.4315 136.337 16.4315 136.337 15.5743C136.346 15.0686 135.977 15.0601 135.497 15.0601Z" fill="#201600"/>
<path d="M131.023 9.2915C131.267 9.57142 131.398 9.93179 131.392 10.3029C131.392 11.1601 130.869 11.9486 130.149 11.9486C129.985 11.9399 129.825 11.899 129.678 11.8283C129.53 11.7576 129.398 11.6585 129.289 11.5367C129.18 11.4148 129.096 11.2727 129.042 11.1183C128.988 10.964 128.965 10.8005 128.974 10.6372V10.5772C128.961 10.0984 129.137 9.63356 129.463 9.28293H121.2C121.455 9.56422 121.593 9.93205 121.586 10.3115C121.586 11.1686 121.063 11.9572 120.343 11.9572C120.177 11.9518 120.015 11.9133 119.864 11.8441C119.714 11.7748 119.579 11.6762 119.467 11.554C119.355 11.4319 119.269 11.2886 119.213 11.1326C119.158 10.9766 119.134 10.8111 119.143 10.6458V10.5858C119.136 10.3446 119.177 10.1044 119.264 9.87919C119.351 9.65403 119.482 9.44842 119.649 9.27436L83.6487 9.21436L80.4772 23.8458L32.8115 23.7601L32.5715 25.1572H100.209L101.88 12.9686H103.912L103.749 14.3401C103.983 13.9579 104.301 13.6333 104.678 13.39C105.054 13.1467 105.481 12.991 105.926 12.9344C107.64 12.9344 108.72 14.4858 108.72 16.5858C108.72 19.5086 107.169 21.8486 105.026 21.8486C104.602 21.8348 104.19 21.7095 103.83 21.4852C103.47 21.261 103.176 20.9458 102.977 20.5715L102.352 25.2686L139.766 25.3544L143.194 9.33436L131.023 9.2915ZM91.003 21.9086H88.8601L89.263 18.8572C88.7017 18.99 88.1249 19.0448 87.5487 19.0201C86.1687 19.0201 85.543 18.1629 85.543 16.7658C85.5393 16.4792 85.5564 16.1927 85.5944 15.9086L85.9801 12.9772H88.0715L87.7544 15.4286C87.7435 15.6113 87.7435 15.7945 87.7544 15.9772C87.7544 16.7144 88.0715 16.8858 88.6115 16.8858C88.9557 16.8665 89.2944 16.7912 89.6144 16.6629L90.0944 13.0372H92.2373L91.003 21.9086ZM99.763 18.4801H94.9887C94.9841 18.6647 95.016 18.8484 95.0825 19.0207C95.1489 19.193 95.2487 19.3505 95.376 19.4842C95.5034 19.6179 95.6559 19.7253 95.8247 19.8001C95.9936 19.8748 96.1755 19.9156 96.3601 19.9201H96.463C96.7846 19.9057 97.098 19.8131 97.3758 19.6503C97.6536 19.4875 97.8875 19.2594 98.0573 18.9858L99.4287 20.3229C99.0831 20.8331 98.6164 21.2496 98.0705 21.5353C97.5245 21.821 96.9163 21.967 96.3001 21.9601C94.4573 21.9601 93.0258 20.6058 93.0258 18.1201C93.0258 15.2144 94.7401 12.9172 97.0373 12.9172C98.7515 12.9172 99.9858 14.3658 99.9858 16.6715C99.9551 17.2813 99.8835 17.8884 99.7715 18.4886L99.763 18.4801ZM115.937 21.9086H113.794L114.249 18.4801H112.08L111.626 21.9086H109.483L110.649 13.0029H112.792L112.38 16.4315H114.549L114.96 13.0029H117.103L115.937 21.9086ZM119.923 21.9086H117.797L118.963 13.0029H121.114L119.923 21.9086ZM127.243 15.0515H124.74L123.883 21.9086H121.714L122.88 13.0029H127.526L127.243 15.0515ZM129.729 21.9086H127.603L128.769 13.0029H130.92L129.729 21.9086ZM138.103 19.1658C138.126 19.503 138.083 19.8414 137.975 20.1618C137.868 20.4822 137.698 20.7782 137.476 21.033C137.254 21.2877 136.984 21.4962 136.681 21.6464C136.378 21.7967 136.049 21.8858 135.712 21.9086H131.52L132.686 13.0029H136.5C136.753 12.9915 137.006 13.0351 137.241 13.1305C137.476 13.226 137.687 13.3711 137.86 13.556C138.034 13.7408 138.165 13.961 138.246 14.2013C138.326 14.4417 138.353 14.6967 138.326 14.9486C138.314 15.431 138.164 15.8999 137.894 16.2995C137.623 16.6991 137.244 17.0127 136.8 17.2029C137.208 17.3347 137.559 17.6002 137.797 17.9564C138.035 18.3126 138.146 18.7387 138.112 19.1658H138.103Z" fill="#201600"/>
<path d="M96.8571 14.8027C96.4299 14.8458 96.0293 15.0303 95.7187 15.3268C95.4082 15.6234 95.2055 16.0151 95.1428 16.4399H98.0314C98.0408 16.3315 98.0408 16.2225 98.0314 16.1142C98.0651 15.8028 97.9739 15.4908 97.7779 15.2466C97.5818 15.0023 97.297 14.8458 96.9857 14.8113L96.8571 14.8027Z" fill="#201600"/>
<path d="M38.1514 13.1658H40.2857L39.8656 16.2086H42.0685L42.4885 13.1658H44.6657L43.5257 21.6858H41.3485L41.8114 18.2572H39.6085L39.1456 21.6858H36.9685L38.1514 13.1658Z" fill="#201600"/>
<path d="M45.54 18.1799C45.54 15.3599 47.1172 12.9084 49.6715 12.9084C51.6686 12.9084 53.1515 14.3484 53.1515 16.6542C53.1515 19.5084 51.5743 21.9256 48.9772 21.9256C47.0229 21.9256 45.54 20.4942 45.54 18.1799ZM51.0086 16.9456C51.0086 15.917 50.4772 15.1456 49.5772 15.1456C48.42 15.1456 47.6743 16.4142 47.6743 17.8799C47.6743 18.9084 48.1886 19.6627 49.0886 19.6627C50.2543 19.7142 51.0086 18.4199 51.0086 16.9456Z" fill="#201600"/>
<path d="M55.0972 13.1658H58.9715C59.228 13.1396 59.4872 13.169 59.7313 13.2522C59.9754 13.3354 60.1987 13.4703 60.3859 13.6477C60.5731 13.8251 60.7197 14.0409 60.8159 14.2802C60.912 14.5195 60.9553 14.7767 60.9429 15.0343C60.9822 15.5062 60.8615 15.9776 60.6003 16.3725C60.3391 16.7675 59.9525 17.063 59.5029 17.2115C59.884 17.3269 60.2131 17.5713 60.4337 17.9029C60.6542 18.2345 60.7524 18.6325 60.7115 19.0286C60.7115 20.7429 59.5114 21.6686 57.8143 21.6686H53.9143L55.0972 13.1658ZM57.3172 19.9629C57.9857 19.9629 58.5429 19.6886 58.5429 18.8829C58.5602 18.7663 58.55 18.6473 58.5131 18.5354C58.4762 18.4235 58.4135 18.3218 58.3302 18.2385C58.2468 18.1551 58.1451 18.0925 58.0332 18.0556C57.9213 18.0186 57.8023 18.0084 57.6857 18.0258H56.5714L56.2972 19.9286L57.3172 19.9629ZM57.8229 16.6115C57.9561 16.6218 58.0899 16.6031 58.2152 16.5568C58.3405 16.5105 58.4543 16.4376 58.5488 16.3431C58.6432 16.2486 58.7161 16.1348 58.7625 16.0095C58.8088 15.8842 58.8275 15.7504 58.8172 15.6172C58.8172 15.0686 58.44 14.8801 57.96 14.8801H57.0172L56.7686 16.5943L57.8229 16.6115Z" fill="#201600"/>
<path d="M63.0601 13.1658H65.1944L64.5001 18.1286L67.5515 13.1658H69.8487L68.6915 21.6858H66.5829L67.2515 16.8429L64.2258 21.6858H61.8687L63.0601 13.1658Z" fill="#201600"/>
<path d="M71.7515 13.1657H73.8858L73.1915 18.1286L76.2858 13.1657H78.5829L77.3829 21.6857H75.2743L75.9429 16.8429L72.9172 21.6857H70.5601L71.7515 13.1657ZM73.2343 9.66003L74.3486 9.38574C74.3452 9.5152 74.3673 9.64406 74.4137 9.76497C74.4601 9.88587 74.5299 9.99645 74.6191 10.0904C74.7082 10.1843 74.815 10.2597 74.9333 10.3124C75.0516 10.365 75.1792 10.3938 75.3086 10.3972H75.4286C75.7239 10.4151 76.0151 10.3208 76.244 10.1333C76.4728 9.9458 76.6224 9.67881 76.6629 9.38574L77.7258 9.66003C77.4258 11.2029 76.6543 11.9057 75.3858 11.9057C75.0927 11.9176 74.8004 11.8671 74.5283 11.7577C74.2562 11.6483 74.0103 11.4824 73.807 11.271C73.6037 11.0595 73.4475 10.8074 73.3488 10.5312C73.2501 10.255 73.2111 9.96099 73.2343 9.6686V9.66003Z" fill="#201600"/>
<path d="M7.45711 1.71427C7.45711 1.48284 7.19997 -1.90586e-05 6.6514 0.0771238C6.10283 0.154267 6.56568 1.71427 6.6514 2.0057C6.73711 2.29712 8.24568 4.43141 7.62854 4.84284C6.85711 5.35712 6.09426 1.83427 5.45997 2.10855C5.01426 2.3057 6.23997 4.67998 6.62568 5.39141C7.0114 6.10284 8.5714 8.28855 8.33997 8.7257C7.50854 10.1914 4.17426 3.6857 3.42854 3.77141C2.98283 4.56855 4.8514 6.91712 5.03997 7.07141C5.22854 7.2257 5.40854 7.43998 5.03997 7.48284C4.75711 8.45141 9.13711 10.5257 8.5714 11.3571C7.62854 12.7371 2.71711 7.07141 2.51997 7.3457C1.89426 8.30569 4.79997 10.44 5.27997 10.6028C5.75997 10.7657 6.13711 11.16 5.88854 11.46C5.63997 11.76 4.66283 10.8428 4.50854 11.1428C4.21711 11.7343 4.83426 11.8371 5.07426 12C5.31426 12.1628 7.36283 12.48 7.18283 13.0114C7.00283 13.5428 5.5714 13.14 5.14283 12.8571C4.91997 12.72 3.7714 11.5714 3.63426 12.2571C3.42854 13.32 5.06568 13.7914 5.52854 13.8257C5.9914 13.86 7.18283 13.8257 7.1314 14.5371C7.07997 15.2486 3.19711 14.7771 3.2914 15.3428C3.41997 16.1057 5.16854 15.9 5.45997 15.7457C5.7514 15.5914 7.17426 14.8886 7.26854 15.7457C7.36283 16.6028 4.98854 16.9286 4.65426 16.9028C4.31997 16.8771 3.32568 16.9028 3.32568 17.2543C3.32568 17.6057 4.01997 17.88 4.5514 17.9143C5.03846 17.8537 5.49877 17.6577 5.87997 17.3486C6.06854 17.2286 7.09711 16.6628 7.59426 17.2114C8.0914 17.76 6.2314 18.4971 5.99997 18.6086C5.76854 18.72 4.50854 19.2686 4.96283 19.62C5.5714 20.1 5.88854 19.7828 6.49711 19.2771C7.10568 18.7714 7.35426 19.1057 7.35426 19.2771C7.35426 19.4486 6.37711 20.0143 6.92568 20.2628C7.47426 20.5114 7.9714 19.4057 8.24568 19.2514C8.41587 19.1822 8.59992 19.1539 8.78302 19.1688C8.96613 19.1837 9.14319 19.2414 9.29997 19.3371C9.55711 19.5257 10.4571 19.2 10.3885 19.5686C10.32 19.9371 9.35997 19.7057 9.1714 19.6286C9.1114 19.7057 8.5714 20.5971 8.03997 21.3428C7.6042 21.9686 7.31156 22.6827 7.18283 23.4343C7.18283 24.2914 5.07426 25.5771 4.82568 25.7143C4.57711 25.8514 3.49711 26.7514 3.82283 27.0257C4.14854 27.3 4.49997 26.7686 4.97997 26.2971C5.45997 25.8257 5.70854 26.22 5.6914 26.3486C5.67426 26.4771 4.09711 27.7457 4.56854 27.9514C5.03997 28.1571 5.42568 27.4286 5.61426 27.0943C5.80283 26.76 6.35997 26.3743 6.4714 26.4343C6.58283 26.4943 6.51426 26.6743 6.4714 26.9314C6.42854 27.1886 4.82568 28.4571 5.34854 28.9714C6.01711 29.2028 6.31711 27.8143 6.60854 27.5143C7.5883 26.1993 8.4816 24.8221 9.28283 23.3914C9.52314 23.3679 9.7656 23.4015 9.9905 23.4893C10.2154 23.5772 10.4164 23.7169 10.5771 23.8971C10.6698 24.3133 10.9143 24.68 11.2628 24.9257C11.0657 24.6943 11.2628 24.4371 11.3314 24.2228C11.5028 24.2228 12 24.84 12 24.84C12.5093 24.8323 13.0186 24.8523 13.5257 24.9C13.6123 24.9783 13.6697 25.0838 13.6884 25.1991C13.7071 25.3144 13.686 25.4326 13.6285 25.5343C13.8085 25.5343 13.8771 25.3371 13.98 25.2943C14.0828 25.2514 14.1257 25.38 14.1257 25.38C14.1257 25.38 14.3571 24.7714 14.2371 24.5914C14.1171 24.4114 13.6457 24.2314 12.9257 24.4457C12.2057 24.66 12.1371 24.3343 11.88 24.2657C11.932 24.222 11.9749 24.1684 12.0062 24.108C12.0374 24.0477 12.0564 23.9817 12.062 23.9139C12.0675 23.8462 12.0596 23.778 12.0387 23.7133C12.0178 23.6486 11.9842 23.5888 11.94 23.5371L11.88 23.4771C11.7036 23.3368 11.5661 23.1536 11.4805 22.945C11.395 22.7365 11.3643 22.5095 11.3914 22.2857C11.5371 21.9257 13.1057 21.7971 14.1943 20.9743C15.2828 20.1514 15.24 18 15.6 17.76C15.96 17.52 16.5343 17.5457 16.6028 18.1543C16.8943 18.0428 16.9285 17.6486 16.7828 17.2971C16.8625 17.0763 16.9115 16.8456 16.9285 16.6114L15.0943 15.4286C15.0943 15.4286 14.5371 15.84 14.5028 16.0714C14.4685 16.3028 14.1085 16.5771 13.98 16.5171C13.8514 16.4571 13.6714 16.62 13.6714 16.62C13.5335 16.8412 13.3135 16.9987 13.0597 17.0582C12.8059 17.1176 12.5389 17.0741 12.3171 16.9371L12.2485 16.8943C11.6828 16.4657 12.7028 15.5743 12.72 14.4943C12.7927 13.0417 12.4979 11.5942 11.8628 10.2857C11.1257 9.11998 9.14568 5.81141 9.12854 5.73427C9.1114 5.65712 7.42283 2.47712 7.45711 1.71427Z" fill="#201600"/>
<path d="M15.2485 13.9885L15.3342 15.3942C15.3342 15.3942 17.0485 16.3885 17.0485 16.4228C17.0485 16.4571 18.3428 15.8742 18.3428 15.8742H17.82L17.5371 16.14H17.1428V15.6857L16.6628 15.84V15.3171L17.0914 15.1285L17.04 14.5285L16.4314 14.7085V15.2142L16.08 15.4285L15.9428 14.9571L15.5742 15.2057L15.4371 14.7771L15.54 14.5114L15.2485 13.9885Z" fill="#201600"/>
<path d="M13.3542 14.7171C13.4886 14.2874 13.5523 13.8387 13.5428 13.3886C13.5509 12.7439 13.4583 12.1019 13.2685 11.4857C13.0279 10.875 12.708 10.2987 12.317 9.77143C11.6991 8.82489 11.1874 7.81305 10.7913 6.75429C10.404 5.71341 10.0749 4.65177 9.80562 3.57429C9.67705 2.76857 9.89133 2.21143 10.1656 2.15143C10.4399 2.09143 10.637 2.94 10.5942 3.39429C10.5513 3.84857 10.6628 4.28571 10.9713 4.28571C11.2799 4.28571 11.2628 3.36857 11.0485 1.89429C10.8342 0.42 11.1428 0 11.1428 0C11.717 0.0514286 11.8799 0.411429 11.8285 1.52571C11.7628 3.05107 11.8778 4.57884 12.1713 6.07714C12.4958 7.16645 12.9535 8.21151 13.5342 9.18857C14.0394 9.86861 14.393 10.649 14.5713 11.4771C14.8097 12.3683 14.7829 13.3096 14.4942 14.1857C14.355 14.9275 14.0173 15.6177 13.517 16.1829C12.7285 16.8514 12.9428 16.7229 12.6599 16.5943C12.377 16.4657 12.857 15.6 12.9685 15.4286C13.1347 15.2138 13.2649 14.9736 13.3542 14.7171Z" fill="#201600"/>
<path d="M11.8799 23.0229C11.8799 23.0229 11.537 22.6457 11.7685 22.3372C11.9999 22.0286 12.2913 21.8315 12.377 21.9772C12.4627 22.1229 12.6856 22.7486 12.7456 22.9115C12.7507 22.934 12.7507 22.9575 12.7456 22.98C12.7333 23.1327 12.7599 23.286 12.8227 23.4257C13.2778 23.5852 13.7734 23.5852 14.2285 23.4257C14.3935 23.3516 14.5777 23.3316 14.7547 23.3686C14.9318 23.4055 15.0926 23.4976 15.2142 23.6315C15.2827 23.8629 15.0342 24.1629 15.0342 24.1629C15.0342 24.1629 15.0342 23.9229 14.957 23.94C14.8799 23.9572 14.957 24.24 14.8542 24.3257C14.7763 24.3805 14.6837 24.4104 14.5885 24.4115C14.5885 24.4115 14.717 24.3429 14.657 24.12C14.597 23.8972 14.2542 23.9229 14.117 23.9572H13.397C13.235 23.9575 13.0747 23.9233 12.9269 23.8568C12.7791 23.7903 12.6471 23.693 12.5399 23.5715L12.437 23.4515C12.4208 23.4333 12.401 23.4186 12.3789 23.4083C12.3568 23.3979 12.3328 23.3922 12.3085 23.3915C12.2326 23.387 12.1592 23.3624 12.096 23.3202C12.0327 23.278 11.9818 23.2198 11.9485 23.1515L11.8799 23.0229Z" fill="#201600"/>
<path d="M12 29.5029C9.62663 29.5029 7.30655 28.7991 5.33316 27.4806C3.35977 26.162 1.8217 24.2878 0.913451 22.0951C0.0051995 19.9024 -0.232441 17.4896 0.230582 15.1619C0.693605 12.8341 1.83649 10.6959 3.51472 9.01765C5.19295 7.33942 7.33115 6.19653 9.65892 5.73351C11.9867 5.27049 14.3995 5.50813 16.5922 6.41638C18.7849 7.32463 20.6591 8.8627 21.9776 10.8361C23.2962 12.8095 24 15.1296 24 17.5029C24 20.6855 22.7357 23.7378 20.4853 25.9882C18.2348 28.2387 15.1826 29.5029 12 29.5029ZM12 6.00008C9.7332 6.00178 7.51773 6.67519 5.63342 7.93527C3.74912 9.19535 2.28049 10.9856 1.41302 13.0798C0.545553 15.1741 0.318163 17.4784 0.759567 19.7019C1.20097 21.9253 2.29137 23.968 3.89305 25.5721C5.49473 27.1762 7.53584 28.2696 9.7586 28.7143C11.9814 29.1591 14.286 28.9351 16.3816 28.0708C18.4772 27.2064 20.2696 25.7405 21.5325 23.858C22.7953 21.9756 23.4721 19.7612 23.4771 17.4944C23.4805 15.9854 23.1861 14.4906 22.6107 13.0957C22.0354 11.7007 21.1904 10.433 20.1242 9.3652C19.058 8.2974 17.7915 7.45051 16.3974 6.87306C15.0033 6.29561 13.509 5.99895 12 6.00008Z" fill="#201600"/>
<path d="M8.87992 29.9999C8.82742 30.002 8.7755 29.9884 8.73069 29.961C8.68589 29.9336 8.65023 29.8935 8.62822 29.8458C8.6062 29.7981 8.59882 29.7449 8.60701 29.693C8.61519 29.6411 8.63858 29.5928 8.6742 29.5542L26.9742 8.16849C27.0239 8.12674 27.0868 8.10398 27.1517 8.10425C27.2167 8.10452 27.2794 8.12781 27.3287 8.16997C27.3781 8.21214 27.4109 8.27044 27.4213 8.33452C27.4317 8.39859 27.4191 8.46429 27.3856 8.51991L9.08563 29.9056C9.0604 29.9355 9.02888 29.9595 8.99332 29.9758C8.95775 29.9921 8.91903 30.0003 8.87992 29.9999Z" fill="#201600"/>
<path d="M27.5743 10.8515C27.5119 10.8523 27.4512 10.831 27.4029 10.7915L24.8315 8.69151C24.8044 8.669 24.7821 8.64139 24.7658 8.61025C24.7494 8.57911 24.7394 8.54506 24.7362 8.51004C24.733 8.47502 24.7368 8.43972 24.7472 8.40614C24.7577 8.37257 24.7747 8.34138 24.7972 8.31437C24.8197 8.28735 24.8473 8.26504 24.8784 8.24869C24.9096 8.23235 24.9436 8.2223 24.9786 8.21912C25.0137 8.21593 25.049 8.21968 25.0825 8.23014C25.1161 8.2406 25.1473 8.25757 25.1743 8.28008L27.6943 10.3801C27.7407 10.4139 27.7748 10.4617 27.7917 10.5165C27.8086 10.5714 27.8073 10.6301 27.788 10.6842C27.7687 10.7382 27.7325 10.7845 27.6847 10.8162C27.6369 10.8479 27.5801 10.8633 27.5229 10.8601L27.5743 10.8515Z" fill="#201600"/>
</g>
<defs>
<clipPath id="clip0">
<rect width="143.194" height="30" fill="white"/>
</clipPath>
</defs>
</svg>
