<svg width="116" height="30" viewBox="0 0 116 30" fill="none" xmlns="http://www.w3.org/2000/svg">
<g clip-path="url(#clip0)">
<path d="M33.4663 25.956L7.75791 25.9973L8.37689 25.0894L21.0454 5.94224L18.4044 1.65063L0 30H35.9835L33.4663 25.956Z" fill="#201600"/>
<path d="M25.2132 19.0234H28.9684L22.4897 8.83081L12.3796 23.7276L16.5887 23.6864L22.5309 15.0619L25.2132 19.0234Z" fill="#201600"/>
<path d="M30.4539 21.1279L21.3755 21.0867L19.3948 23.8515L32.022 23.8102L30.4539 21.1279Z" fill="#201600"/>
<path d="M55.5021 3.92021C55.3651 3.92588 55.2283 3.90315 55.1005 3.85344C54.9727 3.80373 54.8565 3.72812 54.7593 3.63135C54.6677 3.52385 54.5986 3.39907 54.5561 3.26441C54.5136 3.12974 54.4985 2.98791 54.5117 2.84731C54.5111 2.55382 54.5973 2.26671 54.7593 2.022C54.8434 1.91723 54.9503 1.83304 55.0719 1.77583C55.1935 1.71863 55.3265 1.68991 55.4608 1.69187C55.6016 1.69938 55.7406 1.72718 55.8735 1.77441C55.9822 1.80404 56.0816 1.86084 56.1623 1.93947L56.4099 1.56808C56.2954 1.48378 56.1706 1.41445 56.0385 1.36175C55.8725 1.2774 55.6883 1.2349 55.5021 1.23795C55.2915 1.22409 55.0803 1.25355 54.8816 1.32453C54.6829 1.39551 54.5008 1.50649 54.3467 1.65061C54.2025 1.80476 54.0916 1.98682 54.0206 2.18556C53.9496 2.38429 53.9201 2.59547 53.934 2.80604C53.9192 3.21733 54.0675 3.6178 54.3467 3.92021C54.4778 4.0605 54.6382 4.1702 54.8165 4.24151C54.9948 4.31283 55.1866 4.34402 55.3783 4.33286C55.756 4.34 56.1281 4.23984 56.4512 4.04401L56.2449 3.59009C56.1499 3.69255 56.035 3.77464 55.9074 3.83139C55.7797 3.88813 55.6418 3.91835 55.5021 3.92021Z" fill="#201600"/>
<path d="M59.8348 3.87903C59.7522 3.87903 59.711 3.83776 59.6697 3.71397C59.64 3.49371 59.5515 3.28552 59.4135 3.11126C59.2756 2.937 59.0932 2.80309 58.8857 2.72359C59.0825 2.68568 59.2615 2.58455 59.3956 2.43559C59.5296 2.28663 59.6114 2.09797 59.6285 1.89828C59.6697 1.77449 59.711 1.73322 59.7935 1.73322H59.9173V1.2793H59.7523C59.6814 1.27193 59.6098 1.27906 59.5419 1.30027C59.4739 1.32147 59.411 1.35631 59.3569 1.40265C59.3028 1.44899 59.2588 1.50586 59.2274 1.56979C59.1961 1.63372 59.1781 1.70337 59.1745 1.77449C59.1467 1.98249 59.044 2.17322 58.8857 2.31094C58.6939 2.44642 58.4584 2.5053 58.2254 2.476H58.1429V1.23804H57.6064V4.25042H58.1429V2.92992H58.1842C58.4349 2.91513 58.6829 2.98808 58.8857 3.13625C59.0628 3.3113 59.1662 3.54757 59.1745 3.7965C59.1772 3.86967 59.1943 3.9416 59.2247 4.00818C59.2552 4.07475 59.2985 4.13466 59.3522 4.18449C59.4058 4.23431 59.4688 4.27307 59.5374 4.29854C59.6061 4.32402 59.6791 4.33571 59.7523 4.33295H59.9998V3.87903H59.8348Z" fill="#201600"/>
<path d="M51.623 1.23782C51.4351 1.23841 51.2495 1.27923 51.0787 1.35752C50.9079 1.43582 50.7558 1.54978 50.6327 1.69174C50.3585 2.01349 50.2117 2.42454 50.22 2.84718C50.2052 3.25846 50.3535 3.65894 50.6327 3.96134C50.7638 4.10163 50.9242 4.21133 51.1025 4.28265C51.2808 4.35396 51.4726 4.38515 51.6643 4.374C51.8715 4.38082 52.0788 4.36699 52.2833 4.33273C52.454 4.29223 52.6107 4.20673 52.7372 4.08514L52.5309 3.63122C52.3083 3.8109 52.0328 3.9124 51.7468 3.92008C51.5606 3.92314 51.3764 3.88064 51.2104 3.79628C51.0701 3.70311 50.9563 3.57515 50.8803 3.42489C50.7766 3.25116 50.7331 3.04812 50.7565 2.84718H52.9435C52.9775 2.74062 52.9915 2.6287 52.9848 2.51705C52.9896 2.34205 52.9591 2.16787 52.8953 2.00484C52.8315 1.84181 52.7357 1.69325 52.6134 1.56795C52.3362 1.33792 51.9828 1.22013 51.623 1.23782ZM50.7977 2.47579C50.8165 2.25982 50.9162 2.05895 51.077 1.91351C51.2377 1.76808 51.4475 1.68885 51.6643 1.69174C51.8739 1.69736 52.0763 1.76963 52.242 1.89807C52.3705 2.06381 52.4427 2.26618 52.4483 2.47579H50.7977Z" fill="#201600"/>
<path d="M37.8817 1.27905H37.2627L36.5612 2.35195L35.8597 1.27905H35.2407L36.2724 2.76461L35.1582 4.3327H35.8185L36.5612 3.17726L37.304 4.3327H38.0055L36.8088 2.76461L37.8817 1.27905Z" fill="#201600"/>
<path d="M62.3522 1.238C62.1671 1.23098 61.9827 1.26424 61.8117 1.33549C61.6407 1.40673 61.4872 1.51427 61.3618 1.65066C61.1003 1.96098 60.9674 2.35963 60.9904 2.76483C60.9671 3.18265 61.0994 3.5943 61.3618 3.92026C61.6215 4.18397 61.9738 4.33586 62.3438 4.34357C62.7138 4.35128 63.0722 4.21419 63.3426 3.96152L63.3838 3.92026C63.6463 3.5943 63.7786 3.18265 63.7552 2.76483C63.7586 2.3625 63.6279 1.9705 63.3838 1.65066C63.2538 1.50897 63.0936 1.39832 62.915 1.3269C62.7364 1.25547 62.5441 1.22509 62.3522 1.238ZM62.9299 3.6314C62.8679 3.72945 62.7828 3.8108 62.6821 3.86836C62.5814 3.92591 62.4681 3.9579 62.3522 3.96152C61.8157 3.96152 61.5269 3.59014 61.5269 2.80609C61.5115 2.51654 61.5834 2.22903 61.7332 1.98078C61.7906 1.88132 61.876 1.80092 61.9787 1.74957C62.0814 1.69821 62.1969 1.67817 62.3109 1.69192C62.8474 1.69192 63.095 2.06331 63.095 2.80609C63.1448 3.09215 63.086 3.38653 62.9299 3.6314Z" fill="#201600"/>
<path d="M32.9712 1.23801C32.7833 1.2386 32.5977 1.27942 32.4268 1.35771C32.256 1.43601 32.1039 1.54997 31.9808 1.69193C31.7066 2.01369 31.5598 2.42473 31.5682 2.84737C31.5533 3.25865 31.7017 3.65913 31.9808 3.96154C32.1119 4.10182 32.2723 4.21152 32.4506 4.28284C32.6289 4.35416 32.8207 4.38535 33.0124 4.37419C33.2196 4.38101 33.427 4.36718 33.6314 4.33293C33.8021 4.29242 33.9589 4.20693 34.0853 4.08533L33.8378 3.67268C33.6152 3.85236 33.3397 3.95386 33.0537 3.96154C32.8806 3.96463 32.7098 3.92193 32.5585 3.83774C32.4182 3.74457 32.3045 3.61661 32.2284 3.46635C32.1439 3.28565 32.1016 3.0881 32.1046 2.88863H34.2917C34.3256 2.78207 34.3396 2.67015 34.3329 2.55851C34.3377 2.38351 34.3073 2.20933 34.2435 2.0463C34.1797 1.88327 34.0838 1.7347 33.9615 1.6094C33.8397 1.47087 33.6856 1.36452 33.5129 1.29974C33.3401 1.23496 33.1541 1.21376 32.9712 1.23801ZM32.1459 2.47598C32.1646 2.26002 32.2644 2.05914 32.4251 1.9137C32.5859 1.76827 32.7957 1.68904 33.0124 1.69193C33.2221 1.69755 33.4244 1.76982 33.5902 1.89826C33.7186 2.064 33.7909 2.26637 33.7965 2.47598H32.1459Z" fill="#201600"/>
<path d="M48.5283 2.72334C48.3117 2.77368 48.0904 2.80134 47.8681 2.80588C47.6882 2.81452 47.5116 2.75565 47.3729 2.64081C47.3076 2.57761 47.2585 2.49961 47.2298 2.41341C47.201 2.32721 47.1935 2.23536 47.2078 2.14563V1.32032H46.6714V2.14563C46.6593 2.44744 46.7626 2.74254 46.9602 2.97094C47.0655 3.06831 47.1889 3.14395 47.3235 3.19352C47.458 3.24309 47.601 3.26561 47.7443 3.2598C48.0074 3.25274 48.2695 3.22514 48.5283 3.17726V4.37396H49.0648V1.27905H48.5283V2.72334Z" fill="#201600"/>
<path d="M28.3081 1.73297H29.1747V4.3327H29.7111V1.73297H30.5777V1.27905H28.3081V1.73297Z" fill="#201600"/>
<path d="M43.3699 3.38385V1.27931H42.8335V4.41548H42.9573L44.8555 2.22841V4.33295H45.392V1.19678H45.2682L43.3699 3.38385Z" fill="#201600"/>
<path d="M40.9353 2.51702H39.5323V1.27905H38.9958V4.3327H39.5323V2.97094H40.9353V4.3327H41.4718V1.27905H40.9353V2.51702Z" fill="#201600"/>
<path d="M109.395 3.38385V1.27931H108.858V4.41548H108.982L110.88 2.22841V4.33295H111.417V1.19678H111.293L109.395 3.38385Z" fill="#201600"/>
<path d="M103.659 3.59021V2.47604C103.691 2.13401 103.587 1.7931 103.37 1.52693C103.092 1.33285 102.76 1.23173 102.421 1.23807C102.239 1.24533 102.06 1.27302 101.884 1.32061C101.736 1.36406 101.596 1.43395 101.472 1.52693L101.719 1.98085C101.825 1.88348 101.948 1.80784 102.083 1.75827C102.217 1.7087 102.36 1.68618 102.503 1.69199C102.957 1.69199 103.164 1.93959 103.164 2.43477C103.045 2.38777 102.92 2.35991 102.792 2.35224C102.42 2.33441 102.053 2.45164 101.761 2.68237C101.633 2.76912 101.528 2.88603 101.456 3.02277C101.384 3.15952 101.347 3.31188 101.348 3.46641C101.349 3.70907 101.436 3.94342 101.596 4.12666C101.676 4.2087 101.772 4.2731 101.879 4.31573C101.985 4.35837 102.1 4.3783 102.214 4.37425C102.401 4.39068 102.588 4.36172 102.76 4.28985C102.933 4.21797 103.085 4.10534 103.205 3.9616C103.249 4.07322 103.32 4.17237 103.411 4.25045C103.561 4.33737 103.737 4.36672 103.906 4.33299V4.12666C103.813 4.07572 103.738 3.99603 103.694 3.8994C103.649 3.80278 103.637 3.69436 103.659 3.59021ZM103.122 3.59021C103.038 3.70827 102.927 3.8039 102.797 3.86866C102.668 3.93343 102.524 3.96534 102.38 3.9616C102.008 3.9616 101.802 3.79653 101.802 3.50768C101.799 3.41118 101.821 3.31558 101.864 3.22924C101.907 3.14291 101.971 3.06848 102.049 3.01249C102.237 2.86489 102.472 2.79144 102.71 2.80616C102.833 2.80616 102.957 2.84743 103.081 2.84743L103.122 3.59021Z" fill="#201600"/>
<path d="M99.7385 2.68235C99.8727 2.63828 99.9888 2.55128 100.069 2.43476C100.146 2.32621 100.189 2.19679 100.192 2.06337C100.197 1.94461 100.174 1.82641 100.123 1.7187C100.073 1.611 99.9977 1.51692 99.9036 1.44439C99.6703 1.2951 99.3961 1.22292 99.1195 1.23806C98.7482 1.23806 98.3768 1.23806 97.9229 1.27932V4.29171H99.1608C99.4697 4.31265 99.7762 4.22508 100.027 4.04411C100.122 3.97158 100.197 3.8775 100.247 3.7698C100.297 3.66209 100.321 3.54389 100.316 3.42513C100.312 3.25583 100.254 3.09236 100.15 2.95869C100.046 2.82501 99.9016 2.72816 99.7385 2.68235ZM98.418 1.69198C98.5831 1.69198 98.8307 1.65071 99.1195 1.65071C99.254 1.6475 99.3853 1.69128 99.4909 1.77451C99.5659 1.85257 99.6099 1.95525 99.6147 2.06337C99.6147 2.35223 99.4084 2.51729 99.037 2.51729H98.3768V1.69198H98.418ZM99.0783 3.92032H98.418V2.92994H99.0783C99.2514 2.92685 99.4222 2.96955 99.5735 3.05374C99.638 3.0889 99.6891 3.14434 99.7189 3.21147C99.7488 3.2786 99.7556 3.35369 99.7385 3.42513C99.7798 3.75525 99.5322 3.92032 99.0783 3.92032Z" fill="#201600"/>
<path d="M94.5391 3.38385V1.27931H94.0027V4.41548H94.1265L96.0247 2.22841V4.33295H96.5612V1.19678H96.4374L94.5391 3.38385Z" fill="#201600"/>
<path d="M106.96 2.51702H105.598V1.27905H105.062V4.3327H105.598V2.97094H106.96V4.3327H107.496V1.27905H106.96V2.51702Z" fill="#201600"/>
<path d="M115.337 2.51716C115.342 2.34215 115.311 2.16798 115.248 2.00495C115.184 1.84192 115.088 1.69335 114.966 1.56805C114.682 1.34959 114.333 1.23327 113.975 1.23793C113.787 1.23852 113.602 1.27933 113.431 1.35763C113.26 1.43592 113.108 1.54988 112.985 1.69185C112.711 2.0136 112.564 2.42464 112.572 2.84728C112.557 3.25857 112.706 3.65904 112.985 3.96145C113.116 4.10174 113.276 4.21143 113.455 4.28275C113.633 4.35407 113.825 4.38526 114.017 4.3741C114.224 4.38092 114.431 4.3671 114.636 4.33284C114.806 4.29233 114.963 4.20684 115.089 4.08525L114.883 3.63133C114.661 3.811 114.385 3.9125 114.099 3.92018C113.926 3.92328 113.755 3.88057 113.604 3.79639C113.464 3.70322 113.35 3.57526 113.274 3.425C113.189 3.24429 113.147 3.04675 113.15 2.84728H115.337V2.51716ZM113.15 2.47589C113.169 2.25993 113.269 2.05905 113.429 1.91362C113.59 1.76818 113.8 1.68895 114.017 1.69185C114.226 1.69746 114.429 1.76973 114.594 1.89818C114.674 1.96947 114.735 2.05974 114.771 2.16068C114.807 2.26163 114.817 2.37002 114.801 2.47589H113.15Z" fill="#201600"/>
<path d="M92.5173 3.71397C92.4785 3.47988 92.3944 3.25561 92.2697 3.05372C92.1515 2.88593 91.9749 2.76823 91.7745 2.7236C91.9567 2.66501 92.1189 2.55671 92.2429 2.41089C92.3668 2.26507 92.4476 2.08754 92.4761 1.89829C92.5173 1.77449 92.5586 1.73323 92.6411 1.73323H92.7649V1.27931H92.5999C92.2697 1.27931 92.1047 1.44437 92.0221 1.81576C91.991 2.0141 91.9053 2.19985 91.7745 2.35221C91.6049 2.46834 91.4022 2.52627 91.1968 2.51727V1.27931H90.7016V2.47601C90.4963 2.485 90.2935 2.42708 90.1239 2.31095C89.9721 2.15155 89.8715 1.95033 89.8351 1.73323C89.8329 1.59162 89.7757 1.4564 89.6756 1.35626C89.5754 1.25611 89.4402 1.19891 89.2986 1.19678H89.0923V1.69196H89.2161C89.2986 1.69196 89.3399 1.73323 89.3811 1.85703C89.4204 2.0654 89.5049 2.26261 89.6287 2.43474C89.7652 2.56507 89.9378 2.65134 90.1239 2.68233C89.9158 2.75498 89.7339 2.88798 89.6017 3.06436C89.4694 3.24074 89.3926 3.45252 89.3811 3.67271C89.383 3.69486 89.3801 3.71715 89.3724 3.73803C89.3648 3.75891 89.3527 3.77788 89.337 3.7936C89.3213 3.80932 89.3023 3.82141 89.2814 3.82904C89.2605 3.83667 89.2382 3.83965 89.2161 3.83777H89.0923V4.29169H89.2574C89.3992 4.30087 89.5391 4.25421 89.647 4.16169C89.7549 4.06917 89.8224 3.93811 89.8351 3.7965V3.75524C89.8509 3.49584 89.9525 3.24907 90.1239 3.05372C90.3049 2.92449 90.5206 2.85261 90.7429 2.8474V4.20916H91.2794V2.92993C91.3849 2.91951 91.4915 2.93261 91.5914 2.96829C91.6913 3.00396 91.782 3.06133 91.8571 3.13625C92.0111 3.3263 92.1109 3.55442 92.1459 3.7965C92.1481 3.93811 92.2053 4.07333 92.3054 4.17348C92.4056 4.27362 92.5408 4.33082 92.6824 4.33295H92.93V3.87903H92.8062C92.5999 3.87903 92.5586 3.83777 92.5173 3.71397Z" fill="#201600"/>
<path d="M75.9696 1.44429C75.7519 1.44032 75.5375 1.49751 75.3506 1.60935C75.1469 1.73061 74.9767 1.90082 74.8554 2.10454C74.8708 1.84977 74.9265 1.59905 75.0205 1.36176C75.0935 1.19827 75.2072 1.0562 75.3506 0.949106C75.4896 0.855922 75.643 0.786217 75.8046 0.742779C75.9696 0.701513 76.4235 0.618982 77.0838 0.45392L77.0425 0L76.0521 0.206327C75.7919 0.266236 75.5417 0.363533 75.3094 0.495186C75.1219 0.586802 74.9645 0.729944 74.8554 0.907841C74.7174 1.12221 74.6195 1.35992 74.5666 1.60935C74.4982 1.93479 74.4705 2.26746 74.4841 2.59973C74.4654 3.06806 74.5954 3.5303 74.8554 3.92022C74.9749 4.07968 75.131 4.20796 75.3106 4.29417C75.4902 4.38038 75.688 4.42197 75.8871 4.41541C76.0722 4.42243 76.2566 4.38917 76.4276 4.31792C76.5986 4.24668 76.7521 4.13914 76.8775 4.00275C77.1275 3.68607 77.2588 3.29193 77.2488 2.88858C77.2667 2.51616 77.1495 2.14983 76.9187 1.85695C76.8015 1.72152 76.6554 1.61413 76.4911 1.54271C76.3268 1.47129 76.1486 1.43766 75.9696 1.44429ZM76.4648 3.67263C76.3944 3.75885 76.3065 3.82917 76.2069 3.87895C76.1073 3.92874 75.9983 3.95687 75.8871 3.96149C75.7677 3.97087 75.648 3.9492 75.5395 3.89858C75.4311 3.84796 75.3376 3.77012 75.2681 3.67263C75.1013 3.46156 75.0137 3.19876 75.0205 2.92985C75.0209 2.67466 75.1082 2.42723 75.2681 2.22834C75.3406 2.14175 75.4306 2.0714 75.5321 2.02186C75.6336 1.97233 75.7444 1.94472 75.8572 1.94083C75.9701 1.93693 76.0826 1.95685 76.1872 1.99927C76.2919 2.0417 76.3865 2.10569 76.4648 2.18707C76.6136 2.40513 76.6862 2.66628 76.6711 2.92985C76.7009 3.1948 76.627 3.461 76.4648 3.67263Z" fill="#201600"/>
<path d="M86.8225 3.63119L85.9559 1.27905H85.4194L86.4923 4.00257C86.5399 4.16366 86.5676 4.32995 86.5749 4.49776C86.5736 4.57689 86.5495 4.65397 86.5056 4.71982C86.4617 4.78567 86.3998 4.8375 86.3273 4.86915C86.1577 4.98528 85.9549 5.04321 85.7496 5.03421V5.5294C86.0106 5.52456 86.2662 5.45357 86.4923 5.32307C86.7024 5.22352 86.8653 5.04583 86.9463 4.82788L88.2255 1.27905H87.689L86.8225 3.63119Z" fill="#201600"/>
<path d="M72.132 1.23787C71.9458 1.22144 71.7585 1.25041 71.586 1.32228C71.4135 1.39415 71.261 1.50679 71.1416 1.65053C70.88 1.96085 70.7472 2.3595 70.7702 2.7647C70.7469 3.18252 70.8792 3.59417 71.1416 3.92013C71.4012 4.18384 71.7536 4.33573 72.1236 4.34344C72.4936 4.35115 72.852 4.21406 73.1223 3.9614L73.1636 3.92013C73.426 3.59417 73.5584 3.18252 73.535 2.7647C73.5384 2.36237 73.4077 1.97037 73.1636 1.65053C73.0336 1.50884 72.8733 1.39819 72.6948 1.32677C72.5162 1.25534 72.3239 1.22496 72.132 1.23787ZM72.7097 3.63127C72.6477 3.72932 72.5626 3.81067 72.4619 3.86823C72.3612 3.92578 72.2479 3.95777 72.132 3.9614C71.5955 3.9614 71.3067 3.59001 71.3067 2.80596C71.2913 2.51641 71.3632 2.2289 71.513 1.98065C71.5704 1.88119 71.6557 1.80079 71.7585 1.74944C71.8612 1.69808 71.9767 1.67804 72.0907 1.69179C72.6272 1.69179 72.8748 2.06318 72.8748 2.80596C72.9044 3.09143 72.8469 3.37918 72.7097 3.63127Z" fill="#201600"/>
<path d="M66.0662 1.23804C65.8782 1.23863 65.6926 1.27944 65.5218 1.35773C65.351 1.43603 65.1989 1.54999 65.0758 1.69196C64.8016 2.01371 64.6548 2.42475 64.6631 2.84739C64.6483 3.25868 64.7966 3.65915 65.0758 3.96156C65.2069 4.10185 65.3673 4.21154 65.5456 4.28286C65.7239 4.35418 65.9157 4.38537 66.1074 4.37421C66.3146 4.38103 66.522 4.36721 66.7264 4.33295C66.8971 4.29244 67.0538 4.20695 67.1803 4.08535L66.974 3.63143C66.7514 3.81111 66.4759 3.91261 66.1899 3.92029C66.0169 3.92339 65.846 3.88068 65.6948 3.7965C65.5545 3.70333 65.4407 3.57537 65.3646 3.42511C65.2801 3.2444 65.2378 3.04686 65.2408 2.84739H67.4279C67.4619 2.74083 67.4759 2.62891 67.4692 2.51727C67.4739 2.34226 67.4435 2.16809 67.3797 2.00506C67.3159 1.84203 67.2201 1.69346 67.0978 1.56816C66.9613 1.4398 66.7978 1.34356 66.6193 1.28644C66.4408 1.22933 66.2518 1.21279 66.0662 1.23804ZM65.2408 2.476C65.2596 2.26004 65.3593 2.05916 65.5201 1.91373C65.6808 1.76829 65.8907 1.68906 66.1074 1.69196C66.317 1.69757 66.5194 1.76984 66.6851 1.89828C66.8136 2.06403 66.8859 2.26639 66.8915 2.476H65.2408Z" fill="#201600"/>
<path d="M82.5309 1.56791C82.5259 2.06988 82.4566 2.56915 82.3246 3.05347C82.2008 3.58992 81.9532 3.83751 81.623 3.83751V4.3327C81.818 4.32549 82.0116 4.29783 82.2008 4.25017C82.3787 4.14115 82.5218 3.9837 82.6134 3.79625C82.766 3.51084 82.8771 3.20516 82.9435 2.88841C83.0276 2.4951 83.0691 2.09389 83.0673 1.69171H83.8926V4.29143H84.4291V1.27905H82.5309V1.56791Z" fill="#201600"/>
<path d="M79.7662 3.92021C79.6292 3.92588 79.4925 3.90315 79.3647 3.85344C79.2368 3.80373 79.1207 3.72812 79.0235 3.63135C78.9319 3.52385 78.8628 3.39907 78.8203 3.26441C78.7777 3.12974 78.7626 2.98791 78.7759 2.84731C78.7753 2.55382 78.8614 2.26671 79.0235 2.022C79.1076 1.91723 79.2145 1.83304 79.3361 1.77583C79.4576 1.71863 79.5906 1.68991 79.725 1.69187C79.8658 1.69938 80.0048 1.72718 80.1376 1.77441C80.2464 1.80404 80.3458 1.86084 80.4265 1.93947L80.6741 1.56808C80.5596 1.48378 80.4348 1.41445 80.3027 1.36175C80.1366 1.2774 79.9525 1.2349 79.7662 1.23795C79.5557 1.22409 79.3445 1.25355 79.1458 1.32453C78.947 1.39551 78.765 1.50649 78.6108 1.65061C78.4667 1.80476 78.3557 1.98682 78.2847 2.18556C78.2138 2.38429 78.1843 2.59547 78.1982 2.80604C78.1833 3.21733 78.3317 3.6178 78.6108 3.92021C78.7419 4.0605 78.9023 4.1702 79.0806 4.24151C79.2589 4.31283 79.4507 4.34402 79.6425 4.33286C80.0202 4.34 80.3922 4.23984 80.7154 4.04401L80.509 3.59009C80.414 3.69255 80.2992 3.77464 80.1715 3.83139C80.0438 3.88813 79.906 3.91835 79.7662 3.92021Z" fill="#201600"/>
<path d="M34.9105 7.88163C34.909 8.40043 34.8254 8.91573 34.6629 9.40845C34.5391 9.9449 34.2915 10.1925 33.9614 10.1925V10.6877C34.1431 10.6836 34.3234 10.6558 34.4979 10.6051C34.6758 10.4961 34.8189 10.3387 34.9105 10.1512C35.0631 9.86582 35.1743 9.56014 35.2407 9.24339C35.3247 8.85009 35.3662 8.44887 35.3644 8.04669H36.1898V10.6464H36.7262V7.63403H34.9105V7.88163Z" fill="#201600"/>
<path d="M41.1004 7.51025L39.2022 9.69732V7.63405H38.6658V10.729H38.7896L40.6878 8.58316V10.6464H41.183V7.51025H41.1004Z" fill="#201600"/>
<path d="M58.6382 9.03709C58.7724 8.99302 58.8884 8.90601 58.9683 8.78949C59.0459 8.68094 59.0891 8.55153 59.0921 8.41811C59.097 8.29935 59.0733 8.18115 59.0231 8.07344C58.9728 7.96573 58.8974 7.87166 58.8033 7.79912C58.57 7.64983 58.2957 7.57766 58.0192 7.5928C57.6478 7.5928 57.2764 7.5928 56.8225 7.63406V10.6464H58.0605C58.3694 10.6674 58.6759 10.5798 58.9271 10.3988C59.0212 10.3263 59.0966 10.2322 59.1469 10.1245C59.1971 10.0168 59.2208 9.89863 59.2159 9.77987C59.228 9.69297 59.2226 9.60453 59.1999 9.51978C59.1773 9.43502 59.1379 9.35567 59.084 9.28641C59.0301 9.21716 58.9629 9.15941 58.8864 9.11659C58.8098 9.07376 58.7254 9.04673 58.6382 9.03709ZM57.359 8.00545H58.0605C58.1949 8.00224 58.3263 8.04602 58.4319 8.12925C58.4721 8.16559 58.5041 8.21024 58.5254 8.2601C58.5468 8.30997 58.5571 8.36387 58.5557 8.41811C58.5557 8.70696 58.3493 8.87203 57.9779 8.87203H57.359V8.00545ZM58.0192 10.2338H57.359V9.24342H58.0192C58.1923 9.24032 58.3631 9.28303 58.5144 9.36721C58.5716 9.40961 58.6169 9.4661 58.6458 9.53118C58.6747 9.59626 58.6863 9.66772 58.6795 9.7386C58.6795 10.0687 58.4731 10.2338 58.0192 10.2338Z" fill="#201600"/>
<path d="M66.3548 7.51025L64.4566 9.69732V7.63405H63.9202V10.729H64.044L65.9009 8.58316V10.6464H66.4786V7.51025H66.3548Z" fill="#201600"/>
<path d="M53.7689 7.55169C53.5838 7.54467 53.3994 7.57793 53.2284 7.64918C53.0574 7.72042 52.9039 7.82796 52.7786 7.96435C52.517 8.27467 52.3841 8.67332 52.4072 9.07852C52.3838 9.49634 52.5161 9.90799 52.7786 10.234C53.0382 10.4977 53.3906 10.6496 53.7605 10.6573C54.1305 10.665 54.4889 10.5279 54.7593 10.2752L54.8006 10.234C55.063 9.90799 55.1953 9.49634 55.172 9.07852C55.1953 8.6607 55.063 8.24904 54.8006 7.92308C54.6626 7.7947 54.5001 7.6956 54.3228 7.63177C54.1455 7.56793 53.9571 7.5407 53.7689 7.55169ZM54.3467 9.94509C54.2847 10.0431 54.1996 10.1245 54.0989 10.182C53.9982 10.2396 53.8849 10.2716 53.7689 10.2752C53.2325 10.2752 52.9436 9.90383 52.9436 9.11978C52.9282 8.83023 53.0001 8.54272 53.15 8.29447C53.2074 8.19501 53.2927 8.11461 53.3954 8.06326C53.4981 8.0119 53.6137 7.99186 53.7277 8.00561C54.2641 8.00561 54.5117 8.377 54.5117 9.11978C54.5414 9.40525 54.4838 9.693 54.3467 9.94509Z" fill="#201600"/>
<path d="M48.5696 8.04669H49.4362V10.6464H49.9726V8.04669H50.8392V7.63403H48.5696V8.04669Z" fill="#201600"/>
<path d="M45.7223 7.55168C45.5622 7.54803 45.4045 7.59104 45.2684 7.67548V6.35498H44.7319V7.67548C44.5907 7.59593 44.4374 7.54016 44.278 7.51041C44.0954 7.50687 43.9145 7.54607 43.7497 7.62489C43.5849 7.7037 43.4408 7.81994 43.3289 7.96433C43.0776 8.29432 42.9597 8.70683 42.9988 9.11977C42.9807 9.51768 43.0969 9.91013 43.3289 10.2339C43.44 10.3766 43.5851 10.4891 43.7509 10.5612C43.9167 10.6333 44.0979 10.6627 44.278 10.6466C44.4511 10.6497 44.6219 10.607 44.7732 10.5228V11.7608H45.3097V10.5228C45.5411 10.6433 45.807 10.6803 46.0625 10.6277C46.318 10.5751 46.5477 10.436 46.7127 10.2339C46.9574 9.89871 47.0876 9.49355 47.0841 9.0785C47.1231 8.66556 47.0052 8.25306 46.7539 7.92307C46.616 7.79468 46.4535 7.69558 46.2761 7.63175C46.0988 7.56792 45.9104 7.54068 45.7223 7.55168ZM44.7319 10.1927C44.6133 10.2397 44.4879 10.2675 44.3605 10.2752C44.2308 10.286 44.1006 10.261 43.9841 10.2027C43.8677 10.1445 43.7695 10.0554 43.7003 9.94508C43.532 9.70486 43.4586 9.41091 43.494 9.11977C43.4786 8.83021 43.5505 8.54271 43.7003 8.29446C43.7698 8.19697 43.8633 8.11912 43.9717 8.0685C44.0802 8.01788 44.1999 7.99621 44.3193 8.0056C44.4601 8.01311 44.5991 8.0409 44.7319 8.08813V10.1927ZM45.6398 10.2752C45.5124 10.2675 45.387 10.2397 45.2684 10.1927V8.08813C45.387 8.04113 45.5124 8.01327 45.6398 8.0056C45.7576 8.00678 45.8738 8.03316 45.9806 8.08299C46.0873 8.13281 46.1822 8.20492 46.2588 8.29446C46.4208 8.53917 46.5069 8.82628 46.5063 9.11977C46.5063 9.86255 46.2175 10.2752 45.6398 10.2752Z" fill="#201600"/>
<path d="M72.1735 7.5516C71.8087 7.54469 71.45 7.64514 71.1418 7.84046L71.3894 8.25312C71.6005 8.08635 71.8633 7.99875 72.1322 8.00552C72.3674 8.01017 72.5965 8.08174 72.7925 8.21185C72.9671 8.39324 73.0822 8.62357 73.1226 8.8721H71.9259V9.28475H73.1639C73.1695 9.42179 73.1468 9.55852 73.0971 9.68634C73.0474 9.81417 72.9718 9.93033 72.875 10.0275C72.7917 10.1172 72.6887 10.1863 72.5741 10.2293C72.4595 10.2723 72.3365 10.288 72.2147 10.2751C71.9412 10.2675 71.6788 10.1655 71.472 9.98627L71.2244 10.3989C71.5355 10.6182 71.9103 10.7289 72.2906 10.714C72.671 10.6991 73.0359 10.5594 73.3289 10.3164C73.473 10.1622 73.584 9.98018 73.655 9.78144C73.726 9.58271 73.7554 9.37153 73.7416 9.16096C73.7516 8.75761 73.6202 8.36347 73.3702 8.04679C73.2133 7.88934 73.0267 7.76452 72.8214 7.67953C72.616 7.59454 72.3958 7.55106 72.1735 7.5516Z" fill="#201600"/>
<path d="M85.6671 9.90374V8.83084C85.6992 8.48881 85.5954 8.1479 85.3782 7.88173C85.1121 7.66456 84.7711 7.5608 84.4291 7.59288C84.2478 7.60013 84.0678 7.62782 83.8927 7.67541C83.7438 7.71886 83.6041 7.78875 83.48 7.88173L83.7276 8.33565C83.8329 8.23828 83.9563 8.16264 84.0908 8.11307C84.2254 8.0635 84.3684 8.04098 84.5117 8.0468C84.9656 8.0468 85.1719 8.29439 85.1719 8.78957C85.0532 8.74257 84.9279 8.71471 84.8005 8.70704C84.4281 8.68921 84.0618 8.80644 83.7689 9.03717C83.641 9.12392 83.5364 9.24083 83.4645 9.37757C83.3925 9.51432 83.3553 9.66669 83.3562 9.82121C83.3568 10.0639 83.4447 10.2982 83.6038 10.4815C83.6841 10.5635 83.7806 10.6279 83.8872 10.6705C83.9938 10.7132 84.1081 10.7331 84.2228 10.7291C84.4089 10.7455 84.5963 10.7165 84.7688 10.6446C84.9413 10.5728 85.0938 10.4601 85.2132 10.3164C85.2574 10.428 85.3283 10.5272 85.4195 10.6053C85.569 10.6922 85.7451 10.7215 85.9147 10.6878V10.4402C85.8348 10.3759 85.7709 10.2941 85.728 10.201C85.685 10.1079 85.6642 10.0062 85.6671 9.90374ZM85.1719 9.90374C85.088 10.0218 84.9764 10.1174 84.8469 10.1822C84.7174 10.247 84.5739 10.2789 84.4291 10.2751C84.0577 10.2751 83.8514 10.1101 83.8514 9.82121C83.849 9.72472 83.8704 9.62911 83.9135 9.54278C83.9567 9.45645 84.0204 9.38202 84.099 9.32603C84.2862 9.17842 84.5213 9.10497 84.7592 9.1197C84.883 9.1197 85.0068 9.16096 85.1306 9.16096L85.1719 9.90374Z" fill="#201600"/>
<path d="M109.849 7.55169C109.664 7.54467 109.479 7.57793 109.308 7.64918C109.137 7.72042 108.984 7.82796 108.858 7.96435C108.597 8.27467 108.464 8.67332 108.487 9.07852C108.464 9.49634 108.596 9.90799 108.858 10.234C109.118 10.4977 109.47 10.6496 109.84 10.6573C110.21 10.665 110.569 10.5279 110.839 10.2752L110.88 10.234C111.143 9.90799 111.275 9.49634 111.252 9.07852C111.275 8.6607 111.143 8.24904 110.88 7.92308C110.742 7.7947 110.58 7.6956 110.403 7.63177C110.225 7.56793 110.037 7.5407 109.849 7.55169ZM110.427 9.94509C110.365 10.0431 110.279 10.1245 110.179 10.182C110.078 10.2396 109.965 10.2716 109.849 10.2752C109.312 10.2752 109.023 9.90383 109.023 9.11978C109.008 8.83023 109.08 8.54272 109.23 8.29447C109.293 8.19052 109.385 8.1076 109.495 8.05618C109.606 8.00477 109.729 7.98717 109.849 8.00561C110.385 8.00561 110.633 8.377 110.633 9.11978C110.648 9.40934 110.576 9.69684 110.427 9.94509Z" fill="#201600"/>
<path d="M81.458 10.0274C81.4283 9.80718 81.3398 9.599 81.2018 9.42473C81.0639 9.25047 80.8816 9.11657 80.674 9.03707C80.8708 8.99915 81.0498 8.89803 81.1839 8.74907C81.318 8.6001 81.3997 8.41144 81.4168 8.21176C81.458 8.08797 81.4993 8.0467 81.5818 8.0467H81.7056V7.59278H81.5406C81.4698 7.5854 81.3982 7.59254 81.3302 7.61374C81.2622 7.63495 81.1993 7.66979 81.1452 7.71613C81.0912 7.76247 81.0471 7.81934 81.0157 7.88327C80.9844 7.9472 80.9664 8.01685 80.9629 8.08797C80.935 8.29597 80.8323 8.4867 80.674 8.62442C80.4822 8.7599 80.2467 8.81877 80.0138 8.78948H79.9312V7.55151H79.3948V10.5639H79.9312V9.20213H79.9725C80.2232 9.18734 80.4712 9.2603 80.674 9.40846C80.8512 9.58351 80.9545 9.81979 80.9629 10.0687C80.9655 10.1419 80.9826 10.2138 81.0131 10.2804C81.0435 10.347 81.0868 10.4069 81.1405 10.4567C81.1942 10.5065 81.2571 10.5453 81.3258 10.5708C81.3944 10.5962 81.4674 10.6079 81.5406 10.6052H81.7882V10.11H81.6231C81.5406 10.1925 81.458 10.1512 81.458 10.0274Z" fill="#201600"/>
<path d="M88.308 7.88188C88.303 8.38385 88.2337 8.88311 88.1017 9.36743C87.9779 9.90389 87.7303 10.1515 87.4001 10.1515V10.6467C87.5951 10.6395 87.7887 10.6118 87.9779 10.5641C88.1558 10.4551 88.2989 10.2977 88.3905 10.1102C88.5431 9.82481 88.6543 9.51912 88.7206 9.20237C88.8047 8.80907 88.8462 8.40786 88.8444 8.00567H89.6697V10.6054H90.2062V7.59302H88.308V7.88188Z" fill="#201600"/>
<path d="M76.7125 10.2339C76.5755 10.2396 76.4388 10.2169 76.311 10.1672C76.1831 10.1174 76.067 10.0418 75.9698 9.94507C75.8782 9.83756 75.8091 9.71279 75.7666 9.57812C75.724 9.44345 75.7089 9.30163 75.7222 9.16102C75.7216 8.86754 75.8077 8.58042 75.9698 8.33571C76.0539 8.23095 76.1608 8.14676 76.2824 8.08955C76.4039 8.03234 76.5369 8.00363 76.6713 8.00559C76.8121 8.0131 76.9511 8.04089 77.0839 8.08812C77.1927 8.11775 77.2921 8.17455 77.3728 8.25318L77.6204 7.88179C77.5059 7.7975 77.3811 7.72816 77.249 7.67547C77.093 7.60825 76.9231 7.57993 76.7538 7.59293C76.5432 7.57907 76.3321 7.60853 76.1333 7.67951C75.9346 7.75049 75.7525 7.86147 75.5984 8.00559C75.4508 8.16585 75.338 8.35489 75.267 8.56082C75.196 8.76676 75.1683 8.98515 75.1857 9.20229C75.1709 9.61357 75.3192 10.014 75.5984 10.3165C75.7295 10.4567 75.8899 10.5664 76.0682 10.6378C76.2465 10.7091 76.4383 10.7403 76.63 10.7291C77.0078 10.7362 77.3798 10.6361 77.7029 10.4403L77.4966 9.98633C77.2644 10.1424 76.9922 10.2284 76.7125 10.2339Z" fill="#201600"/>
<path d="M105.557 7.55148C105.42 7.5458 105.283 7.56854 105.155 7.61825C105.028 7.66796 104.911 7.74357 104.814 7.84034V7.59274H104.278V11.8431H104.814V10.4813C104.895 10.56 104.994 10.6168 105.103 10.6464C105.236 10.6936 105.375 10.7214 105.516 10.7289C105.708 10.7494 105.903 10.7225 106.083 10.6506C106.263 10.5787 106.422 10.4639 106.547 10.3163C106.792 9.99642 106.922 9.60442 106.919 9.2021C106.957 8.76989 106.824 8.33998 106.547 8.0054C106.43 7.85651 106.279 7.73768 106.107 7.65874C105.935 7.5798 105.746 7.54303 105.557 7.55148ZM105.351 10.2337C105.237 10.2259 105.125 10.198 105.021 10.1512C104.936 10.1203 104.863 10.0623 104.814 9.98614V8.25299C104.887 8.18404 104.97 8.12819 105.062 8.08793C105.15 8.0363 105.249 8.0079 105.351 8.0054C105.485 7.99226 105.62 8.00751 105.748 8.05016C105.876 8.09282 105.994 8.16193 106.094 8.25299C106.272 8.48957 106.36 8.78243 106.341 9.0783C106.341 9.86234 106.011 10.2337 105.351 10.2337Z" fill="#201600"/>
<path d="M101.183 7.55169C100.998 7.54467 100.813 7.57793 100.642 7.64918C100.471 7.72042 100.318 7.82796 100.193 7.96435C99.9311 8.27467 99.7982 8.67332 99.8212 9.07852C99.7979 9.49634 99.9302 9.90799 100.193 10.234C100.452 10.4977 100.805 10.6496 101.175 10.6573C101.545 10.665 101.903 10.5279 102.173 10.2752L102.215 10.234C102.477 9.90799 102.609 9.49634 102.586 9.07852C102.609 8.6607 102.477 8.24904 102.215 7.92308C102.077 7.7947 101.914 7.6956 101.737 7.63177C101.56 7.56793 101.371 7.5407 101.183 7.55169ZM101.761 9.94509C101.699 10.0431 101.614 10.1245 101.513 10.182C101.412 10.2396 101.299 10.2716 101.183 10.2752C100.647 10.2752 100.358 9.90383 100.358 9.11978C100.342 8.83023 100.414 8.54272 100.564 8.29447C100.621 8.19501 100.707 8.11461 100.809 8.06326C100.912 8.0119 101.028 7.99186 101.142 8.00561C101.678 8.00561 101.926 8.377 101.926 9.11978C101.976 9.40584 101.917 9.70022 101.761 9.94509Z" fill="#201600"/>
<path d="M95.9834 8.04669H96.8912V10.6464H97.4277V8.04669H98.2943V7.63403H95.9834V8.04669Z" fill="#201600"/>
<path d="M94.2503 9.90374V8.83084C94.2824 8.48881 94.1786 8.1479 93.9615 7.88173C93.6953 7.66456 93.3544 7.5608 93.0124 7.59288C92.831 7.60013 92.6511 7.62782 92.4759 7.67541C92.3271 7.71886 92.1873 7.78875 92.0633 7.88173L92.3109 8.33565C92.4161 8.23828 92.5395 8.16264 92.6741 8.11307C92.8086 8.0635 92.9516 8.04098 93.0949 8.0468C93.5488 8.0468 93.7551 8.29439 93.7551 8.78957C93.6365 8.74257 93.5111 8.71471 93.3838 8.70704C93.0113 8.68921 92.645 8.80644 92.3521 9.03717C92.2242 9.12392 92.1197 9.24083 92.0477 9.37757C91.9758 9.51432 91.9386 9.66669 91.9395 9.82121C91.9401 10.0639 92.028 10.2982 92.1871 10.4815C92.2673 10.5635 92.3639 10.6279 92.4704 10.6705C92.577 10.7132 92.6913 10.7331 92.806 10.7291C92.9922 10.7455 93.1795 10.7165 93.352 10.6446C93.5245 10.5728 93.677 10.4601 93.7964 10.3164C93.8407 10.428 93.9115 10.5272 94.0027 10.6053C94.1522 10.6922 94.3283 10.7215 94.4979 10.6878V10.4402C94.4112 10.3823 94.3422 10.3016 94.2985 10.2069C94.2548 10.1122 94.2381 10.0073 94.2503 9.90374ZM93.7139 9.90374C93.63 10.0218 93.5184 10.1174 93.3889 10.1822C93.2593 10.247 93.1159 10.2789 92.9711 10.2751C92.5997 10.2751 92.3934 10.1101 92.3934 9.82121C92.391 9.72472 92.4123 9.62911 92.4555 9.54278C92.4987 9.45645 92.5624 9.38202 92.641 9.32603C92.8282 9.17842 93.0633 9.10497 93.3012 9.1197C93.425 9.1197 93.5488 9.16096 93.6726 9.16096L93.7139 9.90374Z" fill="#201600"/>
<path d="M114.759 9.03709C114.894 8.99302 115.01 8.90601 115.089 8.78949C115.167 8.68094 115.21 8.55153 115.213 8.41811C115.218 8.29935 115.194 8.18115 115.144 8.07344C115.094 7.96573 115.018 7.87166 114.924 7.79912C114.691 7.64983 114.417 7.57766 114.14 7.5928C113.769 7.5928 113.398 7.5928 112.944 7.63406V10.6464H114.182C114.49 10.6674 114.797 10.5798 115.048 10.3988C115.142 10.3263 115.218 10.2322 115.268 10.1245C115.318 10.0168 115.342 9.89863 115.337 9.77987C115.345 9.60744 115.292 9.43772 115.186 9.30146C115.08 9.1652 114.928 9.07141 114.759 9.03709ZM113.439 8.00545H114.14C114.275 8.00224 114.406 8.04602 114.512 8.12925C114.552 8.16559 114.584 8.21024 114.605 8.2601C114.627 8.30997 114.637 8.36387 114.635 8.41811C114.635 8.70696 114.429 8.87203 114.058 8.87203H113.398L113.439 8.00545ZM114.099 10.2338H113.439V9.24342H114.099C114.272 9.24032 114.443 9.28303 114.594 9.36721C114.659 9.40237 114.71 9.45781 114.74 9.52494C114.77 9.59207 114.776 9.66716 114.759 9.7386C114.801 10.0687 114.553 10.2338 114.099 10.2338Z" fill="#201600"/>
<path d="M68.7483 29.5874H71.6781V17.3316H75.5158V15.5159H68.7483V29.5874Z" fill="#201600"/>
<path d="M45.4747 24.9244C45.4776 25.6683 45.3081 26.4028 44.9795 27.0702C44.5866 27.659 44.0042 28.0959 43.3289 28.3082L43.7415 29.6699C44.3113 29.7963 44.9034 29.7795 45.4651 29.6211C46.0268 29.4626 46.5405 29.1675 46.9602 28.7621C47.8184 27.9054 48.3197 26.7552 48.3632 25.5434L48.8172 17.4966H50.2202V29.5874H53.1913V15.5159H45.9286L45.4747 24.9244Z" fill="#201600"/>
<path d="M60.4126 24.0578C60.4126 24.2641 60.3301 24.6767 60.2888 25.2132C60.1935 25.5915 60.1382 25.9788 60.1238 26.3686C60.1238 26.4924 60.0825 26.6162 60.0825 26.7813C60.075 26.9221 60.0472 27.0611 60 27.1939C59.9557 27.3056 59.8849 27.4047 59.7936 27.4828C59.7294 27.5626 59.6475 27.6265 59.5544 27.6695C59.4614 27.7124 59.3596 27.7333 59.2572 27.7304C59.056 27.7091 58.8675 27.622 58.7207 27.4828C58.4769 27.1808 58.3587 26.7966 58.3906 26.4099C58.3974 26.2437 58.3835 26.0774 58.3493 25.9147C58.3081 25.7084 58.3081 25.5433 58.2668 25.3782C58.1843 24.4291 58.143 23.4388 58.143 22.4897C58.1081 21.5123 58.1356 20.5337 58.2255 19.5598C58.2704 19.3701 58.298 19.1768 58.3081 18.9821C58.3221 18.7469 58.3497 18.5127 58.3906 18.2806C58.4315 18.0077 58.5456 17.751 58.7207 17.5378C58.7815 17.4813 58.8529 17.4375 58.9309 17.4092C59.0089 17.3808 59.0918 17.3684 59.1746 17.3727C59.3385 17.3836 59.496 17.4409 59.6286 17.5378C59.7884 17.7367 59.8758 17.9841 59.8762 18.2393C59.9174 18.5282 60 18.8996 60.0412 19.436C60.0412 19.6836 60.0825 20.055 60.0825 20.5915L62.6822 20.3026C62.7729 19.5698 62.7168 18.8264 62.5172 18.1155C62.3502 17.3383 61.9466 16.6319 61.3617 16.0935C61.037 15.807 60.6573 15.5897 60.2458 15.4549C59.8343 15.3201 59.3996 15.2706 58.9683 15.3095C57.3177 15.3095 56.2448 15.9285 55.7496 17.1252C55.1783 18.7268 54.8988 20.418 54.9243 22.1183C54.8758 23.0122 54.8896 23.9085 54.9656 24.8005C55.0027 25.6464 55.1697 26.4814 55.4608 27.2765C55.7094 28.0007 56.1518 28.643 56.74 29.1334C57.4271 29.6124 58.256 29.8451 59.0921 29.7936C60.6189 29.7936 61.6506 29.1747 62.2283 27.978C62.7877 26.839 63.0301 25.5703 62.9298 24.3053L60.4126 24.0578Z" fill="#201600"/>
<path d="M83.5627 16.3825C82.2532 15.7493 80.8068 15.4515 79.3536 15.5159H76.8364V29.6287H79.7663V25.1308C81.1677 25.1578 82.5459 24.7702 83.7278 24.0166C84.8007 23.2738 85.2959 21.9946 85.2546 20.1789C85.2133 18.2394 84.6356 16.9602 83.5627 16.3825ZM81.4582 22.8199C81.2335 23.0359 80.9683 23.2053 80.678 23.3186C80.3877 23.4319 80.0779 23.4868 79.7663 23.4802V17.2903C80.3591 17.2431 80.948 17.4198 81.4169 17.7855C81.9121 18.1569 82.1597 18.9822 82.1597 20.3027C82.1597 21.6232 81.9121 22.4485 81.4582 22.8199Z" fill="#201600"/>
<path d="M90.3302 22.0771L88.6384 15.4746H85.5847L88.8447 25.7085L88.432 26.8226C88.3758 27.0434 88.2731 27.2496 88.1307 27.4275C87.9884 27.6054 87.8098 27.7509 87.6067 27.8543C87.0965 28.0597 86.5457 28.1444 85.9974 28.1018L86.1624 29.5461C87.1942 29.866 88.3062 29.8075 89.2986 29.3811C89.7728 29.1903 90.1975 28.8943 90.5406 28.5154C90.8837 28.1366 91.1363 27.6847 91.2794 27.194L94.952 15.4333H91.8571L90.3302 22.0771Z" fill="#201600"/>
<path d="M107.167 15.5159V29.5874H110.096V17.3316H112.614V29.5874H115.543V15.5159H107.167Z" fill="#201600"/>
<path d="M96.2722 29.5874H99.2021V17.3316H101.719V29.5874H104.649V15.5159H96.2722V29.5874Z" fill="#201600"/>
</g>
<defs>
<clipPath id="clip0">
<rect width="115.543" height="30" fill="white"/>
</clipPath>
</defs>
</svg>
